<svg id="Layer_1" data-name="Layer 1" xmlns="http://www.w3.org/2000/svg" xmlns:xlink="http://www.w3.org/1999/xlink" viewBox="0 0 240 80.76843">
  <defs>
    <style>
      .cls-1 {
        fill: #fff;
      }

      .cls-2 {
        fill: url(#linear-gradient);
      }

      .cls-3 {
        fill: #ff005c;
      }
    </style>
    <linearGradient id="linear-gradient" x1="42.25055" y1="46.49333" x2="86.74065" y2="2.35253" gradientTransform="matrix(1, 0, 0, -1, 0, 83.53686)" gradientUnits="userSpaceOnUse">
      <stop offset="0.2238" stop-color="#ea3970" stop-opacity="0.64"/>
      <stop offset="1" stop-color="#ea3970" stop-opacity="0.32"/>
    </linearGradient>
  </defs>
  <g>
    <path class="cls-1" d="M92.0212,34.16243a32.08344,32.08344,0,0,1-4.7478-1.1443,10.659,10.659,0,0,1-3.0965-1.6645,7.55378,7.55378,0,0,1-1.7546-1.9766,5.84784,5.84784,0,0,1-.8257-2.0806,11.54141,11.54141,0,0,1-.2065-1.8726v-.3121H94.808a2.90234,2.90234,0,0,0,.1032.9363,2.12929,2.12929,0,0,0,.7225,1.0403,7.80813,7.80813,0,0,0,1.6515.9363,10.06817,10.06817,0,0,0,2.8898.4161h.103a19.13481,19.13481,0,0,0,2.787-.2081,5.16854,5.16854,0,0,0,1.652-.5201,1.24055,1.24055,0,0,0,.722-.7282,2.47061,2.47061,0,0,0,.207-.8323v-.104a1.97563,1.97563,0,0,0-.207-.8323,1.49276,1.49276,0,0,0-.722-.6242,4.04735,4.04735,0,0,0-1.549-.4161,16.122,16.122,0,0,0-2.58-.208l-5.5735-.1041a26.61,26.61,0,0,1-6.709-.9363,14.00816,14.00816,0,0,1-4.1286-1.8725,6.08273,6.08273,0,0,1-2.0643-2.6008,13.05816,13.05816,0,0,1-.516-3.1209v-.3121a8.40743,8.40743,0,0,1,.6192-3.121A5.89729,5.89729,0,0,1,84.693,9.299a19.02247,19.02247,0,0,1,5.2639-1.87256,50.0027,50.0027,0,0,1,8.7733-.62418h2.5808a38.60841,38.60841,0,0,1,8.566.72821A14.05966,14.05966,0,0,1,115.141,9.403a6.268,6.268,0,0,1,3.303,5.61771v.3121H105.233a1.94583,1.94583,0,0,0-.207-.7283,2.38208,2.38208,0,0,0-.722-.8322,7.92536,7.92536,0,0,0-1.548-.6242,10.31428,10.31428,0,0,0-2.7872-.3121,18.20608,18.20608,0,0,0-2.5804.104q-.929.15615-1.5482.3121a1.02225,1.02225,0,0,0-.7225.5202,1.97266,1.97266,0,0,0-.2065.8322,1.513,1.513,0,0,0,.2065.7283,2.24431,2.24431,0,0,0,.7225.6242,4.02529,4.02529,0,0,0,1.445.4161,14.71347,14.71347,0,0,0,2.4771.208l5.4707.1041a40.9703,40.9703,0,0,1,7.225.7282,12.20935,12.20935,0,0,1,4.335,1.6645,6.12824,6.12824,0,0,1,2.167,2.4967,9.21792,9.21792,0,0,1,.516,3.4331v.3121a9.22487,9.22487,0,0,1-.619,3.433,6.25514,6.25514,0,0,1-2.58,2.9129,17.41836,17.41836,0,0,1-5.471,1.9766,45.36889,45.36889,0,0,1-9.289.7282H98.8334A28.28424,28.28424,0,0,1,92.0212,34.16243Z"/>
    <path class="cls-1" d="M185.159,34.51843a38.66713,38.66713,0,0,1-7.399-.6322,21.28371,21.28371,0,0,1-5.361-1.6858,13.57589,13.57589,0,0,1-3.646-2.4234,13.06882,13.06882,0,0,1-2.252-2.8448,10.63023,10.63023,0,0,1-1.179-3.0556,14.5331,14.5331,0,0,1-.322-2.9502v-.7375a12.82672,12.82672,0,0,1,.322-2.8448,9.76172,9.76172,0,0,1,1.072-2.9502,13.06706,13.06706,0,0,1,2.252-2.8448,13.39407,13.39407,0,0,1,3.646-2.31806,27.04131,27.04131,0,0,1,5.361-1.58046,38.67117,38.67117,0,0,1,7.399-.63218h3.753a40.25712,40.25712,0,0,1,7.614.63218,25.0212,25.0212,0,0,1,5.361,1.58046,13.40956,13.40956,0,0,1,3.646,2.31806,10.0746,10.0746,0,0,1,2.144,2.7394,7.94794,7.94794,0,0,1,.966,2.9502,13.22724,13.22724,0,0,1,.214,2.8448v.8429a29.421,29.421,0,0,1-.214,2.9502,16.81051,16.81051,0,0,1-.966,3.0556,10.47976,10.47976,0,0,1-2.144,2.8448,12.06086,12.06086,0,0,1-3.646,2.4234,22.18872,22.18872,0,0,1-5.469,1.6858,40.234,40.234,0,0,1-7.613.6322Zm1.823-20.2299a14.68389,14.68389,0,0,0-4.075.5268,7.44257,7.44257,0,0,0-2.573,1.4751,4.59709,4.59709,0,0,0-1.287,2.0019,7.90826,7.90826,0,0,0-.322,2.2127v.2107a7.90826,7.90826,0,0,0,.322,2.2127,4.90726,4.90726,0,0,0,1.287,2.1072,7.5683,7.5683,0,0,0,2.573,1.5805,13.44934,13.44934,0,0,0,8.15,0,7.583,7.583,0,0,0,2.574-1.5805,4.89535,4.89535,0,0,0,1.286-2.1072,7.87256,7.87256,0,0,0,.322-2.2127V20.505a7.87256,7.87256,0,0,0-.322-2.2127,4.58581,4.58581,0,0,0-1.286-2.0019,7.457,7.457,0,0,0-2.574-1.4751A14.11613,14.11613,0,0,0,186.982,14.28853Z"/>
    <path class="cls-1" d="M142.659,74.51843a38.66713,38.66713,0,0,1-7.399-.6322,21.28371,21.28371,0,0,1-5.361-1.6858,13.57611,13.57611,0,0,1-3.646-2.4234,13.06973,13.06973,0,0,1-2.252-2.8448,10.63081,10.63081,0,0,1-1.179-3.0556,14.53448,14.53448,0,0,1-.322-2.9502v-.7375a12.82789,12.82789,0,0,1,.322-2.8448,9.762,9.762,0,0,1,1.072-2.9502,13.06737,13.06737,0,0,1,2.252-2.8448,13.39356,13.39356,0,0,1,3.646-2.3181,27.04288,27.04288,0,0,1,5.361-1.5804,38.667,38.667,0,0,1,7.399-.6322h3.753a40.25284,40.25284,0,0,1,7.614.6322,25.0226,25.0226,0,0,1,5.361,1.5804,13.4089,13.4089,0,0,1,3.646,2.3181,10.0746,10.0746,0,0,1,2.144,2.7394,7.94794,7.94794,0,0,1,.966,2.9502,13.22724,13.22724,0,0,1,.214,2.8448v.8429a29.421,29.421,0,0,1-.214,2.9502,16.81051,16.81051,0,0,1-.966,3.0556,10.47976,10.47976,0,0,1-2.144,2.8448,12.06086,12.06086,0,0,1-3.646,2.4234,22.18872,22.18872,0,0,1-5.469,1.6858,40.234,40.234,0,0,1-7.613.6322Zm1.823-20.2299a14.68389,14.68389,0,0,0-4.075.5268,7.44257,7.44257,0,0,0-2.573,1.4751,4.59709,4.59709,0,0,0-1.287,2.0019,7.90826,7.90826,0,0,0-.322,2.2127v.2107a7.90826,7.90826,0,0,0,.322,2.2127,4.90726,4.90726,0,0,0,1.287,2.1072,7.5683,7.5683,0,0,0,2.573,1.5805,13.44934,13.44934,0,0,0,8.15,0,7.583,7.583,0,0,0,2.574-1.5805,4.89535,4.89535,0,0,0,1.286-2.1072,7.87256,7.87256,0,0,0,.322-2.2127V60.505a7.87256,7.87256,0,0,0-.322-2.2127,4.58581,4.58581,0,0,0-1.286-2.0019,7.457,7.457,0,0,0-2.574-1.4751A14.11613,14.11613,0,0,0,144.482,54.28853Z"/>
    <path class="cls-1" d="M162.826,15.12473a11.41822,11.41822,0,0,0-2.477-4.1612,12.71013,12.71013,0,0,0-4.748-2.91292,21.9379,21.9379,0,0,0-7.534-1.04031h-1.032a23.67449,23.67449,0,0,0-5.058.52015,18.33913,18.33913,0,0,0-3.819,1.24838,24.62573,24.62573,0,0,0-2.477,1.3524,10.51144,10.51144,0,0,0-1.342,1.0403V7.53045H121.128V51.53563c.206-.5201.413-.9363.619-1.4564a9.32525,9.32525,0,0,1,2.168-2.8089,13.69682,13.69682,0,0,1,3.612-2.3927,26.33124,26.33124,0,0,1,5.264-1.6645,6.92046,6.92046,0,0,1,1.445-.208V30.62543a9.17278,9.17278,0,0,0,1.239.9362,13.6887,13.6887,0,0,0,2.477,1.2484,23.38883,23.38883,0,0,0,3.716,1.0403,23.82465,23.82465,0,0,0,4.954.4161h.929a22.76515,22.76515,0,0,0,7.638-1.1443,12.67868,12.67868,0,0,0,4.851-3.1209,10.77212,10.77212,0,0,0,2.58-4.2653,15.67785,15.67785,0,0,0,.826-4.8895v-1.0403A12.20715,12.20715,0,0,0,162.826,15.12473Zm-12.695,5.6177a7.9561,7.9561,0,0,1-.31,2.1846,4.54219,4.54219,0,0,1-1.238,1.9766,5.07472,5.07472,0,0,1-2.271,1.4565,9.01811,9.01811,0,0,1-3.612.6242h-.207a12.81687,12.81687,0,0,1-3.716-.5202,7.1328,7.1328,0,0,1-2.477-1.4564,6.48143,6.48143,0,0,1-1.445-1.9766,5.48234,5.48234,0,0,1-.413-2.1847v-.3121a5.64909,5.64909,0,0,1,.413-2.2887A6.48143,6.48143,0,0,1,136.3,16.269a7.13434,7.13434,0,0,1,2.477-1.4564,12.81711,12.81711,0,0,1,3.716-.5201h.207a11.57308,11.57308,0,0,1,3.612.5201,5.07542,5.07542,0,0,1,2.271,1.4564,7.90467,7.90467,0,0,1,1.238,1.9766,8.1527,8.1527,0,0,1,.31,2.2887Z"/>
    <path class="cls-1" d="M207.622,74.11043H194.513V69.429c-.309.3121-.825.8323-1.445,1.3524a13.91746,13.91746,0,0,1-2.58,1.7685,17.17739,17.17739,0,0,1-3.922,1.5605,20.31472,20.31472,0,0,1-5.264.6242h-.31a14.90167,14.90167,0,0,1-6.089-1.0403,10.63543,10.63543,0,0,1-3.819-2.4968,9.43158,9.43158,0,0,1-2.065-3.329,10.07731,10.07731,0,0,1-.619-3.433v-16.645h13.315v12.5878a8.9506,8.9506,0,0,0,.309,2.3927,5.20747,5.20747,0,0,0,1.033,1.9766,4.53323,4.53323,0,0,0,1.857,1.2484,7.16721,7.16721,0,0,0,2.787.4161,6.24184,6.24184,0,0,0,6.812-6.4499V47.68653h13.212v26.4239Z"/>
    <path class="cls-1" d="M221.969,34.57853a6.684,6.684,0,0,1-5.161-1.8725,8.11287,8.11287,0,0,1-1.755-5.6177V16.37313h-5.057V7.53046h5.057V.76843h13.108v6.762h5.058v8.84267h-5.058v7.6983a2.80326,2.80326,0,0,0,.413,1.7685,2.34672,2.34672,0,0,0,1.755.5202h2.787v8.3225H221.969Z"/>
    <path class="cls-1" d="M221.969,74.83863a6.68438,6.68438,0,0,1-5.161-1.8725,8.11287,8.11287,0,0,1-1.755-5.6177V56.52913h-5.057v-8.8426h5.057v-6.7621h13.108v6.7621h5.058v8.8426h-5.058v7.6983a2.80358,2.80358,0,0,0,.413,1.7686,2.34676,2.34676,0,0,0,1.755.5201h2.787v8.3225Z"/>
    <path class="cls-2" d="M61.6763,16.165l23.9458,64.6034L21.5258,56.63323Z"/>
    <path class="cls-3" d="M35.7694,60.27433A29.75387,29.75387,0,1,0,6.25,30.52133,29.63683,29.63683,0,0,0,35.7694,60.27433Z"/>
  </g>
</svg>
