<svg width="192" height="64" viewBox="0 0 192 64" fill="none" xmlns="http://www.w3.org/2000/svg">
<g clip-path="url(#clip0)">
<path d="M73.617 26.7152C72.1307 26.4655 70.8096 26.1326 69.8187 25.7997C68.7453 25.3836 67.9196 24.9675 67.3416 24.4681C66.681 23.9688 66.2681 23.3862 65.9378 22.8869C65.6076 22.3043 65.3598 21.8049 65.2773 21.2224C65.1947 20.723 65.1121 20.2237 65.1121 19.7243V19.4746H75.8464C75.8464 19.7243 75.8464 19.974 75.929 20.2237C76.0116 20.4733 76.1767 20.8062 76.507 21.0559C76.8373 21.3056 77.2502 21.5553 77.8282 21.8049C78.4062 21.9714 79.1493 22.1378 80.1402 22.1378H80.2227C81.131 22.1378 81.8742 22.0546 82.4522 21.9714C83.0302 21.8882 83.443 21.7217 83.7733 21.5553C84.1036 21.3888 84.2687 21.2224 84.3513 20.9727C84.4339 20.723 84.5165 20.5566 84.5165 20.3069V20.2237C84.5165 19.974 84.4339 19.7243 84.3513 19.5579C84.2687 19.3914 84.1036 19.225 83.7733 19.0585C83.5256 18.8921 83.1127 18.8088 82.5347 18.7256C82.0393 18.6424 81.2962 18.5592 80.4704 18.5592L76.0116 18.4759C73.7821 18.3927 71.9656 18.143 70.6444 17.7269C69.2407 17.3108 68.1673 16.8114 67.3416 16.2289C66.5158 15.6463 66.0204 14.8973 65.6901 14.1482C65.4424 13.1495 65.2773 12.4005 65.2773 11.6515V11.4018C65.2773 10.5696 65.4424 9.73731 65.7727 8.90506C66.103 8.15604 66.7636 7.40702 67.7544 6.82444C68.7453 6.24187 70.149 5.74252 71.9656 5.32639C73.7821 4.99349 76.0941 4.82704 78.9842 4.82704H81.0484C83.8559 4.82704 86.1679 4.99349 87.9019 5.40962C89.7185 5.74252 91.1222 6.24187 92.1131 6.90767C93.1039 7.49024 93.8471 8.23926 94.1773 8.98829C94.5902 9.73731 94.7553 10.5696 94.7553 11.4018V11.6515H84.1862C84.1862 11.485 84.1036 11.2354 84.021 11.0689C83.9385 10.9025 83.7733 10.6528 83.443 10.4031C83.1953 10.2367 82.6999 10.0702 82.2045 9.90376C81.6265 9.73731 80.8833 9.65409 79.975 9.65409C79.1493 9.65409 78.4062 9.65409 77.9107 9.73731C77.4153 9.82054 77.0024 9.90376 76.6722 9.98699C76.3419 10.0702 76.1767 10.2367 76.0941 10.4031C76.0116 10.5696 75.929 10.8192 75.929 11.0689C75.929 11.3186 76.0116 11.485 76.0941 11.6515C76.1767 11.8179 76.4244 11.9844 76.6722 12.1508C76.9199 12.3173 77.3327 12.4005 77.8282 12.4837C78.3236 12.567 78.9842 12.6502 79.8099 12.6502L84.1862 12.7334C86.5808 12.8166 88.4799 12.9831 89.9662 13.316C91.4525 13.6489 92.6085 14.065 93.4342 14.6476C94.2599 15.2302 94.8379 15.896 95.1682 16.645C95.4985 17.4772 95.5811 18.3927 95.5811 19.3914V19.6411C95.5811 20.6398 95.4159 21.5553 95.0856 22.3875C94.7553 23.303 94.0122 24.052 93.0213 24.7178C91.9479 25.3836 90.5442 25.883 88.645 26.2991C86.7459 26.7152 84.2687 26.8817 81.2136 26.8817H79.0667C76.9199 27.0481 75.1033 26.9649 73.617 26.7152Z" fill="white"/>
<path d="M148.127 27C145.897 27 143.924 26.8314 142.208 26.4943C140.493 26.1571 139.12 25.7356 137.919 25.1456C136.718 24.5556 135.775 23.9655 135.002 23.2069C134.23 22.4483 133.63 21.6897 133.201 20.931C132.772 20.1724 132.429 19.3295 132.257 18.4866C132.086 17.6437 132 16.8851 132 16.1264V15.5364C132 14.7778 132.086 14.0192 132.257 13.2605C132.429 12.4176 132.686 11.659 133.115 10.9004C133.544 10.1418 134.145 9.38314 134.917 8.62452C135.689 7.95019 136.632 7.27586 137.833 6.77012C139.034 6.26437 140.407 5.84291 142.123 5.50575C143.838 5.16858 145.811 5 148.042 5H151.044C153.36 5 155.419 5.16858 157.135 5.50575C158.85 5.84291 160.309 6.26437 161.424 6.77012C162.625 7.27586 163.569 7.95019 164.341 8.62452C165.113 9.29885 165.627 10.0575 166.056 10.8161C166.485 11.5747 166.743 12.4176 166.828 13.1762C167 13.9349 167 14.7778 167 15.4521V16.1264C167 16.8851 166.914 17.6437 166.828 18.4866C166.657 19.3295 166.4 20.0881 166.056 20.931C165.627 21.6897 165.113 22.5326 164.341 23.2069C163.654 23.9655 162.625 24.5556 161.424 25.1456C160.223 25.7356 158.765 26.1571 157.049 26.4943C155.333 26.8314 153.275 27 150.958 27H148.127ZM149.586 10.8161C148.299 10.8161 147.184 10.9847 146.326 11.2375C145.468 11.5747 144.782 11.9119 144.267 12.4176C143.752 12.9234 143.409 13.4291 143.238 14.0192C143.066 14.6092 142.98 15.1992 142.98 15.7893V15.9579C142.98 16.5479 143.066 17.1379 143.238 17.728C143.409 18.318 143.752 18.908 144.267 19.4138C144.782 19.9195 145.468 20.341 146.326 20.6782C147.184 21.0153 148.299 21.1839 149.586 21.1839C150.873 21.1839 151.988 21.0153 152.846 20.6782C153.703 20.341 154.39 19.9195 154.904 19.4138C155.419 18.908 155.762 18.318 155.934 17.728C156.105 17.1379 156.191 16.5479 156.191 15.9579V15.7893C156.191 15.1992 156.105 14.6092 155.934 14.0192C155.762 13.4291 155.419 12.9234 154.904 12.4176C154.39 11.9119 153.703 11.5747 152.846 11.2375C151.988 10.9847 150.958 10.8161 149.586 10.8161Z" fill="white"/>
<path d="M114.127 59C111.897 59 109.924 58.8314 108.208 58.4943C106.493 58.1571 105.12 57.7356 103.919 57.1456C102.718 56.5556 101.775 55.9655 101.002 55.2069C100.23 54.4483 99.6299 53.6897 99.201 52.931C98.7721 52.1724 98.4289 51.3295 98.2574 50.4866C98.0858 49.6437 98 48.8851 98 48.1264V47.5364C98 46.7778 98.0858 46.0192 98.2574 45.2605C98.4289 44.4176 98.6863 43.659 99.1152 42.9004C99.5441 42.1418 100.145 41.3831 100.917 40.6245C101.689 39.9502 102.632 39.2759 103.833 38.7701C105.034 38.2644 106.407 37.8429 108.123 37.5057C109.838 37.1686 111.811 37 114.042 37H117.044C119.36 37 121.419 37.1686 123.135 37.5057C124.85 37.8429 126.309 38.2644 127.424 38.7701C128.625 39.2759 129.569 39.9502 130.341 40.6245C131.113 41.2989 131.627 42.0575 132.056 42.8161C132.485 43.5747 132.743 44.4176 132.828 45.1762C133 45.9349 133 46.7778 133 47.4521V48.1264C133 48.8851 132.914 49.6437 132.828 50.4866C132.657 51.3295 132.4 52.0881 132.056 52.931C131.627 53.6897 131.113 54.5326 130.341 55.2069C129.654 55.9655 128.625 56.5556 127.424 57.1456C126.223 57.7356 124.765 58.1571 123.049 58.4943C121.333 58.8314 119.275 59 116.958 59H114.127ZM115.586 42.8161C114.299 42.8161 113.184 42.9847 112.326 43.2375C111.468 43.5747 110.782 43.9119 110.267 44.4176C109.752 44.9234 109.409 45.4291 109.238 46.0192C109.066 46.6092 108.98 47.1992 108.98 47.7893V47.9579C108.98 48.5479 109.066 49.1379 109.238 49.728C109.409 50.318 109.752 50.908 110.267 51.4138C110.782 51.9195 111.468 52.341 112.326 52.6782C113.184 53.0153 114.299 53.1839 115.586 53.1839C116.873 53.1839 117.988 53.0153 118.846 52.6782C119.703 52.341 120.39 51.9195 120.904 51.4138C121.419 50.908 121.762 50.318 121.934 49.728C122.105 49.1379 122.191 48.5479 122.191 47.9579V47.7893C122.191 47.1992 122.105 46.6092 121.934 46.0192C121.762 45.4291 121.419 44.9234 120.904 44.4176C120.39 43.9119 119.703 43.5747 118.846 43.2375C117.988 42.9847 116.958 42.8161 115.586 42.8161Z" fill="white"/>
<path d="M130.261 11.485C129.848 10.2367 129.188 9.15475 128.279 8.15605C127.289 7.15735 126.05 6.40832 124.481 5.82575C122.912 5.24317 120.931 4.9935 118.453 4.9935H117.628C116.059 4.9935 114.738 5.15995 113.582 5.40962C112.426 5.6593 111.435 5.9922 110.527 6.40832C109.701 6.82445 109.04 7.15735 108.545 7.49025C108.049 7.82315 107.637 8.15605 107.471 8.3225V5.40962H96.9022V40.6138C97.0674 40.1977 97.2325 39.8648 97.3977 39.4486C97.8105 38.6164 98.3885 37.8674 99.1317 37.2016C99.8748 36.4525 100.866 35.87 102.022 35.2874C103.178 34.788 104.581 34.2887 106.233 33.9558C106.646 33.8726 106.976 33.7893 107.389 33.7893V23.8856C107.554 24.052 107.884 24.3017 108.38 24.6346C108.875 24.9675 109.536 25.3004 110.361 25.6333C111.187 25.9662 112.178 26.2159 113.334 26.4655C114.49 26.7152 115.811 26.7984 117.297 26.7984H118.041C120.518 26.7984 122.499 26.4655 124.151 25.883C125.802 25.2172 127.041 24.4681 128.032 23.3862C129.023 22.3875 129.683 21.2224 130.096 19.974C130.509 18.7256 130.757 17.394 130.757 16.0624V15.2302C130.839 13.9818 130.674 12.7334 130.261 11.485ZM120.105 15.9792C120.105 16.5618 120.022 17.1443 119.857 17.7269C119.692 18.3095 119.362 18.8088 118.866 19.3082C118.453 19.8075 117.793 20.2237 117.05 20.4733C116.307 20.8062 115.316 20.9727 114.16 20.9727H113.995C112.839 20.9727 111.848 20.8062 111.022 20.5566C110.196 20.2237 109.536 19.8908 109.04 19.3914C108.545 18.8921 108.132 18.3927 107.884 17.8101C107.637 17.2276 107.554 16.645 107.554 16.0624V15.8127C107.554 15.1469 107.637 14.5644 107.884 13.9818C108.132 13.3992 108.545 12.8999 109.04 12.4005C109.536 11.9012 110.196 11.5683 111.022 11.2354C111.848 10.9857 112.839 10.8192 113.995 10.8192H114.16C115.316 10.8192 116.307 10.9857 117.05 11.2354C117.793 11.485 118.453 11.9012 118.866 12.4005C119.279 12.8999 119.609 13.3992 119.857 13.9818C120.022 14.5644 120.105 15.1469 120.105 15.8127V15.9792Z" fill="white"/>
<path d="M166.097 58.6736H155.611V54.9285C155.363 55.1782 154.95 55.5943 154.455 56.0104C153.959 56.5098 153.216 56.9259 152.39 57.4252C151.482 57.9246 150.491 58.3407 149.253 58.6736C148.014 59.0065 146.61 59.1729 145.042 59.1729H144.794C142.812 59.1729 141.243 58.9233 139.922 58.3407C138.601 57.8413 137.61 57.0923 136.867 56.3433C136.124 55.5943 135.546 54.5956 135.216 53.6801C134.885 52.7646 134.72 51.8492 134.72 50.9337V37.6177H145.372V47.6879C145.372 48.3537 145.454 49.0195 145.62 49.6021C145.785 50.1846 146.032 50.684 146.445 51.1834C146.858 51.5995 147.354 52.0156 147.932 52.1821C148.51 52.4317 149.253 52.5149 150.161 52.5149C151.895 52.5149 153.299 52.0156 154.207 51.0169C155.115 50.0182 155.611 48.7698 155.611 47.355V37.5345H166.18V58.6736H166.097Z" fill="white"/>
<path d="M177.575 27.0481C175.758 27.0481 174.355 26.5488 173.446 25.5501C172.538 24.5514 172.043 23.0533 172.043 21.0559V12.4837H167.997V5.40962H172.043V0H182.529V5.40962H186.575V12.4837H182.529V18.6424C182.529 19.3082 182.612 19.7243 182.859 20.0572C183.107 20.3069 183.52 20.4733 184.263 20.4733H186.493V27.1313H177.575V27.0481Z" fill="white"/>
<path d="M177.575 59.2562C175.758 59.2562 174.355 58.7568 173.446 57.7581C172.538 56.7594 172.043 55.2614 172.043 53.264V44.6086H167.997V37.5345H172.043V32.1248H182.529V37.5345H186.575V44.6086H182.529V50.7672C182.529 51.433 182.612 51.8491 182.859 52.1821C183.107 52.4317 183.52 52.5982 184.263 52.5982H186.493V59.2562H177.575Z" fill="white"/>
<path d="M49.341 12.3173L68.4977 64L17.2206 44.6918L49.341 12.3173Z" fill="url(#paint0_linear)"/>
<path d="M28.6155 47.6047C41.658 47.6047 52.231 36.948 52.231 23.8023C52.231 10.6567 41.658 0 28.6155 0C15.573 0 5 10.6567 5 23.8023C5 36.948 15.573 47.6047 28.6155 47.6047Z" fill="#F41D60"/>
</g>
<defs>
<linearGradient id="paint0_linear" x1="33.7963" y1="29.0242" x2="69.3884" y2="64.3369" gradientUnits="userSpaceOnUse">
<stop offset="0.2238" stop-color="#EA3970" stop-opacity="0.64"/>
<stop offset="1" stop-color="#EA3970" stop-opacity="0.32"/>
</linearGradient>
<clipPath id="clip0">
<rect width="192" height="64" fill="white"/>
</clipPath>
</defs>
</svg>
