<svg width="192" height="64" fill="none" xmlns="http://www.w3.org/2000/svg"><g clip-path="url(#clip0)"><path d="M73.617 26.715c-1.486-.25-2.807-.582-3.798-.915-1.074-.416-1.9-.832-2.477-1.332-.661-.5-1.074-1.082-1.404-1.581-.33-.583-.578-1.082-.66-1.665-.083-.499-.166-.998-.166-1.498v-.25h10.734c0 .25 0 .5.083.75s.248.582.578.832c.33.25.743.5 1.321.749a8.051 8.051 0 0 0 2.312.333h.083c.908 0 1.651-.083 2.23-.167.577-.083.99-.25 1.32-.416.33-.166.496-.333.578-.582.083-.25.165-.416.165-.666v-.083c0-.25-.082-.5-.165-.666-.082-.167-.247-.333-.578-.5-.247-.166-.66-.25-1.238-.332a12.902 12.902 0 0 0-2.065-.167l-4.458-.083c-2.23-.083-4.046-.333-5.368-.75-1.403-.415-2.477-.915-3.302-1.497-.826-.583-1.322-1.332-1.652-2.08-.248-1-.413-1.748-.413-2.497v-.25c0-.832.165-1.665.496-2.497.33-.749.99-1.498 1.981-2.08.991-.583 2.395-1.082 4.212-1.499 1.816-.333 4.128-.499 7.018-.499h2.064c2.808 0 5.12.166 6.854.583 1.817.333 3.22.832 4.211 1.498.99.582 1.734 1.331 2.064 2.08.413.75.578 1.582.578 2.414v.25H84.186c0-.167-.082-.417-.165-.583a1.91 1.91 0 0 0-.578-.666c-.248-.166-.743-.333-1.239-.5-.578-.166-1.32-.249-2.229-.249-.826 0-1.569 0-2.064.083-.496.084-.909.167-1.239.25-.33.083-.495.25-.578.416a1.579 1.579 0 0 0-.165.666c0 .25.083.416.165.582.083.167.33.333.578.5.248.166.66.25 1.156.333.496.083 1.156.166 1.982.166l4.376.083c2.395.084 4.294.25 5.78.583 1.487.333 2.643.749 3.468 1.332.826.582 1.404 1.248 1.734 1.997.33.832.413 1.748.413 2.746v.25c0 .999-.165 1.914-.495 2.747-.33.915-1.074 1.664-2.065 2.33-1.073.666-2.477 1.165-4.376 1.581-1.9.416-4.376.583-7.431.583h-2.147c-2.147.166-3.964.083-5.45-.167zM148.127 27c-2.23 0-4.203-.169-5.919-.506-1.715-.337-3.088-.758-4.289-1.348-1.201-.59-2.144-1.18-2.917-1.94-.772-.758-1.372-1.516-1.801-2.275-.429-.759-.772-1.602-.944-2.444a11.697 11.697 0 0 1-.257-2.36v-.59c0-.76.086-1.518.257-2.277.172-.842.429-1.601.858-2.36.429-.758 1.03-1.517 1.802-2.275.772-.675 1.715-1.35 2.916-1.855 1.201-.506 2.574-.927 4.29-1.264 1.715-.337 3.688-.506 5.919-.506h3.002c2.316 0 4.375.169 6.091.506 1.715.337 3.174.758 4.289 1.264 1.201.506 2.145 1.18 2.917 1.855.772.674 1.286 1.432 1.715 2.191.429.759.687 1.602.772 2.36.172.759.172 1.602.172 2.276v.674c0 .76-.086 1.518-.172 2.36-.171.843-.428 1.602-.772 2.445-.429.759-.943 1.602-1.715 2.276-.687.758-1.716 1.349-2.917 1.939-1.201.59-2.659 1.011-4.375 1.348-1.716.337-3.774.506-6.091.506h-2.831zm1.459-16.184c-1.287 0-2.402.169-3.26.421-.858.338-1.544.675-2.059 1.18-.515.506-.858 1.012-1.029 1.602a6.297 6.297 0 0 0-.258 1.77v.169c0 .59.086 1.18.258 1.77a3.91 3.91 0 0 0 1.029 1.686c.515.505 1.201.927 2.059 1.264.858.337 1.973.506 3.26.506 1.287 0 2.402-.169 3.26-.506.857-.337 1.544-.759 2.058-1.264a3.922 3.922 0 0 0 1.03-1.686c.171-.59.257-1.18.257-1.77v-.169c0-.59-.086-1.18-.257-1.77-.172-.59-.515-1.096-1.03-1.601-.514-.506-1.201-.843-2.058-1.18-.858-.253-1.888-.422-3.26-.422zM114.127 59c-2.23 0-4.203-.169-5.919-.506-1.715-.337-3.088-.758-4.289-1.348-1.201-.59-2.144-1.18-2.917-1.94-.772-.758-1.372-1.516-1.801-2.275-.429-.759-.772-1.601-.944-2.444a11.655 11.655 0 0 1-.257-2.36v-.59c0-.76.086-1.518.257-2.276.172-.843.43-1.602.858-2.36.43-.76 1.03-1.518 1.802-2.277.772-.674 1.715-1.348 2.916-1.854 1.201-.506 2.574-.927 4.29-1.264 1.715-.337 3.688-.506 5.919-.506h3.002c2.316 0 4.375.169 6.091.506 1.715.337 3.174.758 4.289 1.264 1.201.506 2.145 1.18 2.917 1.854.772.675 1.286 1.433 1.715 2.192.429.759.687 1.602.772 2.36.172.759.172 1.602.172 2.276v.674c0 .76-.086 1.518-.172 2.36-.171.844-.428 1.602-.772 2.445-.429.759-.943 1.602-1.715 2.276-.687.758-1.716 1.349-2.917 1.939-1.201.59-2.659 1.011-4.375 1.348-1.716.337-3.774.506-6.091.506h-2.831zm1.459-16.184c-1.287 0-2.402.169-3.26.421-.858.338-1.544.675-2.059 1.18-.515.506-.858 1.012-1.029 1.602a6.297 6.297 0 0 0-.258 1.77v.169c0 .59.086 1.18.258 1.77a3.91 3.91 0 0 0 1.029 1.686c.515.505 1.201.927 2.059 1.264.858.337 1.973.506 3.26.506 1.287 0 2.402-.169 3.26-.506.857-.337 1.544-.758 2.058-1.264a3.922 3.922 0 0 0 1.03-1.686c.171-.59.257-1.18.257-1.77v-.169c0-.59-.086-1.18-.257-1.77-.172-.59-.515-1.096-1.03-1.601-.514-.506-1.201-.843-2.058-1.18-.858-.253-1.888-.422-3.26-.422zM130.261 11.485c-.413-1.248-1.073-2.33-1.982-3.329-.99-.999-2.229-1.748-3.798-2.33-1.569-.583-3.55-.832-6.028-.832h-.825c-1.569 0-2.89.166-4.046.416-1.156.25-2.147.582-3.055.998-.826.416-1.487.75-1.982 1.082-.496.333-.908.666-1.074.832V5.41H96.902v35.204c.165-.416.33-.75.496-1.165a7.458 7.458 0 0 1 1.734-2.247c.743-.75 1.734-1.332 2.89-1.915a21.04 21.04 0 0 1 4.211-1.331c.413-.083.743-.167 1.156-.167v-9.903c.165.166.495.416.991.749.495.332 1.156.665 1.981.998.826.333 1.817.583 2.973.832 1.156.25 2.477.333 3.963.333h.744c2.477 0 4.458-.332 6.11-.915 1.651-.666 2.89-1.415 3.881-2.497.991-.998 1.651-2.164 2.064-3.412.413-1.248.661-2.58.661-3.912v-.832a9.785 9.785 0 0 0-.496-3.745zm-10.156 4.494c0 .583-.083 1.165-.248 1.748-.165.582-.495 1.082-.991 1.581-.413.5-1.073.916-1.816 1.165-.743.333-1.734.5-2.89.5h-.165c-1.156 0-2.147-.167-2.973-.416-.826-.333-1.486-.666-1.982-1.166-.495-.499-.908-.998-1.156-1.58-.247-.583-.33-1.166-.33-1.749v-.25c0-.665.083-1.248.33-1.83.248-.583.661-1.082 1.156-1.582.496-.499 1.156-.832 1.982-1.165.826-.25 1.817-.416 2.973-.416h.165c1.156 0 2.147.167 2.89.416.743.25 1.403.666 1.816 1.165.413.5.743 1 .991 1.582.165.582.248 1.165.248 1.83v.167zM166.097 58.674h-10.486v-3.745c-.248.25-.661.665-1.156 1.081-.496.5-1.239.916-2.065 1.415-.908.5-1.899.916-3.137 1.249-1.239.333-2.643.499-4.211.499h-.248c-1.982 0-3.551-.25-4.872-.832a8.512 8.512 0 0 1-3.055-1.998c-.743-.749-1.321-1.747-1.651-2.663a8.03 8.03 0 0 1-.496-2.746V37.618h10.652v10.07c0 .666.082 1.331.248 1.914.165.583.412 1.082.825 1.581.413.416.909.833 1.487 1 .578.249 1.321.332 2.229.332 1.734 0 3.138-.5 4.046-1.498.908-.999 1.404-2.247 1.404-3.662v-9.82h10.569v21.139h-.083zM177.575 27.048c-1.817 0-3.22-.5-4.129-1.498-.908-.999-1.403-2.497-1.403-4.494v-8.572h-4.046V5.41h4.046V0h10.486v5.41h4.046v7.074h-4.046v6.158c0 .666.083 1.082.33 1.415.248.25.661.416 1.404.416h2.23v6.658h-8.918v-.083zM177.575 59.256c-1.817 0-3.22-.5-4.129-1.498-.908-.999-1.403-2.497-1.403-4.494v-8.655h-4.046v-7.075h4.046v-5.41h10.486v5.41h4.046v7.075h-4.046v6.158c0 .666.083 1.082.33 1.415.248.25.661.416 1.404.416h2.23v6.658h-8.918z" fill="#fff"/><path d="M49.341 12.317L68.498 64 17.22 44.692l32.12-32.375z" fill="url(#paint0_linear)"/><path d="M28.616 47.605c13.042 0 23.615-10.657 23.615-23.803C52.231 10.657 41.658 0 28.615 0 15.574 0 5 10.657 5 23.802c0 13.146 10.573 23.803 23.616 23.803z" fill="#F41D60"/></g><defs><linearGradient id="paint0_linear" x1="33.796" y1="29.024" x2="69.388" y2="64.337" gradientUnits="userSpaceOnUse"><stop offset=".224" stop-color="#EA3970" stop-opacity=".64"/><stop offset="1" stop-color="#EA3970" stop-opacity=".32"/></linearGradient><clipPath id="clip0"><path fill="#fff" d="M0 0h192v64H0z"/></clipPath></defs></svg>