<svg width="156" height="28" viewBox="0 0 156 28" fill="none" xmlns="http://www.w3.org/2000/svg">
<path d="M61.804 15.066C62.504 14.744 62.91 14.17 62.91 13.414C62.91 12.182 61.79 11.468 59.9 11.468H56.05V19H60.068C62.14 19 63.134 18.188 63.134 16.858C63.134 15.962 62.686 15.36 61.804 15.066ZM58.052 12.952H59.704C60.46 12.952 60.852 13.204 60.852 13.75C60.852 14.282 60.46 14.562 59.704 14.562H58.052V12.952ZM59.886 17.516H58.052V15.85H59.928C60.726 15.85 61.09 16.116 61.09 16.69C61.09 17.25 60.684 17.516 59.886 17.516ZM68.287 19.112C70.681 19.112 72.417 17.502 72.417 15.234C72.417 12.966 70.681 11.356 68.287 11.356C65.893 11.356 64.143 12.966 64.143 15.234C64.143 17.502 65.893 19.112 68.287 19.112ZM68.287 17.32C67.195 17.32 66.355 16.536 66.355 15.234C66.355 13.932 67.195 13.148 68.287 13.148C69.379 13.148 70.205 13.932 70.205 15.234C70.205 16.536 69.379 17.32 68.287 17.32ZM77.6991 10.656C79.3371 10.656 80.1771 9.942 80.1911 8.486H78.7351C78.7351 9.13 78.3571 9.522 77.6851 9.522C76.9991 9.522 76.6631 9.13 76.6491 8.486H75.2211C75.2351 9.942 76.0611 10.656 77.6991 10.656ZM73.9191 19H75.9351L79.5891 14.52V19H81.7591V11.468H79.7571L76.0891 15.948V11.468H73.9191V19ZM90.1866 11.468H82.9206V13.26H85.4686V19H87.6386V13.26H90.1866V11.468ZM91.3508 19H93.3668L97.0208 14.52V19H99.1908V11.468H97.1888L93.5208 15.948V11.468H91.3508V19Z" fill="#F8F8F8"/>
</svg>
