<svg width="192" height="48" viewBox="0 0 192 48" fill="none" xmlns="http://www.w3.org/2000/svg">
<path d="M0 24C0 10.7452 10.7452 0 24 0H168C181.255 0 192 10.7452 192 24C192 37.2548 181.255 48 168 48H24C10.7452 48 0 37.2548 0 24Z" fill="#F41D60"/>
<path d="M52.2139 19.2H47.9719V29H50.2399V26.298H52.2139C54.8319 26.298 56.4699 24.94 56.4699 22.756C56.4699 20.558 54.8319 19.2 52.2139 19.2ZM52.0879 24.45H50.2399V21.048H52.0879C53.4739 21.048 54.1739 21.678 54.1739 22.756C54.1739 23.82 53.4739 24.45 52.0879 24.45ZM65.1064 25.262C65.1064 22.84 63.3984 21.356 61.1864 21.356C58.8904 21.356 57.1684 22.98 57.1684 25.234C57.1684 27.474 58.8624 29.112 61.4664 29.112C62.8244 29.112 63.8744 28.692 64.5744 27.894L63.4124 26.634C62.8944 27.124 62.3204 27.362 61.5224 27.362C60.3744 27.362 59.5764 26.788 59.3664 25.85H65.0644C65.0784 25.668 65.1064 25.43 65.1064 25.262ZM61.2004 23.008C62.1804 23.008 62.8944 23.624 63.0484 24.576H59.3384C59.4924 23.61 60.2064 23.008 61.2004 23.008ZM72.8145 21.468H66.7805V29H68.9505V23.26H72.8145V21.468ZM73.9719 29H75.9879L79.6419 24.52V29H81.8119V21.468H79.8099L76.1419 25.948V21.468H73.9719V29ZM87.4953 29.112C89.0773 29.112 90.3233 28.412 90.8693 27.208L89.1753 26.284C88.7693 27.012 88.1673 27.32 87.4813 27.32C86.3753 27.32 85.5073 26.55 85.5073 25.234C85.5073 23.918 86.3753 23.148 87.4813 23.148C88.1673 23.148 88.7693 23.47 89.1753 24.184L90.8693 23.274C90.3233 22.042 89.0773 21.356 87.4953 21.356C85.0453 21.356 83.2953 22.966 83.2953 25.234C83.2953 27.502 85.0453 29.112 87.4953 29.112ZM98.4971 21.468H91.2311V23.26H93.7791V29H95.9491V23.26H98.4971V21.468ZM104.099 21.356C103.091 21.356 102.279 21.678 101.733 22.336V21.468H99.6473V31.716H101.831V28.202C102.391 28.818 103.161 29.112 104.099 29.112C106.213 29.112 107.851 27.6 107.851 25.234C107.851 22.868 106.213 21.356 104.099 21.356ZM103.721 27.32C102.629 27.32 101.803 26.536 101.803 25.234C101.803 23.932 102.629 23.148 103.721 23.148C104.813 23.148 105.639 23.932 105.639 25.234C105.639 26.536 104.813 27.32 103.721 27.32ZM112.185 21.356C110.981 21.356 109.763 21.678 108.937 22.266L109.721 23.792C110.267 23.358 111.093 23.092 111.891 23.092C113.067 23.092 113.627 23.638 113.627 24.576H111.891C109.595 24.576 108.657 25.5 108.657 26.83C108.657 28.132 109.707 29.112 111.471 29.112C112.577 29.112 113.361 28.748 113.767 28.062V29H115.811V24.702C115.811 22.42 114.481 21.356 112.185 21.356ZM112.017 27.642C111.247 27.642 110.785 27.278 110.785 26.732C110.785 26.228 111.107 25.85 112.129 25.85H113.627V26.62C113.375 27.306 112.745 27.642 112.017 27.642ZM125.1 27.208V21.468H122.916V27.208H119.878V21.468H117.708V29H124.162V30.652H126.192V27.208H125.1ZM127.566 29H129.582L133.236 24.52V29H135.406V21.468H133.404L129.736 25.948V21.468H127.566V29ZM140.599 21.468C138.387 21.468 137.001 22.448 137.001 24.24C137.001 25.346 137.575 26.13 138.611 26.536L136.889 29H139.213L140.641 26.844H142.251V29H144.197V21.468H140.599ZM140.641 23.246H142.251V25.388H140.613C139.703 25.388 139.227 25.066 139.227 24.31C139.227 23.554 139.731 23.246 140.641 23.246Z" fill="white"/>
</svg>
