<svg width="156" height="24" viewBox="0 0 156 24" fill="none" xmlns="http://www.w3.org/2000/svg">
<path d="M47.25 10.62V16H48.8V11.9H51.04V16H52.6V10.62H47.25ZM57.2657 10.54C56.5457 10.54 55.9657 10.77 55.5757 11.24V10.62H54.0857V17.94H55.6457V15.43C56.0457 15.87 56.5957 16.08 57.2657 16.08C58.7757 16.08 59.9457 15 59.9457 13.31C59.9457 11.62 58.7757 10.54 57.2657 10.54ZM56.9957 14.8C56.2157 14.8 55.6257 14.24 55.6257 13.31C55.6257 12.38 56.2157 11.82 56.9957 11.82C57.7757 11.82 58.3657 12.38 58.3657 13.31C58.3657 14.24 57.7757 14.8 56.9957 14.8ZM63.5591 16.08C65.2691 16.08 66.5091 14.93 66.5091 13.31C66.5091 11.69 65.2691 10.54 63.5591 10.54C61.8491 10.54 60.5991 11.69 60.5991 13.31C60.5991 14.93 61.8491 16.08 63.5591 16.08ZM63.5591 14.8C62.7791 14.8 62.1791 14.24 62.1791 13.31C62.1791 12.38 62.7791 11.82 63.5591 11.82C64.3391 11.82 64.9291 12.38 64.9291 13.31C64.9291 14.24 64.3391 14.8 63.5591 14.8ZM67.582 10.62V16H69.132V11.9H71.372V16H72.932V10.62H67.582ZM78.3177 10.62L76.7977 14.27L75.2877 10.62H73.6777L76.0077 16.04L75.9877 16.09C75.7777 16.57 75.5377 16.76 75.1077 16.76C74.7977 16.76 74.4677 16.63 74.2277 16.42L73.6577 17.53C74.0077 17.84 74.6077 18.02 75.1577 18.02C76.1277 18.02 76.8677 17.63 77.3877 16.33L79.8177 10.62H78.3177ZM82.9838 16.08C84.1138 16.08 85.0038 15.58 85.3938 14.72L84.1838 14.06C83.8938 14.58 83.4638 14.8 82.9738 14.8C82.1838 14.8 81.5638 14.25 81.5638 13.31C81.5638 12.37 82.1838 11.82 82.9738 11.82C83.4638 11.82 83.8938 12.05 84.1838 12.56L85.3938 11.91C85.0038 11.03 84.1138 10.54 82.9838 10.54C81.2338 10.54 79.9838 11.69 79.9838 13.31C79.9838 14.93 81.2338 16.08 82.9838 16.08ZM90.8423 10.62H85.6523V11.9H87.4723V16H89.0223V11.9H90.8423V10.62ZM91.6738 16H93.1138L95.7238 12.8V16H97.2738V10.62H95.8438L93.2238 13.82V10.62H91.6738V16ZM103.293 10.62H98.1034V11.9H99.9234V16H101.473V11.9H103.293V10.62ZM107.035 12.34H105.675V10.62H104.125V16L106.825 16.01C108.325 16.01 109.205 15.32 109.205 14.13C109.205 13 108.445 12.35 107.035 12.34ZM106.685 14.9H105.675V13.34L106.685 13.35C107.285 13.36 107.615 13.58 107.615 14.11C107.615 14.64 107.285 14.91 106.685 14.9Z" fill="#898989"/>
</svg>
