<svg width="240" height="80" fill="none" xmlns="http://www.w3.org/2000/svg">
<defs>
<linearGradient id="paint0_linear" x1="42.2454" y1="36.2803" x2="86.7355" y2="80.4211" gradientUnits="userSpaceOnUse">
<stop offset=".2238" stop-color="#EA3970" stop-opacity=".64"/><stop offset="1" stop-color="#EA3970" stop-opacity=".32"/>
</linearGradient>
<clipPath id="clip0">
<path fill="#fff" d="M0 0h240v80H0z"/>
</clipPath>
</defs>
<g clip-path="url(#clip0)">
<path d="M92.0212 33.394c-1.8578-.3121-3.5093-.7282-4.7478-1.1443-1.3418-.5202-2.374-1.0403-3.0965-1.6645-.8257-.6242-1.3418-1.3524-1.7546-1.9766-.4129-.7282-.7225-1.3524-.8257-2.0806-.1033-.6242-.2065-1.2484-.2065-1.8726v-.3121H94.808c0 .3121 0 .6242.1032.9363.1033.3121.3097.7282.7225 1.0403.4129.3121.929.6242 1.6515.9363.7225.208 1.6514.4161 2.8898.4161h.103c1.136 0 2.065-.104 2.787-.2081.723-.104 1.239-.3121 1.652-.5201.412-.2081.619-.4161.722-.7282.103-.3121.207-.5202.207-.8323v-.104c0-.3121-.104-.6242-.207-.8323-.103-.208-.31-.4161-.722-.6242-.31-.208-.826-.3121-1.549-.4161-.619-.104-1.548-.208-2.58-.208l-5.5735-.1041c-2.7868-.104-5.0576-.4161-6.709-.9363-1.7546-.5201-3.0964-1.1443-4.1286-1.8725-1.0321-.7282-1.6514-1.6645-2.0643-2.6008-.3096-1.2484-.516-2.1847-.516-3.1209v-.3121c0-1.0403.2064-2.0807.6192-3.121.4129-.9362 1.2386-1.87253 2.4772-2.60075 1.2386-.72821 2.9932-1.3524 5.2639-1.87256 2.2708-.41612 5.1608-.62418 8.7733-.62418h2.5808c3.509 0 6.399.20806 8.566.72821 2.271.41613 4.026 1.04032 5.264 1.87257 1.239.72821 2.168 1.66451 2.581 2.60081.516.9362.722 1.9766.722 3.0169v.3121h-13.211c0-.2081-.104-.5202-.207-.7283-.103-.208-.309-.5201-.722-.8322-.31-.2081-.929-.4161-1.548-.6242-.723-.2081-1.652-.3121-2.7872-.3121-1.0322 0-1.9611 0-2.5804.104-.6193.1041-1.1354.2081-1.5482.3121-.4129.1041-.6193.3121-.7225.5202-.1032.2081-.2065.5202-.2065.8322 0 .3121.1033.5202.2065.7283.1032.208.4128.4161.7225.6242.3096.208.8257.312 1.445.4161.6193.104 1.445.208 2.4771.208l5.4707.1041c2.993.104 5.367.3121 7.225.7282 1.858.4161 3.303.9363 4.335 1.6645 1.032.7282 1.754 1.5605 2.167 2.4967.413 1.0403.516 2.1847.516 3.4331v.3121c0 1.2483-.206 2.3927-.619 3.433-.413 1.1443-1.342 2.0806-2.58 2.9129-1.342.8322-3.097 1.4564-5.471 1.9766-2.374.5201-5.47.7282-9.289.7282h-2.6836c-2.6836.208-4.9543.104-6.8122-.2081zM185.159 33.75c-2.788 0-5.254-.2107-7.399-.6322-2.144-.4214-3.86-.9483-5.361-1.6858-1.501-.7376-2.681-1.4751-3.646-2.4234-.965-.9483-1.716-1.8965-2.252-2.8448-.536-.9483-.965-2.0019-1.179-3.0556-.215-1.0536-.322-2.0019-.322-2.9502v-.7375c0-.9483.107-1.8966.322-2.8448.214-1.0537.536-2.0019 1.072-2.9502.536-.9483 1.287-1.8966 2.252-2.8448.965-.84296 2.144-1.68587 3.646-2.31806 1.501-.63218 3.217-1.159 5.361-1.58046 2.145-.42145 4.611-.63218 7.399-.63218h3.753c2.895 0 5.469.21073 7.614.63218 2.144.42146 3.967.94828 5.361 1.58046 1.501.63219 2.681 1.4751 3.646 2.31806.965.8429 1.608 1.7911 2.144 2.7394.537.9483.858 2.0019.966 2.9502.214.9483.214 2.0019.214 2.8448v.8429c0 .9483-.107 1.8966-.214 2.9502-.215 1.0537-.537 2.002-.966 3.0556-.536.9483-1.179 2.0019-2.144 2.8448-.858.9483-2.145 1.6858-3.646 2.4234-1.501.7375-3.324 1.2644-5.469 1.6858-2.144.4215-4.718.6322-7.613.6322h-3.539zm1.823-20.2299c-1.608 0-3.002.2107-4.075.5268-1.072.4215-1.93.8429-2.573 1.4751-.643.6322-1.072 1.2644-1.287 2.0019-.214.7376-.322 1.4751-.322 2.2127v.2107c0 .7376.108 1.4751.322 2.2127.215.7375.644 1.4751 1.287 2.1072.643.6322 1.501 1.159 2.573 1.5805 1.073.4215 2.467.6322 4.075.6322 1.609 0 3.003-.2107 4.075-.6322s1.93-.9483 2.574-1.5805c.643-.6321 1.072-1.3697 1.286-2.1072.215-.7376.322-1.4751.322-2.2127v-.2107c0-.7376-.107-1.4751-.322-2.2127-.214-.7375-.643-1.3697-1.286-2.0019-.644-.6322-1.502-1.0536-2.574-1.4751-1.072-.3161-2.359-.5268-4.075-.5268zM142.659 73.75c-2.788 0-5.254-.2107-7.399-.6322-2.144-.4214-3.86-.9483-5.361-1.6858-1.501-.7376-2.681-1.4751-3.646-2.4234-.965-.9483-1.716-1.8965-2.252-2.8448-.536-.9483-.965-2.0019-1.179-3.0556-.215-1.0536-.322-2.0019-.322-2.9502v-.7375c0-.9483.107-1.8966.322-2.8448.214-1.0537.536-2.0019 1.072-2.9502.536-.9483 1.287-1.8966 2.252-2.8448.965-.843 2.144-1.6859 3.646-2.3181 1.501-.6321 3.217-1.159 5.361-1.5804 2.145-.4215 4.611-.6322 7.399-.6322h3.753c2.895 0 5.469.2107 7.614.6322 2.144.4214 3.967.9483 5.361 1.5804 1.501.6322 2.681 1.4751 3.646 2.3181.965.8429 1.608 1.7911 2.144 2.7394.537.9483.858 2.0019.966 2.9502.214.9483.214 2.0019.214 2.8448v.8429c0 .9483-.107 1.8966-.214 2.9502-.215 1.0537-.537 2.002-.966 3.0556-.536.9483-1.179 2.0019-2.144 2.8448-.858.9483-2.145 1.6858-3.646 2.4234-1.501.7375-3.324 1.2644-5.469 1.6858-2.144.4215-4.718.6322-7.613.6322h-3.539zm1.823-20.2299c-1.608 0-3.002.2107-4.075.5268-1.072.4215-1.93.8429-2.573 1.4751-.643.6322-1.072 1.2644-1.287 2.0019-.214.7376-.322 1.4751-.322 2.2127v.2107c0 .7376.108 1.4751.322 2.2127.215.7375.644 1.4751 1.287 2.1072.643.6322 1.501 1.159 2.573 1.5805 1.073.4215 2.467.6322 4.075.6322 1.609 0 3.003-.2107 4.075-.6322s1.93-.9483 2.574-1.5805c.643-.6321 1.072-1.3697 1.286-2.1072.215-.7376.322-1.4751.322-2.2127v-.2107c0-.7376-.107-1.4751-.322-2.2127-.214-.7375-.643-1.3697-1.286-2.0019-.644-.6322-1.502-1.0536-2.574-1.4751-1.072-.3161-2.359-.5268-4.075-.5268zM162.826 14.3563c-.516-1.5605-1.341-2.9129-2.477-4.1612-1.238-1.24842-2.786-2.1847-4.748-2.91292-1.961-.72822-4.438-1.04031-7.534-1.04031h-1.032c-1.961 0-3.613.20806-5.058.52015-1.445.3121-2.683.72822-3.819 1.24838-1.032.52015-1.858.93628-2.477 1.3524-.619.41613-1.135.8323-1.342 1.0403V6.76202h-13.211V50.7672c.206-.5201.413-.9363.619-1.4564.516-1.0403 1.239-1.9766 2.168-2.8089.929-.9362 2.167-1.6645 3.612-2.3927 1.445-.6242 3.2-1.2483 5.264-1.6645.516-.104.929-.208 1.445-.208V29.857c.206.208.619.5201 1.239.9362.619.4162 1.445.8323 2.477 1.2484 1.032.4161 2.271.7282 3.716 1.0403 1.445.3121 3.096.4161 4.954.4161h.929c3.096 0 5.573-.4161 7.638-1.1443 2.064-.8322 3.612-1.7685 4.851-3.1209 1.238-1.2484 2.064-2.7048 2.58-4.2653.516-1.5605.826-3.225.826-4.8895v-1.0403c.103-1.5605-.103-3.1209-.62-4.6814zm-12.695 5.6177c0 .7282-.103 1.4564-.31 2.1846-.206.7283-.619 1.3524-1.238 1.9766-.516.6242-1.342 1.1444-2.271 1.4565-.929.4161-2.167.6242-3.612.6242h-.207c-1.445 0-2.683-.2081-3.716-.5202-1.032-.4161-1.857-.8322-2.477-1.4564-.619-.6242-1.135-1.2484-1.445-1.9766-.309-.7282-.413-1.4565-.413-2.1847v-.3121c0-.8322.104-1.5604.413-2.2887.31-.7282.826-1.3524 1.445-1.9766.62-.6241 1.445-1.0403 2.477-1.4564 1.033-.3121 2.271-.5201 3.716-.5201h.207c1.445 0 2.683.208 3.612.5201.929.3121 1.755.8323 2.271 1.4564.516.6242.929 1.2484 1.238 1.9766.207.7283.31 1.4565.31 2.2887v.2081zM207.622 73.342h-13.109v-4.6814c-.309.3121-.825.8323-1.445 1.3524-.619.6242-1.548 1.1443-2.58 1.7685-1.135.6242-2.374 1.1444-3.922 1.5605-1.548.4161-3.303.6242-5.264.6242h-.31c-2.477 0-4.438-.3121-6.089-1.0403-1.652-.6242-2.89-1.5605-3.819-2.4968-.929-.9363-1.652-2.1846-2.065-3.329-.412-1.1443-.619-2.2887-.619-3.433v-16.645h13.315v12.5878c0 .8322.103 1.6645.309 2.3927.207.7282.517 1.3524 1.033 1.9766.516.5202 1.135 1.0403 1.857 1.2484.723.3121 1.652.4161 2.787.4161 2.168 0 3.922-.6242 5.058-1.8726 1.135-1.2483 1.754-2.8088 1.754-4.5773V46.9181h13.212V73.342h-.103zM221.969 33.8101c-2.271 0-4.026-.6241-5.161-1.8725-1.136-1.2484-1.755-3.121-1.755-5.6177V15.6047h-5.057V6.76203h5.057V0h13.108v6.76203h5.058v8.84267h-5.058v7.6983c0 .8322.104 1.3524.413 1.7685.31.3121.826.5202 1.755.5202h2.787v8.3225h-11.147v-.1041zM221.969 74.0702c-2.271 0-4.026-.6242-5.161-1.8725-1.136-1.2484-1.755-3.121-1.755-5.6177V55.7607h-5.057v-8.8426h5.057V40.156h13.108v6.7621h5.058v8.8426h-5.058v7.6983c0 .8323.104 1.3524.413 1.7686.31.3121.826.5201 1.755.5201h2.787v8.3225h-11.147z" fill="#fff"/><path d="M61.6763 15.3966L85.6221 80 21.5258 55.8648l40.1505-40.4682z" fill="url(#paint0_linear)"/>
<path d="M35.7694 59.5059c16.3031 0 29.5193-13.3209 29.5193-29.753S52.0725 0 35.7694 0 6.25 13.3208 6.25 29.7529s13.2163 29.753 29.5194 29.753z" fill="#FF005C"/>
</g>
</svg>