<svg width="71" height="24" viewBox="0 0 71 24" fill="none" xmlns="http://www.w3.org/2000/svg">
<path d="M26.7314 10.0182C26.1741 9.92457 25.6787 9.79973 25.3071 9.67489C24.9045 9.51885 24.5949 9.3628 24.3782 9.17554C24.1304 8.98829 23.9756 8.76982 23.8518 8.58257C23.7279 8.3641 23.635 8.17684 23.604 7.95838C23.5731 7.77112 23.5421 7.58387 23.5421 7.39661V7.30298H27.5675C27.5675 7.39661 27.5675 7.49024 27.5984 7.58387C27.6294 7.67749 27.6913 7.80233 27.8152 7.89596C27.9391 7.98959 28.0939 8.08322 28.3106 8.17684C28.5274 8.23926 28.8061 8.30168 29.1776 8.30168H29.2086C29.5492 8.30168 29.8279 8.27047 30.0446 8.23926C30.2614 8.20805 30.4162 8.14563 30.5401 8.08322C30.6639 8.0208 30.7258 7.95838 30.7568 7.86475C30.7878 7.77112 30.8187 7.7087 30.8187 7.61508V7.58387C30.8187 7.49024 30.7878 7.39661 30.7568 7.33419C30.7258 7.27177 30.6639 7.20935 30.5401 7.14693C30.4472 7.08452 30.2923 7.05331 30.0756 7.0221C29.8898 6.99089 29.6111 6.95968 29.3015 6.95968L27.6294 6.92847C26.7934 6.89726 26.1122 6.80363 25.6167 6.64759C25.0903 6.49154 24.6878 6.30428 24.3782 6.08582C24.0685 5.86735 23.8827 5.58647 23.7589 5.30558C23.666 4.93107 23.604 4.65019 23.604 4.3693V4.27567C23.604 3.96358 23.666 3.65149 23.7898 3.33939C23.9137 3.05851 24.1614 2.77762 24.533 2.55916C24.9045 2.34069 25.4309 2.15344 26.1122 1.99739C26.7934 1.87255 27.6604 1.81013 28.7441 1.81013H29.5182C30.571 1.81013 31.438 1.87255 32.0883 2.0286C32.7695 2.15344 33.2959 2.34069 33.6675 2.59037C34.039 2.80883 34.3177 3.08972 34.4416 3.3706C34.5964 3.65149 34.6583 3.96358 34.6583 4.27567V4.3693H30.6949C30.6949 4.30688 30.6639 4.21326 30.633 4.15084C30.602 4.08842 30.5401 3.99479 30.4162 3.90116C30.3233 3.83874 30.1375 3.77632 29.9517 3.71391C29.735 3.65149 29.4563 3.62028 29.1157 3.62028C28.8061 3.62028 28.5274 3.62028 28.3416 3.65149C28.1558 3.6827 28.001 3.71391 27.8771 3.74512C27.7533 3.77632 27.6913 3.83874 27.6604 3.90116C27.6294 3.96358 27.5984 4.05721 27.5984 4.15084C27.5984 4.24446 27.6294 4.30688 27.6604 4.3693C27.6913 4.43172 27.7842 4.49414 27.8771 4.55656C27.97 4.61898 28.1248 4.65019 28.3106 4.6814C28.4964 4.71261 28.7441 4.74381 29.0538 4.74381L30.6949 4.77502C31.5929 4.80623 32.305 4.86865 32.8624 4.99349C33.4197 5.11833 33.8532 5.27437 34.1629 5.49284C34.4725 5.7113 34.6893 5.96098 34.8131 6.24186C34.937 6.55396 34.968 6.89726 34.968 7.27177V7.3654C34.968 7.73991 34.906 8.08322 34.7822 8.39531C34.6583 8.73861 34.3796 9.0195 34.0081 9.26917C33.6055 9.51885 33.0791 9.7061 32.367 9.86215C31.6548 10.0182 30.7258 10.0806 29.5802 10.0806H28.7751C27.97 10.143 27.2888 10.1118 26.7314 10.0182Z" fill="white"/>
<path d="M54.6728 10.125C53.8364 10.125 53.0965 10.0618 52.4531 9.93535C51.8097 9.80891 51.295 9.65086 50.8447 9.4296C50.3943 9.20833 50.0404 8.98707 49.7509 8.70259C49.4614 8.4181 49.2362 8.13362 49.0754 7.84914C48.9145 7.56466 48.7858 7.24856 48.7215 6.93247C48.6572 6.61638 48.625 6.3319 48.625 6.04741V5.82615C48.625 5.54167 48.6572 5.25718 48.7215 4.9727C48.7858 4.65661 48.8824 4.37213 49.0432 4.08764C49.204 3.80316 49.4292 3.51868 49.7187 3.2342C50.0083 2.98132 50.3621 2.72845 50.8125 2.53879C51.2629 2.34914 51.7776 2.19109 52.421 2.06466C53.0643 1.93822 53.8042 1.875 54.6406 1.875H55.7665C56.6351 1.875 57.4072 1.93822 58.0506 2.06466C58.6939 2.19109 59.2408 2.34914 59.659 2.53879C60.1094 2.72845 60.4632 2.98132 60.7528 3.2342C61.0423 3.48707 61.2353 3.77155 61.3961 4.05603C61.557 4.34052 61.6535 4.65661 61.6857 4.94109C61.75 5.22558 61.75 5.54167 61.75 5.79454V6.04741C61.75 6.3319 61.7178 6.61638 61.6857 6.93247C61.6213 7.24856 61.5248 7.53305 61.3961 7.84914C61.2353 8.13362 61.0423 8.44971 60.7528 8.70259C60.4954 8.98707 60.1094 9.20833 59.659 9.4296C59.2086 9.65086 58.6618 9.80891 58.0184 9.93535C57.375 10.0618 56.6029 10.125 55.7344 10.125H54.6728ZM55.2197 4.05603C54.7371 4.05603 54.3189 4.11925 53.9972 4.21408C53.6755 4.34052 53.4182 4.46695 53.2252 4.65661C53.0322 4.84626 52.9035 5.03592 52.8392 5.25718C52.7748 5.47845 52.7426 5.69971 52.7426 5.92098V5.9842C52.7426 6.20546 52.7748 6.42672 52.8392 6.64799C52.9035 6.86925 53.0322 7.09052 53.2252 7.28017C53.4182 7.46983 53.6755 7.62787 53.9972 7.75431C54.3189 7.88075 54.7371 7.94397 55.2197 7.94397C55.7022 7.94397 56.1204 7.88075 56.4421 7.75431C56.7638 7.62787 57.0211 7.46983 57.2142 7.28017C57.4072 7.09052 57.5358 6.86925 57.6002 6.64799C57.6645 6.42672 57.6967 6.20546 57.6967 5.9842V5.92098C57.6967 5.69971 57.6645 5.47845 57.6002 5.25718C57.5358 5.03592 57.4072 4.84626 57.2142 4.65661C57.0211 4.46695 56.7638 4.34052 56.4421 4.21408C56.1204 4.11925 55.7344 4.05603 55.2197 4.05603Z" fill="white"/>
<path d="M41.9228 22.125C41.0864 22.125 40.3465 22.0618 39.7031 21.9353C39.0597 21.8089 38.545 21.6509 38.0947 21.4296C37.6443 21.2083 37.2904 20.9871 37.0009 20.7026C36.7114 20.4181 36.4862 20.1336 36.3254 19.8491C36.1645 19.5647 36.0358 19.2486 35.9715 18.9325C35.9072 18.6164 35.875 18.3319 35.875 18.0474V17.8261C35.875 17.5417 35.9072 17.2572 35.9715 16.9727C36.0358 16.6566 36.1324 16.3721 36.2932 16.0876C36.454 15.8032 36.6792 15.5187 36.9687 15.2342C37.2583 14.9813 37.6121 14.7284 38.0625 14.5388C38.5129 14.3491 39.0276 14.1911 39.671 14.0647C40.3143 13.9382 41.0542 13.875 41.8906 13.875H43.0165C43.8851 13.875 44.6572 13.9382 45.3006 14.0647C45.9439 14.1911 46.4908 14.3491 46.909 14.5388C47.3594 14.7284 47.7132 14.9813 48.0028 15.2342C48.2923 15.4871 48.4853 15.7716 48.6461 16.056C48.807 16.3405 48.9035 16.6566 48.9357 16.9411C49 17.2256 49 17.5417 49 17.7945V18.0474C49 18.3319 48.9678 18.6164 48.9357 18.9325C48.8713 19.2486 48.7748 19.533 48.6461 19.8491C48.4853 20.1336 48.2923 20.4497 48.0028 20.7026C47.7454 20.9871 47.3594 21.2083 46.909 21.4296C46.4586 21.6509 45.9118 21.8089 45.2684 21.9353C44.625 22.0618 43.8529 22.125 42.9844 22.125H41.9228ZM42.4697 16.056C41.9871 16.056 41.5689 16.1193 41.2472 16.2141C40.9255 16.3405 40.6682 16.467 40.4752 16.6566C40.2822 16.8463 40.1535 17.0359 40.0892 17.2572C40.0248 17.4784 39.9926 17.6997 39.9926 17.921V17.9842C39.9926 18.2055 40.0248 18.4267 40.0892 18.648C40.1535 18.8693 40.2822 19.0905 40.4752 19.2802C40.6682 19.4698 40.9255 19.6279 41.2472 19.7543C41.5689 19.8807 41.9871 19.944 42.4697 19.944C42.9522 19.944 43.3704 19.8807 43.6921 19.7543C44.0138 19.6279 44.2711 19.4698 44.4642 19.2802C44.6572 19.0905 44.7858 18.8693 44.8502 18.648C44.9145 18.4267 44.9467 18.2055 44.9467 17.9842V17.921C44.9467 17.6997 44.9145 17.4784 44.8502 17.2572C44.7858 17.0359 44.6572 16.8463 44.4642 16.6566C44.2711 16.467 44.0138 16.3405 43.6921 16.2141C43.3704 16.1193 42.9844 16.056 42.4697 16.056Z" fill="white"/>
<path d="M47.973 4.30689C47.8182 3.83875 47.5704 3.43303 47.2298 3.05851C46.8583 2.684 46.3938 2.40312 45.8055 2.18465C45.2172 1.96619 44.474 1.87256 43.5451 1.87256H43.2354C42.6471 1.87256 42.1517 1.93498 41.7182 2.02861C41.2847 2.12223 40.9131 2.24707 40.5725 2.40312C40.2629 2.55916 40.0151 2.684 39.8294 2.80884C39.6436 2.93368 39.4887 3.05851 39.4268 3.12093V2.02861H35.4634V15.2302C35.5253 15.0741 35.5872 14.9493 35.6492 14.7932C35.804 14.4811 36.0207 14.2003 36.2994 13.9506C36.5781 13.6697 36.9497 13.4512 37.3832 13.2328C37.8167 13.0455 38.3431 12.8583 38.9624 12.7334C39.1172 12.7022 39.241 12.671 39.3959 12.671V8.95708C39.4578 9.0195 39.5816 9.11313 39.7674 9.23797C39.9532 9.3628 40.2009 9.48764 40.5106 9.61248C40.8202 9.73732 41.1918 9.83095 41.6253 9.92457C42.0588 10.0182 42.5542 10.0494 43.1116 10.0494H43.3903C44.3192 10.0494 45.0623 9.92457 45.6816 9.70611C46.3009 9.45643 46.7654 9.17555 47.1369 8.76983C47.5085 8.39531 47.7562 7.95838 47.9111 7.49024C48.0659 7.0221 48.1588 6.52275 48.1588 6.0234V5.71131C48.1897 5.24317 48.1278 4.77503 47.973 4.30689ZM44.1644 5.99219C44.1644 6.21066 44.1334 6.42912 44.0715 6.64759C44.0095 6.86606 43.8857 7.05331 43.6999 7.24057C43.5451 7.42782 43.2974 7.58387 43.0187 7.6775C42.74 7.80234 42.3684 7.86476 41.9349 7.86476H41.873C41.4395 7.86476 41.0679 7.80234 40.7583 7.70871C40.4486 7.58387 40.2009 7.45903 40.0151 7.27178C39.8294 7.08452 39.6745 6.89727 39.5816 6.6788C39.4887 6.46033 39.4578 6.24187 39.4578 6.0234V5.92978C39.4578 5.6801 39.4887 5.46163 39.5816 5.24317C39.6745 5.0247 39.8294 4.83745 40.0151 4.65019C40.2009 4.46294 40.4486 4.3381 40.7583 4.21326C41.0679 4.11963 41.4395 4.05721 41.873 4.05721H41.9349C42.3684 4.05721 42.74 4.11963 43.0187 4.21326C43.2974 4.30689 43.5451 4.46294 43.6999 4.65019C43.8547 4.83745 43.9786 5.0247 44.0715 5.24317C44.1334 5.46163 44.1644 5.6801 44.1644 5.92978V5.99219Z" fill="white"/>
<path d="M61.4115 22.0026H57.479V20.5982C57.3861 20.6918 57.2313 20.8479 57.0455 21.0039C56.8597 21.1912 56.581 21.3472 56.2714 21.5345C55.9308 21.7217 55.5592 21.8778 55.0947 22.0026C54.6303 22.1274 54.1039 22.1899 53.5156 22.1899H53.4227C52.6795 22.1899 52.0912 22.0962 51.5958 21.8778C51.1003 21.6905 50.7288 21.4096 50.4501 21.1287C50.1714 20.8479 49.9547 20.4733 49.8308 20.13C49.7069 19.7867 49.645 19.4434 49.645 19.1001V14.1066H53.6394V17.883C53.6394 18.1326 53.6704 18.3823 53.7323 18.6008C53.7942 18.8192 53.8871 19.0065 54.042 19.1938C54.1968 19.3498 54.3826 19.5059 54.5993 19.5683C54.8161 19.6619 55.0947 19.6931 55.4354 19.6931C56.0856 19.6931 56.612 19.5059 56.9526 19.1313C57.2932 18.7568 57.479 18.2887 57.479 17.7581V14.0754H61.4424V22.0026H61.4115Z" fill="white"/>
<path d="M65.7156 10.143C65.0344 10.143 64.508 9.95579 64.1674 9.58127C63.8268 9.20676 63.641 8.64499 63.641 7.89597V4.6814H62.1238V2.02861H63.641V0H67.5735V2.02861H69.0908V4.6814H67.5735V6.9909C67.5735 7.24057 67.6045 7.39662 67.6974 7.52146C67.7903 7.61508 67.9451 7.6775 68.2238 7.6775H69.0598V10.1743H65.7156V10.143Z" fill="white"/>
<path d="M65.7156 22.2211C65.0344 22.2211 64.508 22.0338 64.1674 21.6593C63.8268 21.2848 63.641 20.723 63.641 19.974V16.7282H62.1238V14.0754H63.641V12.0468H67.5735V14.0754H69.0908V16.7282H67.5735V19.0377C67.5735 19.2874 67.6045 19.4434 67.6974 19.5683C67.7903 19.6619 67.9451 19.7243 68.2238 19.7243H69.0598V22.2211H65.7156Z" fill="white"/>
<path d="M17.6279 4.61899L24.8116 24L5.58276 16.7594L17.6279 4.61899Z" fill="url(#paint0_linear)"/>
<path d="M9.85581 17.8518C14.7467 17.8518 18.7116 13.8555 18.7116 8.92588C18.7116 3.99625 14.7467 0 9.85581 0C4.96488 0 1 3.99625 1 8.92588C1 13.8555 4.96488 17.8518 9.85581 17.8518Z" fill="#F41D60"/>
<defs>
<linearGradient id="paint0_linear" x1="11.7986" y1="10.8841" x2="25.1457" y2="24.1263" gradientUnits="userSpaceOnUse">
<stop offset="0.2238" stop-color="#EA3970" stop-opacity="0.64"/>
<stop offset="1" stop-color="#EA3970" stop-opacity="0.32"/>
</linearGradient>
</defs>
</svg>
