<svg width="107" height="36" viewBox="0 0 107 36" fill="none" xmlns="http://www.w3.org/2000/svg">
<path d="M40.5971 15.0273C39.7611 14.8869 39.0179 14.6996 38.4606 14.5123C37.8568 14.2783 37.3923 14.0442 37.0672 13.7633C36.6956 13.4824 36.4634 13.1547 36.2776 12.8739C36.0918 12.5462 35.9524 12.2653 35.906 11.9376C35.8596 11.6567 35.8131 11.3758 35.8131 11.0949V10.9545H41.8512C41.8512 11.0949 41.8512 11.2354 41.8976 11.3758C41.9441 11.5162 42.0369 11.7035 42.2227 11.8439C42.4085 11.9844 42.6408 12.1248 42.9659 12.2653C43.291 12.3589 43.709 12.4525 44.2664 12.4525H44.3128C44.8237 12.4525 45.2418 12.4057 45.5669 12.3589C45.892 12.3121 46.1242 12.2185 46.31 12.1248C46.4958 12.0312 46.5887 11.9376 46.6352 11.7971C46.6816 11.6567 46.7281 11.5631 46.7281 11.4226V11.3758C46.7281 11.2354 46.6816 11.0949 46.6352 11.0013C46.5887 10.9077 46.4958 10.814 46.31 10.7204C46.1707 10.6268 45.9385 10.58 45.6133 10.5332C45.3347 10.4863 44.9166 10.4395 44.4522 10.4395L41.9441 10.3927C40.69 10.3459 39.6682 10.2055 38.925 9.97139C38.1354 9.73732 37.5316 9.45643 37.0672 9.12873C36.6027 8.80103 36.324 8.37971 36.1382 7.95838C35.9989 7.39661 35.906 6.97529 35.906 6.55396V6.41352C35.906 5.94538 35.9989 5.47724 36.1847 5.0091C36.3705 4.58777 36.742 4.16644 37.2994 3.83875C37.8568 3.51105 38.6463 3.23016 39.6682 2.99609C40.69 2.80884 41.9905 2.71521 43.6161 2.71521H44.7773C46.3565 2.71521 47.657 2.80884 48.6324 3.04291C49.6542 3.23016 50.4438 3.51105 51.0011 3.88556C51.5585 4.21326 51.9765 4.63459 52.1623 5.05591C52.3945 5.47724 52.4874 5.94538 52.4874 6.41352V6.55396H46.5423C46.5423 6.46033 46.4958 6.31989 46.4494 6.22626C46.4029 6.13263 46.31 5.99219 46.1242 5.85175C45.9849 5.75812 45.7062 5.66449 45.4275 5.57087C45.1024 5.47724 44.6844 5.43042 44.1735 5.43042C43.709 5.43042 43.291 5.43042 43.0123 5.47724C42.7336 5.52405 42.5014 5.57087 42.3156 5.61768C42.1298 5.66449 42.0369 5.75812 41.9905 5.85175C41.9441 5.94538 41.8976 6.08582 41.8976 6.22626C41.8976 6.3667 41.9441 6.46033 41.9905 6.55396C42.0369 6.64759 42.1763 6.74122 42.3156 6.83485C42.455 6.92847 42.6872 6.97529 42.9659 7.0221C43.2446 7.06892 43.6161 7.11573 44.0806 7.11573L46.5423 7.16254C47.8892 7.20936 48.9575 7.30299 49.7935 7.49024C50.6296 7.6775 51.2798 7.91157 51.7443 8.23927C52.2087 8.56696 52.5339 8.94148 52.7197 9.3628C52.9054 9.83094 52.9519 10.3459 52.9519 10.9077V11.0481C52.9519 11.6099 52.859 12.1248 52.6732 12.593C52.4874 13.1079 52.0694 13.5293 51.512 13.9038C50.9082 14.2783 50.1187 14.5592 49.0504 14.7932C47.9821 15.0273 46.5887 15.1209 44.8702 15.1209H43.6626C42.455 15.2146 41.4331 15.1677 40.5971 15.0273Z" fill="black"/>
<path d="M82.5092 15.1875C81.2546 15.1875 80.1448 15.0927 79.1797 14.903C78.2146 14.7134 77.4426 14.4763 76.767 14.1444C76.0914 13.8125 75.5607 13.4806 75.1264 13.0539C74.6921 12.6272 74.3543 12.2004 74.113 11.7737C73.8718 11.347 73.6788 10.8728 73.5823 10.3987C73.4858 9.92457 73.4375 9.49785 73.4375 9.07112V8.73922C73.4375 8.3125 73.4858 7.88578 73.5823 7.45905C73.6788 6.98491 73.8235 6.55819 74.0648 6.13147C74.3061 5.70474 74.6438 5.27802 75.0781 4.85129C75.5124 4.47198 76.0432 4.09267 76.7188 3.80819C77.3943 3.52371 78.1664 3.28664 79.1314 3.09698C80.0965 2.90733 81.2063 2.8125 82.4609 2.8125H84.1498C85.4527 2.8125 86.6108 2.90733 87.5758 3.09698C88.5409 3.28664 89.3612 3.52371 89.9885 3.80819C90.6641 4.09267 91.1949 4.47198 91.6291 4.85129C92.0634 5.2306 92.3529 5.65733 92.5942 6.08405C92.8355 6.51078 92.9802 6.98491 93.0285 7.41164C93.125 7.83836 93.125 8.3125 93.125 8.69181V9.07112C93.125 9.49785 93.0767 9.92457 93.0285 10.3987C92.932 10.8728 92.7872 11.2996 92.5942 11.7737C92.3529 12.2004 92.0634 12.6746 91.6291 13.0539C91.2431 13.4806 90.6641 13.8125 89.9885 14.1444C89.313 14.4763 88.4926 14.7134 87.5276 14.903C86.5625 15.0927 85.4044 15.1875 84.1016 15.1875H82.5092ZM83.3295 6.08405C82.6057 6.08405 81.9784 6.17888 81.4959 6.32112C81.0133 6.51078 80.6273 6.70043 80.3378 6.98491C80.0483 7.2694 79.8552 7.55388 79.7587 7.88578C79.6622 8.21767 79.614 8.54957 79.614 8.88147V8.97629C79.614 9.30819 79.6622 9.64009 79.7587 9.97198C79.8552 10.3039 80.0483 10.6358 80.3378 10.9203C80.6273 11.2047 81.0133 11.4418 81.4959 11.6315C81.9784 11.8211 82.6057 11.9159 83.3295 11.9159C84.0533 11.9159 84.6806 11.8211 85.1631 11.6315C85.6457 11.4418 86.0317 11.2047 86.3212 10.9203C86.6108 10.6358 86.8038 10.3039 86.9003 9.97198C86.9968 9.64009 87.045 9.30819 87.045 8.97629V8.88147C87.045 8.54957 86.9968 8.21767 86.9003 7.88578C86.8038 7.55388 86.6108 7.2694 86.3212 6.98491C86.0317 6.70043 85.6457 6.51078 85.1631 6.32112C84.6806 6.17888 84.1016 6.08405 83.3295 6.08405Z" fill="black"/>
<path d="M63.3842 33.1875C62.1296 33.1875 61.0198 33.0927 60.0547 32.903C59.0896 32.7134 58.3176 32.4763 57.642 32.1444C56.9664 31.8125 56.4357 31.4806 56.0014 31.0539C55.5671 30.6272 55.2293 30.2004 54.988 29.7737C54.7468 29.347 54.5538 28.8728 54.4573 28.3987C54.3608 27.9246 54.3125 27.4978 54.3125 27.0711V26.7392C54.3125 26.3125 54.3608 25.8858 54.4573 25.4591C54.5538 24.9849 54.6985 24.5582 54.9398 24.1315C55.1811 23.7047 55.5188 23.278 55.9531 22.8513C56.3874 22.472 56.9182 22.0927 57.5938 21.8082C58.2693 21.5237 59.0414 21.2866 60.0064 21.097C60.9715 20.9073 62.0813 20.8125 63.3359 20.8125H65.0248C66.3277 20.8125 67.4858 20.9073 68.4508 21.097C69.4159 21.2866 70.2362 21.5237 70.8635 21.8082C71.5391 22.0927 72.0699 22.472 72.5041 22.8513C72.9384 23.2306 73.2279 23.6573 73.4692 24.0841C73.7105 24.5108 73.8552 24.9849 73.9035 25.4116C74 25.8384 74 26.3125 74 26.6918V27.0711C74 27.4978 73.9517 27.9246 73.9035 28.3987C73.807 28.8728 73.6622 29.2996 73.4692 29.7737C73.2279 30.2004 72.9384 30.6746 72.5041 31.0539C72.1181 31.4806 71.5391 31.8125 70.8635 32.1444C70.188 32.4763 69.3676 32.7134 68.4026 32.903C67.4375 33.0927 66.2794 33.1875 64.9766 33.1875H63.3842ZM64.2045 24.0841C63.4807 24.0841 62.8534 24.1789 62.3709 24.3211C61.8883 24.5108 61.5023 24.7004 61.2128 24.9849C60.9233 25.2694 60.7302 25.5539 60.6337 25.8858C60.5372 26.2177 60.489 26.5496 60.489 26.8815V26.9763C60.489 27.3082 60.5372 27.6401 60.6337 27.972C60.7302 28.3039 60.9233 28.6358 61.2128 28.9203C61.5023 29.2047 61.8883 29.4418 62.3709 29.6315C62.8534 29.8211 63.4807 29.9159 64.2045 29.9159C64.9283 29.9159 65.5556 29.8211 66.0381 29.6315C66.5207 29.4418 66.9067 29.2047 67.1962 28.9203C67.4858 28.6358 67.6788 28.3039 67.7753 27.972C67.8718 27.6401 67.92 27.3082 67.92 26.9763V26.8815C67.92 26.5496 67.8718 26.2177 67.7753 25.8858C67.6788 25.5539 67.4858 25.2694 67.1962 24.9849C66.9067 24.7004 66.5207 24.5108 66.0381 24.3211C65.5556 24.1789 64.9766 24.0841 64.2045 24.0841Z" fill="black"/>
<path d="M72.4594 6.46033C72.2271 5.75812 71.8556 5.14954 71.3446 4.58777C70.7873 4.026 70.0906 3.60468 69.2081 3.27698C68.3256 2.94928 67.2109 2.80884 65.8175 2.80884H65.353C64.4705 2.80884 63.7274 2.90247 63.0772 3.04291C62.4269 3.18335 61.8695 3.37061 61.3586 3.60468C60.8942 3.83875 60.5226 4.026 60.2439 4.21326C59.9652 4.40052 59.733 4.58777 59.6401 4.6814V3.04291H53.6949V22.8452C53.7878 22.6112 53.8807 22.4239 53.9736 22.1898C54.2059 21.7217 54.531 21.3004 54.949 20.9259C55.367 20.5045 55.9244 20.1768 56.5746 19.8491C57.2249 19.5683 58.0145 19.2874 58.9434 19.1001C59.1756 19.0533 59.3614 19.0065 59.5937 19.0065V13.4356C59.6866 13.5293 59.8723 13.6697 60.151 13.857C60.4297 14.0442 60.8013 14.2315 61.2657 14.4187C61.7302 14.606 62.2876 14.7464 62.9378 14.8869C63.5881 15.0273 64.3312 15.0741 65.1672 15.0741H65.5853C66.9787 15.0741 68.0934 14.8869 69.0223 14.5592C69.9512 14.1846 70.6479 13.7633 71.2053 13.1547C71.7627 12.593 72.1342 11.9376 72.3665 11.2354C72.5987 10.5332 72.738 9.78413 72.738 9.0351V8.56696C72.7845 7.86475 72.6916 7.16254 72.4594 6.46033ZM66.7464 8.98829C66.7464 9.31599 66.7 9.64369 66.6071 9.97139C66.5142 10.2991 66.3284 10.58 66.0497 10.8609C65.8175 11.1417 65.4459 11.3758 65.0279 11.5162C64.6099 11.7035 64.0525 11.7971 63.4023 11.7971H63.3094C62.6591 11.7971 62.1018 11.7035 61.6373 11.5631C61.1728 11.3758 60.8013 11.1885 60.5226 10.9077C60.2439 10.6268 60.0117 10.3459 59.8723 10.0182C59.733 9.6905 59.6866 9.3628 59.6866 9.0351V8.89466C59.6866 8.52015 59.733 8.19245 59.8723 7.86475C60.0117 7.53706 60.2439 7.25617 60.5226 6.97529C60.8013 6.6944 61.1728 6.50715 61.6373 6.31989C62.1018 6.17945 62.6591 6.08582 63.3094 6.08582H63.4023C64.0525 6.08582 64.6099 6.17945 65.0279 6.31989C65.4459 6.46033 65.8175 6.6944 66.0497 6.97529C66.282 7.25617 66.4678 7.53706 66.6071 7.86475C66.7 8.19245 66.7464 8.52015 66.7464 8.89466V8.98829Z" fill="black"/>
<path d="M92.6172 33.0039H86.7185V30.8973C86.5792 31.0377 86.3469 31.2718 86.0683 31.5058C85.7896 31.7867 85.3716 32.0208 84.9071 32.3017C84.3962 32.5826 83.8388 32.8166 83.1421 33.0039C82.4454 33.1912 81.6558 33.2848 80.7734 33.2848H80.634C79.5193 33.2848 78.6368 33.1443 77.8937 32.8166C77.1505 32.5358 76.5932 32.1144 76.1751 31.6931C75.7571 31.2718 75.432 30.71 75.2462 30.1951C75.0604 29.6801 74.9675 29.1651 74.9675 28.6502V21.1599H80.9591V26.8244C80.9591 27.199 81.0056 27.5735 81.0985 27.9012C81.1914 28.2289 81.3307 28.5097 81.5629 28.7906C81.7952 29.0247 82.0739 29.2588 82.399 29.3524C82.7241 29.4928 83.1421 29.5397 83.653 29.5397C84.6284 29.5397 85.418 29.2588 85.9289 28.697C86.4398 28.1352 86.7185 27.433 86.7185 26.6372V21.1131H92.6637V33.0039H92.6172Z" fill="black"/>
<path d="M99.0733 15.2146C98.0515 15.2146 97.2619 14.9337 96.751 14.3719C96.2401 13.8101 95.9614 12.9675 95.9614 11.844V7.02211H93.6855V3.04291H95.9614V0H101.86V3.04291H104.136V7.02211H101.86V10.4863C101.86 10.8609 101.907 11.0949 102.046 11.2822C102.185 11.4226 102.418 11.5163 102.836 11.5163H104.09V15.2614H99.0733V15.2146Z" fill="black"/>
<path d="M99.0733 33.3316C98.0515 33.3316 97.2619 33.0507 96.751 32.4889C96.2401 31.9272 95.9614 31.0845 95.9614 29.961V25.0923H93.6855V21.1131H95.9614V18.0702H101.86V21.1131H104.136V25.0923H101.86V28.5566C101.86 28.9311 101.907 29.1651 102.046 29.3524C102.185 29.4928 102.418 29.5865 102.836 29.5865H104.09V33.3316H99.0733Z" fill="black"/>
<path d="M26.9417 6.92847L37.7173 36L8.87402 25.1391L26.9417 6.92847Z" fill="url(#paint0_linear)"/>
<path d="M15.2837 26.7776C22.6201 26.7776 28.5674 20.7833 28.5674 13.3888C28.5674 5.99438 22.6201 0 15.2837 0C7.94732 0 2 5.99438 2 13.3888C2 20.7833 7.94732 26.7776 15.2837 26.7776Z" fill="#F41D60"/>
<defs>
<linearGradient id="paint0_linear" x1="18.1978" y1="16.3261" x2="38.2184" y2="36.1895" gradientUnits="userSpaceOnUse">
<stop offset="0.2238" stop-color="#EA3970" stop-opacity="0.64"/>
<stop offset="1" stop-color="#EA3970" stop-opacity="0.32"/>
</linearGradient>
</defs>
</svg>
