<svg width="24" height="26" viewBox="0 0 24 26" fill="none" xmlns="http://www.w3.org/2000/svg">
<path d="M8.80187 24.25V25.25H9.80187V24.25H8.80187ZM8.80187 17.8213L8.8101 16.8213L7.80187 16.813V17.8213H8.80187ZM10.4036 17.8213V16.8213L10.397 16.8213L10.4036 17.8213ZM15.2631 17.8213H16.2631V16.8213H15.2631V17.8213ZM15.2631 24.25H14.2631V25.2795L15.2921 25.2496L15.2631 24.25ZM16.6159 24.25L16.5927 25.2497C16.6004 25.2499 16.6082 25.25 16.6159 25.25V24.25ZM19.65 24.25V23.25V24.25ZM22.6875 10.5676H23.6876L23.6874 10.5539L22.6875 10.5676ZM21.6052 8.42466L20.9817 9.20648C20.9872 9.21085 20.9927 9.21515 20.9983 9.2194L21.6052 8.42466ZM14.2024 2.52096L14.8259 1.73914L14.8236 1.73729L14.2024 2.52096ZM9.76509 2.52096L9.14392 1.73727L9.13923 1.74103L9.76509 2.52096ZM2.39478 8.43538L2.99872 9.23241C3.00611 9.22681 3.01342 9.22111 3.02064 9.21531L2.39478 8.43538ZM1.3125 10.5783L0.3125 10.5684V10.5783H1.3125ZM9.80187 24.25V17.8213H7.80187V24.25H9.80187ZM8.80187 17.8213C8.79363 18.8213 8.79365 18.8213 8.79366 18.8213C8.79367 18.8213 8.79369 18.8213 8.7937 18.8213C8.79374 18.8213 8.79378 18.8213 8.79384 18.8213C8.79395 18.8213 8.7941 18.8213 8.7943 18.8213C8.7947 18.8213 8.79527 18.8213 8.79601 18.8213C8.79748 18.8213 8.79965 18.8213 8.80247 18.8213C8.80813 18.8214 8.81646 18.8214 8.82731 18.8215C8.84903 18.8217 8.88088 18.8219 8.92181 18.8221C9.00366 18.8226 9.12183 18.8231 9.26782 18.8235C9.55966 18.8242 9.96327 18.8242 10.4103 18.8213L10.397 16.8213C9.95763 16.8242 9.56035 16.8242 9.2729 16.8235C9.12924 16.8231 9.01317 16.8226 8.93318 16.8221C8.89319 16.8219 8.86223 16.8217 8.84136 16.8216C8.83093 16.8215 8.82301 16.8214 8.81776 16.8214C8.81513 16.8214 8.81317 16.8214 8.81189 16.8213C8.81125 16.8213 8.81077 16.8213 8.81048 16.8213C8.81033 16.8213 8.81022 16.8213 8.81016 16.8213C8.81013 16.8213 8.81011 16.8213 8.8101 16.8213C8.81009 16.8213 8.81009 16.8213 8.81009 16.8213C8.81009 16.8213 8.8101 16.8213 8.80187 17.8213ZM10.4036 18.8213H13.6505V16.8213H10.4036V18.8213ZM13.6505 18.8213C13.6522 18.8213 13.654 18.8213 13.6557 18.8213C13.6574 18.8213 13.6592 18.8213 13.6609 18.8213C13.6626 18.8213 13.6644 18.8213 13.6661 18.8213C13.6678 18.8213 13.6696 18.8213 13.6713 18.8213C13.6731 18.8213 13.6748 18.8213 13.6765 18.8213C13.6783 18.8213 13.68 18.8213 13.6817 18.8213C13.6834 18.8213 13.6852 18.8213 13.6869 18.8213C13.6886 18.8213 13.6904 18.8213 13.6921 18.8213C13.6938 18.8213 13.6956 18.8213 13.6973 18.8213C13.699 18.8213 13.7007 18.8213 13.7025 18.8213C13.7042 18.8213 13.7059 18.8213 13.7076 18.8213C13.7094 18.8213 13.7111 18.8213 13.7128 18.8213C13.7145 18.8213 13.7163 18.8213 13.718 18.8213C13.7197 18.8213 13.7214 18.8213 13.7231 18.8213C13.7249 18.8213 13.7266 18.8213 13.7283 18.8213C13.73 18.8213 13.7317 18.8213 13.7335 18.8213C13.7352 18.8213 13.7369 18.8213 13.7386 18.8213C13.7403 18.8213 13.742 18.8213 13.7438 18.8213C13.7455 18.8213 13.7472 18.8213 13.7489 18.8213C13.7506 18.8213 13.7523 18.8213 13.754 18.8213C13.7557 18.8213 13.7575 18.8213 13.7592 18.8213C13.7609 18.8213 13.7626 18.8213 13.7643 18.8213C13.766 18.8213 13.7677 18.8213 13.7694 18.8213C13.7711 18.8213 13.7728 18.8213 13.7745 18.8213C13.7763 18.8213 13.778 18.8213 13.7797 18.8213C13.7814 18.8213 13.7831 18.8213 13.7848 18.8213C13.7865 18.8213 13.7882 18.8213 13.7899 18.8213C13.7916 18.8213 13.7933 18.8213 13.795 18.8213C13.7967 18.8213 13.7984 18.8213 13.8001 18.8213C13.8018 18.8213 13.8035 18.8213 13.8052 18.8213C13.8069 18.8213 13.8086 18.8213 13.8103 18.8213C13.812 18.8213 13.8137 18.8213 13.8154 18.8213C13.817 18.8213 13.8187 18.8213 13.8204 18.8213C13.8221 18.8213 13.8238 18.8213 13.8255 18.8213C13.8272 18.8213 13.8289 18.8213 13.8306 18.8213C13.8323 18.8213 13.834 18.8213 13.8356 18.8213C13.8373 18.8213 13.839 18.8213 13.8407 18.8213C13.8424 18.8213 13.8441 18.8213 13.8458 18.8213C13.8474 18.8213 13.8491 18.8213 13.8508 18.8213C13.8525 18.8213 13.8542 18.8213 13.8559 18.8213C13.8575 18.8213 13.8592 18.8213 13.8609 18.8213C13.8626 18.8213 13.8643 18.8213 13.8659 18.8213C13.8676 18.8213 13.8693 18.8213 13.871 18.8213C13.8726 18.8213 13.8743 18.8213 13.876 18.8213C13.8777 18.8213 13.8793 18.8213 13.881 18.8213C13.8827 18.8213 13.8844 18.8213 13.886 18.8213C13.8877 18.8213 13.8894 18.8213 13.891 18.8213C13.8927 18.8213 13.8944 18.8213 13.8961 18.8213C13.8977 18.8213 13.8994 18.8213 13.9011 18.8213C13.9027 18.8213 13.9044 18.8213 13.9061 18.8213C13.9077 18.8213 13.9094 18.8213 13.911 18.8213C13.9127 18.8213 13.9144 18.8213 13.916 18.8213C13.9177 18.8213 13.9194 18.8213 13.921 18.8213C13.9227 18.8213 13.9243 18.8213 13.926 18.8213C13.9277 18.8213 13.9293 18.8213 13.931 18.8213C13.9326 18.8213 13.9343 18.8213 13.9359 18.8213C13.9376 18.8213 13.9392 18.8213 13.9409 18.8213C13.9425 18.8213 13.9442 18.8213 13.9458 18.8213C13.9475 18.8213 13.9491 18.8213 13.9508 18.8213C13.9524 18.8213 13.9541 18.8213 13.9557 18.8213C13.9574 18.8213 13.959 18.8213 13.9607 18.8213C13.9623 18.8213 13.964 18.8213 13.9656 18.8213C13.9673 18.8213 13.9689 18.8213 13.9705 18.8213C13.9722 18.8213 13.9738 18.8213 13.9755 18.8213C13.9771 18.8213 13.9787 18.8213 13.9804 18.8213C13.982 18.8213 13.9837 18.8213 13.9853 18.8213C13.9869 18.8213 13.9886 18.8213 13.9902 18.8213C13.9918 18.8213 13.9935 18.8213 13.9951 18.8213C13.9967 18.8213 13.9984 18.8213 14 18.8213C14.0016 18.8213 14.0033 18.8213 14.0049 18.8213C14.0065 18.8213 14.0082 18.8213 14.0098 18.8213C14.0114 18.8213 14.013 18.8213 14.0147 18.8213C14.0163 18.8213 14.0179 18.8213 14.0195 18.8213C14.0212 18.8213 14.0228 18.8213 14.0244 18.8213C14.026 18.8213 14.0276 18.8213 14.0293 18.8213C14.0309 18.8213 14.0325 18.8213 14.0341 18.8213C14.0357 18.8213 14.0374 18.8213 14.039 18.8213C14.0406 18.8213 14.0422 18.8213 14.0438 18.8213C14.0454 18.8213 14.047 18.8213 14.0487 18.8213C14.0503 18.8213 14.0519 18.8213 14.0535 18.8213C14.0551 18.8213 14.0567 18.8213 14.0583 18.8213C14.0599 18.8213 14.0615 18.8213 14.0631 18.8213C14.0647 18.8213 14.0663 18.8213 14.068 18.8213C14.0696 18.8213 14.0712 18.8213 14.0728 18.8213C14.0744 18.8213 14.076 18.8213 14.0776 18.8213C14.0792 18.8213 14.0808 18.8213 14.0824 18.8213C14.084 18.8213 14.0856 18.8213 14.0872 18.8213C14.0888 18.8213 14.0903 18.8213 14.0919 18.8213C14.0935 18.8213 14.0951 18.8213 14.0967 18.8213C14.0983 18.8213 14.0999 18.8213 14.1015 18.8213C14.1031 18.8213 14.1047 18.8213 14.1063 18.8213C14.1079 18.8213 14.1094 18.8213 14.111 18.8213C14.1126 18.8213 14.1142 18.8213 14.1158 18.8213C14.1174 18.8213 14.1189 18.8213 14.1205 18.8213C14.1221 18.8213 14.1237 18.8213 14.1253 18.8213C14.1269 18.8213 14.1284 18.8213 14.13 18.8213C14.1316 18.8213 14.1332 18.8213 14.1347 18.8213C14.1363 18.8213 14.1379 18.8213 14.1395 18.8213C14.141 18.8213 14.1426 18.8213 14.1442 18.8213C14.1458 18.8213 14.1473 18.8213 14.1489 18.8213C14.1505 18.8213 14.152 18.8213 14.1536 18.8213C14.1552 18.8213 14.1567 18.8213 14.1583 18.8213C14.1599 18.8213 14.1614 18.8213 14.163 18.8213C14.1646 18.8213 14.1661 18.8213 14.1677 18.8213C14.1692 18.8213 14.1708 18.8213 14.1724 18.8213C14.1739 18.8213 14.1755 18.8213 14.177 18.8213C14.1786 18.8213 14.1801 18.8213 14.1817 18.8213C14.1833 18.8213 14.1848 18.8213 14.1864 18.8213C14.1879 18.8213 14.1895 18.8213 14.191 18.8213C14.1926 18.8213 14.1941 18.8213 14.1957 18.8213C14.1972 18.8213 14.1988 18.8213 14.2003 18.8213C14.2018 18.8213 14.2034 18.8213 14.2049 18.8213C14.2065 18.8213 14.208 18.8213 14.2096 18.8213C14.2111 18.8213 14.2126 18.8213 14.2142 18.8213C14.2157 18.8213 14.2173 18.8213 14.2188 18.8213C14.2203 18.8213 14.2219 18.8213 14.2234 18.8213C14.2249 18.8213 14.2265 18.8213 14.228 18.8213C14.2295 18.8213 14.2311 18.8213 14.2326 18.8213C14.2341 18.8213 14.2357 18.8213 14.2372 18.8213C14.2387 18.8213 14.2402 18.8213 14.2418 18.8213C14.2433 18.8213 14.2448 18.8213 14.2463 18.8213C14.2479 18.8213 14.2494 18.8213 14.2509 18.8213C14.2524 18.8213 14.254 18.8213 14.2555 18.8213C14.257 18.8213 14.2585 18.8213 14.26 18.8213C14.2615 18.8213 14.2631 18.8213 14.2646 18.8213C14.2661 18.8213 14.2676 18.8213 14.2691 18.8213C14.2706 18.8213 14.2721 18.8213 14.2736 18.8213C14.2752 18.8213 14.2767 18.8213 14.2782 18.8213C14.2797 18.8213 14.2812 18.8213 14.2827 18.8213C14.2842 18.8213 14.2857 18.8213 14.2872 18.8213C14.2887 18.8213 14.2902 18.8213 14.2917 18.8213C14.2932 18.8213 14.2947 18.8213 14.2962 18.8213C14.2977 18.8213 14.2992 18.8213 14.3007 18.8213C14.3022 18.8213 14.3037 18.8213 14.3052 18.8213C14.3067 18.8213 14.3082 18.8213 14.3096 18.8213C14.3111 18.8213 14.3126 18.8213 14.3141 18.8213C14.3156 18.8213 14.3171 18.8213 14.3186 18.8213C14.3201 18.8213 14.3215 18.8213 14.323 18.8213C14.3245 18.8213 14.326 18.8213 14.3275 18.8213C14.329 18.8213 14.3304 18.8213 14.3319 18.8213C14.3334 18.8213 14.3349 18.8213 14.3363 18.8213C14.3378 18.8213 14.3393 18.8213 14.3408 18.8213C14.3422 18.8213 14.3437 18.8213 14.3452 18.8213C14.3467 18.8213 14.3481 18.8213 14.3496 18.8213C14.3511 18.8213 14.3525 18.8213 14.354 18.8213C14.3555 18.8213 14.3569 18.8213 14.3584 18.8213C14.3599 18.8213 14.3613 18.8213 14.3628 18.8213C14.3642 18.8213 14.3657 18.8213 14.3672 18.8213C14.3686 18.8213 14.3701 18.8213 14.3715 18.8213C14.373 18.8213 14.3744 18.8213 14.3759 18.8213C14.3774 18.8213 14.3788 18.8213 14.3803 18.8213C14.3817 18.8213 14.3832 18.8213 14.3846 18.8213C14.3861 18.8213 14.3875 18.8213 14.389 18.8213C14.3904 18.8213 14.3918 18.8213 14.3933 18.8213C14.3947 18.8213 14.3962 18.8213 14.3976 18.8213C14.3991 18.8213 14.4005 18.8213 14.4019 18.8213C14.4034 18.8213 14.4048 18.8213 14.4062 18.8213C14.4077 18.8213 14.4091 18.8213 14.4105 18.8213C14.412 18.8213 14.4134 18.8213 14.4148 18.8213C14.4163 18.8213 14.4177 18.8213 14.4191 18.8213C14.4206 18.8213 14.422 18.8213 14.4234 18.8213C14.4248 18.8213 14.4263 18.8213 14.4277 18.8213C14.4291 18.8213 14.4305 18.8213 14.4319 18.8213C14.4334 18.8213 14.4348 18.8213 14.4362 18.8213C14.4376 18.8213 14.439 18.8213 14.4405 18.8213C14.4419 18.8213 14.4433 18.8213 14.4447 18.8213C14.4461 18.8213 14.4475 18.8213 14.4489 18.8213C14.4503 18.8213 14.4517 18.8213 14.4532 18.8213C14.4546 18.8213 14.456 18.8213 14.4574 18.8213C14.4588 18.8213 14.4602 18.8213 14.4616 18.8213C14.463 18.8213 14.4644 18.8213 14.4658 18.8213C14.4672 18.8213 14.4686 18.8213 14.47 18.8213C14.4714 18.8213 14.4728 18.8213 14.4742 18.8213C14.4756 18.8213 14.4769 18.8213 14.4783 18.8213C14.4797 18.8213 14.4811 18.8213 14.4825 18.8213C14.4839 18.8213 14.4853 18.8213 14.4867 18.8213C14.488 18.8213 14.4894 18.8213 14.4908 18.8213C14.4922 18.8213 14.4936 18.8213 14.495 18.8213C14.4963 18.8213 14.4977 18.8213 14.4991 18.8213C14.5005 18.8213 14.5018 18.8213 14.5032 18.8213C14.5046 18.8213 14.506 18.8213 14.5073 18.8213C14.5087 18.8213 14.5101 18.8213 14.5115 18.8213C14.5128 18.8213 14.5142 18.8213 14.5156 18.8213C14.5169 18.8213 14.5183 18.8213 14.5196 18.8213C14.521 18.8213 14.5224 18.8213 14.5237 18.8213C14.5251 18.8213 14.5265 18.8213 14.5278 18.8213C14.5292 18.8213 14.5305 18.8213 14.5319 18.8213C14.5332 18.8213 14.5346 18.8213 14.5359 18.8213C14.5373 18.8213 14.5386 18.8213 14.54 18.8213C14.5413 18.8213 14.5427 18.8213 14.544 18.8213C14.5454 18.8213 14.5467 18.8213 14.5481 18.8213C14.5494 18.8213 14.5508 18.8213 14.5521 18.8213C14.5534 18.8213 14.5548 18.8213 14.5561 18.8213C14.5574 18.8213 14.5588 18.8213 14.5601 18.8213C14.5615 18.8213 14.5628 18.8213 14.5641 18.8213C14.5654 18.8213 14.5668 18.8213 14.5681 18.8213C14.5694 18.8213 14.5708 18.8213 14.5721 18.8213C14.5734 18.8213 14.5747 18.8213 14.5761 18.8213C14.5774 18.8213 14.5787 18.8213 14.58 18.8213C14.5813 18.8213 14.5827 18.8213 14.584 18.8213C14.5853 18.8213 14.5866 18.8213 14.5879 18.8213C14.5892 18.8213 14.5906 18.8213 14.5919 18.8213C14.5932 18.8213 14.5945 18.8213 14.5958 18.8213C14.5971 18.8213 14.5984 18.8213 14.5997 18.8213C14.601 18.8213 14.6023 18.8213 14.6036 18.8213C14.6049 18.8213 14.6062 18.8213 14.6075 18.8213C14.6088 18.8213 14.6101 18.8213 14.6114 18.8213C14.6127 18.8213 14.614 18.8213 14.6153 18.8213C14.6166 18.8213 14.6179 18.8213 14.6192 18.8213C14.6205 18.8213 14.6218 18.8213 14.6231 18.8213C14.6243 18.8213 14.6256 18.8213 14.6269 18.8213C14.6282 18.8213 14.6295 18.8213 14.6308 18.8213C14.632 18.8213 14.6333 18.8213 14.6346 18.8213C14.6359 18.8213 14.6372 18.8213 14.6384 18.8213C14.6397 18.8213 14.641 18.8213 14.6423 18.8213C14.6435 18.8213 14.6448 18.8213 14.6461 18.8213C14.6473 18.8213 14.6486 18.8213 14.6499 18.8213C14.6511 18.8213 14.6524 18.8213 14.6537 18.8213C14.6549 18.8213 14.6562 18.8213 14.6575 18.8213C14.6587 18.8213 14.66 18.8213 14.6612 18.8213C14.6625 18.8213 14.6637 18.8213 14.665 18.8213C14.6662 18.8213 14.6675 18.8213 14.6687 18.8213C14.67 18.8213 14.6712 18.8213 14.6725 18.8213C14.6737 18.8213 14.675 18.8213 14.6762 18.8213C14.6775 18.8213 14.6787 18.8213 14.68 18.8213C14.6812 18.8213 14.6824 18.8213 14.6837 18.8213C14.6849 18.8213 14.6862 18.8213 14.6874 18.8213C14.6886 18.8213 14.6899 18.8213 14.6911 18.8213C14.6923 18.8213 14.6936 18.8213 14.6948 18.8213C14.696 18.8213 14.6972 18.8213 14.6985 18.8213C14.6997 18.8213 14.7009 18.8213 14.7021 18.8213C14.7034 18.8213 14.7046 18.8213 14.7058 18.8213C14.707 18.8213 14.7082 18.8213 14.7094 18.8213C14.7107 18.8213 14.7119 18.8213 14.7131 18.8213C14.7143 18.8213 14.7155 18.8213 14.7167 18.8213C14.7179 18.8213 14.7191 18.8213 14.7203 18.8213C14.7216 18.8213 14.7228 18.8213 14.724 18.8213C14.7252 18.8213 14.7264 18.8213 14.7276 18.8213C14.7288 18.8213 14.73 18.8213 14.7312 18.8213C14.7324 18.8213 14.7336 18.8213 14.7347 18.8213C14.7359 18.8213 14.7371 18.8213 14.7383 18.8213C14.7395 18.8213 14.7407 18.8213 14.7419 18.8213C14.7431 18.8213 14.7443 18.8213 14.7454 18.8213C14.7466 18.8213 14.7478 18.8213 14.749 18.8213C14.7502 18.8213 14.7513 18.8213 14.7525 18.8213C14.7537 18.8213 14.7549 18.8213 14.756 18.8213C14.7572 18.8213 14.7584 18.8213 14.7596 18.8213C14.7607 18.8213 14.7619 18.8213 14.7631 18.8213C14.7642 18.8213 14.7654 18.8213 14.7666 18.8213C14.7677 18.8213 14.7689 18.8213 14.77 18.8213C14.7712 18.8213 14.7724 18.8213 14.7735 18.8213C14.7747 18.8213 14.7758 18.8213 14.777 18.8213C14.7781 18.8213 14.7793 18.8213 14.7804 18.8213C14.7816 18.8213 14.7827 18.8213 14.7839 18.8213C14.785 18.8213 14.7862 18.8213 14.7873 18.8213C14.7885 18.8213 14.7896 18.8213 14.7908 18.8213C14.7919 18.8213 14.793 18.8213 14.7942 18.8213C14.7953 18.8213 14.7964 18.8213 14.7976 18.8213C14.7987 18.8213 14.7998 18.8213 14.801 18.8213C14.8021 18.8213 14.8032 18.8213 14.8043 18.8213C14.8055 18.8213 14.8066 18.8213 14.8077 18.8213C14.8088 18.8213 14.81 18.8213 14.8111 18.8213C14.8122 18.8213 14.8133 18.8213 14.8144 18.8213C14.8156 18.8213 14.8167 18.8213 14.8178 18.8213C14.8189 18.8213 14.82 18.8213 14.8211 18.8213C14.8222 18.8213 14.8233 18.8213 14.8244 18.8213C14.8255 18.8213 14.8266 18.8213 14.8277 18.8213C14.8288 18.8213 14.8299 18.8213 14.831 18.8213C14.8321 18.8213 14.8332 18.8213 14.8343 18.8213C14.8354 18.8213 14.8365 18.8213 14.8376 18.8213C14.8387 18.8213 14.8398 18.8213 14.8409 18.8213C14.842 18.8213 14.8431 18.8213 14.8441 18.8213C14.8452 18.8213 14.8463 18.8213 14.8474 18.8213C14.8485 18.8213 14.8496 18.8213 14.8506 18.8213C14.8517 18.8213 14.8528 18.8213 14.8539 18.8213C14.8549 18.8213 14.856 18.8213 14.8571 18.8213C14.8581 18.8213 14.8592 18.8213 14.8603 18.8213C14.8613 18.8213 14.8624 18.8213 14.8635 18.8213C14.8645 18.8213 14.8656 18.8213 14.8667 18.8213C14.8677 18.8213 14.8688 18.8213 14.8698 18.8213C14.8709 18.8213 14.8719 18.8213 14.873 18.8213C14.874 18.8213 14.8751 18.8213 14.8761 18.8213C14.8772 18.8213 14.8782 18.8213 14.8793 18.8213C14.8803 18.8213 14.8814 18.8213 14.8824 18.8213C14.8835 18.8213 14.8845 18.8213 14.8855 18.8213C14.8866 18.8213 14.8876 18.8213 14.8886 18.8213C14.8897 18.8213 14.8907 18.8213 14.8917 18.8213C14.8928 18.8213 14.8938 18.8213 14.8948 18.8213C14.8959 18.8213 14.8969 18.8213 14.8979 18.8213C14.8989 18.8213 14.9 18.8213 14.901 18.8213C14.902 18.8213 14.903 18.8213 14.904 18.8213C14.905 18.8213 14.9061 18.8213 14.9071 18.8213C14.9081 18.8213 14.9091 18.8213 14.9101 18.8213C14.9111 18.8213 14.9121 18.8213 14.9131 18.8213C14.9141 18.8213 14.9151 18.8213 14.9161 18.8213C14.9171 18.8213 14.9181 18.8213 14.9191 18.8213C14.9201 18.8213 14.9211 18.8213 14.9221 18.8213C14.9231 18.8213 14.9241 18.8213 14.9251 18.8213C14.9261 18.8213 14.9271 18.8213 14.9281 18.8213C14.929 18.8213 14.93 18.8213 14.931 18.8213C14.932 18.8213 14.933 18.8213 14.9339 18.8213C14.9349 18.8213 14.9359 18.8213 14.9369 18.8213C14.9379 18.8213 14.9388 18.8213 14.9398 18.8213C14.9408 18.8213 14.9417 18.8213 14.9427 18.8213C14.9437 18.8213 14.9446 18.8213 14.9456 18.8213C14.9466 18.8213 14.9475 18.8213 14.9485 18.8213C14.9494 18.8213 14.9504 18.8213 14.9514 18.8213C14.9523 18.8213 14.9533 18.8213 14.9542 18.8213C14.9552 18.8213 14.9561 18.8213 14.9571 18.8213C14.958 18.8213 14.959 18.8213 14.9599 18.8213C14.9609 18.8213 14.9618 18.8213 14.9627 18.8213C14.9637 18.8213 14.9646 18.8213 14.9656 18.8213C14.9665 18.8213 14.9674 18.8213 14.9684 18.8213C14.9693 18.8213 14.9702 18.8213 14.9712 18.8213C14.9721 18.8213 14.973 18.8213 14.9739 18.8213C14.9749 18.8213 14.9758 18.8213 14.9767 18.8213C14.9776 18.8213 14.9785 18.8213 14.9795 18.8213C14.9804 18.8213 14.9813 18.8213 14.9822 18.8213C14.9831 18.8213 14.984 18.8213 14.9849 18.8213C14.9858 18.8213 14.9868 18.8213 14.9877 18.8213C14.9886 18.8213 14.9895 18.8213 14.9904 18.8213C14.9913 18.8213 14.9922 18.8213 14.9931 18.8213C14.994 18.8213 14.9949 18.8213 14.9958 18.8213C14.9967 18.8213 14.9975 18.8213 14.9984 18.8213C14.9993 18.8213 15.0002 18.8213 15.0011 18.8213C15.002 18.8213 15.0029 18.8213 15.0038 18.8213C15.0046 18.8213 15.0055 18.8213 15.0064 18.8213C15.0073 18.8213 15.0081 18.8213 15.009 18.8213C15.0099 18.8213 15.0108 18.8213 15.0116 18.8213C15.0125 18.8213 15.0134 18.8213 15.0142 18.8213C15.0151 18.8213 15.016 18.8213 15.0168 18.8213C15.0177 18.8213 15.0186 18.8213 15.0194 18.8213C15.0203 18.8213 15.0211 18.8213 15.022 18.8213C15.0228 18.8213 15.0237 18.8213 15.0245 18.8213C15.0254 18.8213 15.0262 18.8213 15.0271 18.8213C15.0279 18.8213 15.0288 18.8213 15.0296 18.8213C15.0304 18.8213 15.0313 18.8213 15.0321 18.8213C15.033 18.8213 15.0338 18.8213 15.0346 18.8213C15.0355 18.8213 15.0363 18.8213 15.0371 18.8213C15.038 18.8213 15.0388 18.8213 15.0396 18.8213C15.0404 18.8213 15.0413 18.8213 15.0421 18.8213C15.0429 18.8213 15.0437 18.8213 15.0445 18.8213C15.0454 18.8213 15.0462 18.8213 15.047 18.8213C15.0478 18.8213 15.0486 18.8213 15.0494 18.8213C15.0502 18.8213 15.051 18.8213 15.0518 18.8213C15.0526 18.8213 15.0534 18.8213 15.0542 18.8213C15.055 18.8213 15.0558 18.8213 15.0566 18.8213C15.0574 18.8213 15.0582 18.8213 15.059 18.8213C15.0598 18.8213 15.0606 18.8213 15.0614 18.8213C15.0622 18.8213 15.063 18.8213 15.0638 18.8213C15.0645 18.8213 15.0653 18.8213 15.0661 18.8213C15.0669 18.8213 15.0677 18.8213 15.0684 18.8213C15.0692 18.8213 15.07 18.8213 15.0708 18.8213C15.0715 18.8213 15.0723 18.8213 15.0731 18.8213C15.0738 18.8213 15.0746 18.8213 15.0754 18.8213C15.0761 18.8213 15.0769 18.8213 15.0776 18.8213C15.0784 18.8213 15.0792 18.8213 15.0799 18.8213C15.0807 18.8213 15.0814 18.8213 15.0822 18.8213C15.0829 18.8213 15.0837 18.8213 15.0844 18.8213C15.0852 18.8213 15.0859 18.8213 15.0867 18.8213C15.0874 18.8213 15.0881 18.8213 15.0889 18.8213C15.0896 18.8213 15.0903 18.8213 15.0911 18.8213C15.0918 18.8213 15.0925 18.8213 15.0933 18.8213C15.094 18.8213 15.0947 18.8213 15.0955 18.8213C15.0962 18.8213 15.0969 18.8213 15.0976 18.8213C15.0983 18.8213 15.0991 18.8213 15.0998 18.8213C15.1005 18.8213 15.1012 18.8213 15.1019 18.8213C15.1026 18.8213 15.1033 18.8213 15.104 18.8213C15.1048 18.8213 15.1055 18.8213 15.1062 18.8213C15.1069 18.8213 15.1076 18.8213 15.1083 18.8213C15.109 18.8213 15.1097 18.8213 15.1104 18.8213C15.1111 18.8213 15.1117 18.8213 15.1124 18.8213C15.1131 18.8213 15.1138 18.8213 15.1145 18.8213C15.1152 18.8213 15.1159 18.8213 15.1166 18.8213C15.1172 18.8213 15.1179 18.8213 15.1186 18.8213C15.1193 18.8213 15.1199 18.8213 15.1206 18.8213C15.1213 18.8213 15.122 18.8213 15.1226 18.8213C15.1233 18.8213 15.124 18.8213 15.1246 18.8213C15.1253 18.8213 15.126 18.8213 15.1266 18.8213C15.1273 18.8213 15.1279 18.8213 15.1286 18.8213C15.1292 18.8213 15.1299 18.8213 15.1305 18.8213C15.1312 18.8213 15.1318 18.8213 15.1325 18.8213C15.1331 18.8213 15.1338 18.8213 15.1344 18.8213C15.1351 18.8213 15.1357 18.8213 15.1363 18.8213C15.137 18.8213 15.1376 18.8213 15.1382 18.8213C15.1389 18.8213 15.1395 18.8213 15.1401 18.8213C15.1408 18.8213 15.1414 18.8213 15.142 18.8213C15.1426 18.8213 15.1433 18.8213 15.1439 18.8213C15.1445 18.8213 15.1451 18.8213 15.1457 18.8213C15.1464 18.8213 15.147 18.8213 15.1476 18.8213C15.1482 18.8213 15.1488 18.8213 15.1494 18.8213C15.15 18.8213 15.1506 18.8213 15.1512 18.8213C15.1518 18.8213 15.1524 18.8213 15.153 18.8213C15.1536 18.8213 15.1542 18.8213 15.1548 18.8213C15.1554 18.8213 15.156 18.8213 15.1566 18.8213C15.1572 18.8213 15.1577 18.8213 15.1583 18.8213C15.1589 18.8213 15.1595 18.8213 15.1601 18.8213C15.1606 18.8213 15.1612 18.8213 15.1618 18.8213C15.1624 18.8213 15.1629 18.8213 15.1635 18.8213C15.1641 18.8213 15.1647 18.8213 15.1652 18.8213C15.1658 18.8213 15.1663 18.8213 15.1669 18.8213C15.1675 18.8213 15.168 18.8213 15.1686 18.8213C15.1691 18.8213 15.1697 18.8213 15.1702 18.8213C15.1708 18.8213 15.1713 18.8213 15.1719 18.8213C15.1724 18.8213 15.173 18.8213 15.1735 18.8213C15.1741 18.8213 15.1746 18.8213 15.1751 18.8213C15.1757 18.8213 15.1762 18.8213 15.1767 18.8213C15.1773 18.8213 15.1778 18.8213 15.1783 18.8213C15.1789 18.8213 15.1794 18.8213 15.1799 18.8213C15.1804 18.8213 15.181 18.8213 15.1815 18.8213C15.182 18.8213 15.1825 18.8213 15.183 18.8213C15.1835 18.8213 15.1841 18.8213 15.1846 18.8213C15.1851 18.8213 15.1856 18.8213 15.1861 18.8213C15.1866 18.8213 15.1871 18.8213 15.1876 18.8213C15.1881 18.8213 15.1886 18.8213 15.1891 18.8213C15.1896 18.8213 15.1901 18.8213 15.1906 18.8213C15.1911 18.8213 15.1915 18.8213 15.192 18.8213C15.1925 18.8213 15.193 18.8213 15.1935 18.8213C15.194 18.8213 15.1944 18.8213 15.1949 18.8213C15.1954 18.8213 15.1959 18.8213 15.1963 18.8213C15.1968 18.8213 15.1973 18.8213 15.1978 18.8213C15.1982 18.8213 15.1987 18.8213 15.1991 18.8213C15.1996 18.8213 15.2001 18.8213 15.2005 18.8213C15.201 18.8213 15.2014 18.8213 15.2019 18.8213C15.2023 18.8213 15.2028 18.8213 15.2032 18.8213C15.2037 18.8213 15.2041 18.8213 15.2046 18.8213C15.205 18.8213 15.2055 18.8213 15.2059 18.8213C15.2063 18.8213 15.2068 18.8213 15.2072 18.8213C15.2076 18.8213 15.2081 18.8213 15.2085 18.8213C15.2089 18.8213 15.2094 18.8213 15.2098 18.8213C15.2102 18.8213 15.2106 18.8213 15.2111 18.8213C15.2115 18.8213 15.2119 18.8213 15.2123 18.8213C15.2127 18.8213 15.2131 18.8213 15.2135 18.8213C15.2139 18.8213 15.2144 18.8213 15.2148 18.8213C15.2152 18.8213 15.2156 18.8213 15.216 18.8213C15.2164 18.8213 15.2168 18.8213 15.2172 18.8213C15.2175 18.8213 15.2179 18.8213 15.2183 18.8213C15.2187 18.8213 15.2191 18.8213 15.2195 18.8213C15.2199 18.8213 15.2203 18.8213 15.2206 18.8213C15.221 18.8213 15.2214 18.8213 15.2218 18.8213C15.2221 18.8213 15.2225 18.8213 15.2229 18.8213C15.2233 18.8213 15.2236 18.8213 15.224 18.8213C15.2244 18.8213 15.2247 18.8213 15.2251 18.8213C15.2254 18.8213 15.2258 18.8213 15.2262 18.8213C15.2265 18.8213 15.2269 18.8213 15.2272 18.8213C15.2276 18.8213 15.2279 18.8213 15.2283 18.8213C15.2286 18.8213 15.229 18.8213 15.2293 18.8213C15.2296 18.8213 15.23 18.8213 15.2303 18.8213C15.2306 18.8213 15.231 18.8213 15.2313 18.8213C15.2316 18.8213 15.232 18.8213 15.2323 18.8213C15.2326 18.8213 15.2329 18.8213 15.2333 18.8213C15.2336 18.8213 15.2339 18.8213 15.2342 18.8213C15.2345 18.8213 15.2348 18.8213 15.2352 18.8213C15.2355 18.8213 15.2358 18.8213 15.2361 18.8213C15.2364 18.8213 15.2367 18.8213 15.237 18.8213C15.2373 18.8213 15.2376 18.8213 15.2379 18.8213C15.2382 18.8213 15.2385 18.8213 15.2388 18.8213C15.2391 18.8213 15.2393 18.8213 15.2396 18.8213C15.2399 18.8213 15.2402 18.8213 15.2405 18.8213C15.2408 18.8213 15.241 18.8213 15.2413 18.8213C15.2416 18.8213 15.2419 18.8213 15.2421 18.8213C15.2424 18.8213 15.2427 18.8213 15.2429 18.8213C15.2432 18.8213 15.2435 18.8213 15.2437 18.8213C15.244 18.8213 15.2442 18.8213 15.2445 18.8213C15.2447 18.8213 15.245 18.8213 15.2452 18.8213C15.2455 18.8213 15.2457 18.8213 15.246 18.8213C15.2462 18.8213 15.2465 18.8213 15.2467 18.8213C15.247 18.8213 15.2472 18.8213 15.2474 18.8213C15.2477 18.8213 15.2479 18.8213 15.2481 18.8213C15.2483 18.8213 15.2486 18.8213 15.2488 18.8213C15.249 18.8213 15.2492 18.8213 15.2495 18.8213C15.2497 18.8213 15.2499 18.8213 15.2501 18.8213C15.2503 18.8213 15.2505 18.8213 15.2507 18.8213C15.251 18.8213 15.2512 18.8213 15.2514 18.8213C15.2516 18.8213 15.2518 18.8213 15.252 18.8213C15.2522 18.8213 15.2524 18.8213 15.2526 18.8213C15.2527 18.8213 15.2529 18.8213 15.2531 18.8213C15.2533 18.8213 15.2535 18.8213 15.2537 18.8213C15.2539 18.8213 15.254 18.8213 15.2542 18.8213C15.2544 18.8213 15.2546 18.8213 15.2547 18.8213C15.2549 18.8213 15.2551 18.8213 15.2553 18.8213C15.2554 18.8213 15.2556 18.8213 15.2557 18.8213C15.2559 18.8213 15.2561 18.8213 15.2562 18.8213C15.2564 18.8213 15.2565 18.8213 15.2567 18.8213C15.2568 18.8213 15.257 18.8213 15.2571 18.8213C15.2573 18.8213 15.2574 18.8213 15.2576 18.8213C15.2577 18.8213 15.2578 18.8213 15.258 18.8213C15.2581 18.8213 15.2582 18.8213 15.2584 18.8213C15.2585 18.8213 15.2586 18.8213 15.2587 18.8213C15.2589 18.8213 15.259 18.8213 15.2591 18.8213C15.2592 18.8213 15.2593 18.8213 15.2595 18.8213C15.2596 18.8213 15.2597 18.8213 15.2598 18.8213C15.2599 18.8213 15.26 18.8213 15.2601 18.8213C15.2602 18.8213 15.2603 18.8213 15.2604 18.8213C15.2605 18.8213 15.2606 18.8213 15.2607 18.8213C15.2608 18.8213 15.2609 18.8213 15.261 18.8213C15.2611 18.8213 15.2611 18.8213 15.2612 18.8213C15.2613 18.8213 15.2614 18.8213 15.2615 18.8213C15.2615 18.8213 15.2616 18.8213 15.2617 18.8213C15.2618 18.8213 15.2618 18.8213 15.2619 18.8213C15.262 18.8213 15.262 18.8213 15.2621 18.8213C15.2621 18.8213 15.2622 18.8213 15.2622 18.8213C15.2623 18.8213 15.2624 18.8213 15.2624 18.8213C15.2625 18.8213 15.2625 18.8213 15.2625 18.8213C15.2626 18.8213 15.2626 18.8213 15.2627 18.8213C15.2627 18.8213 15.2627 18.8213 15.2628 18.8213C15.2628 18.8213 15.2628 18.8213 15.2629 18.8213C15.2629 18.8213 15.2629 18.8213 15.2629 18.8213C15.263 18.8213 15.263 18.8213 15.263 18.8213C15.263 18.8213 15.263 18.8213 15.263 18.8213C15.263 18.8213 15.2631 18.8213 15.2631 18.8213C15.2631 18.8213 15.2631 18.8213 15.2631 17.8213C15.2631 16.8213 15.2631 16.8213 15.2631 16.8213C15.2631 16.8213 15.263 16.8213 15.263 16.8213C15.263 16.8213 15.263 16.8213 15.263 16.8213C15.263 16.8213 15.263 16.8213 15.2629 16.8213C15.2629 16.8213 15.2629 16.8213 15.2629 16.8213C15.2628 16.8213 15.2628 16.8213 15.2628 16.8213C15.2627 16.8213 15.2627 16.8213 15.2627 16.8213C15.2626 16.8213 15.2626 16.8213 15.2625 16.8213C15.2625 16.8213 15.2625 16.8213 15.2624 16.8213C15.2624 16.8213 15.2623 16.8213 15.2622 16.8213C15.2622 16.8213 15.2621 16.8213 15.2621 16.8213C15.262 16.8213 15.262 16.8213 15.2619 16.8213C15.2618 16.8213 15.2618 16.8213 15.2617 16.8213C15.2616 16.8213 15.2615 16.8213 15.2615 16.8213C15.2614 16.8213 15.2613 16.8213 15.2612 16.8213C15.2611 16.8213 15.2611 16.8213 15.261 16.8213C15.2609 16.8213 15.2608 16.8213 15.2607 16.8213C15.2606 16.8213 15.2605 16.8213 15.2604 16.8213C15.2603 16.8213 15.2602 16.8213 15.2601 16.8213C15.26 16.8213 15.2599 16.8213 15.2598 16.8213C15.2597 16.8213 15.2596 16.8213 15.2595 16.8213C15.2593 16.8213 15.2592 16.8213 15.2591 16.8213C15.259 16.8213 15.2589 16.8213 15.2587 16.8213C15.2586 16.8213 15.2585 16.8213 15.2584 16.8213C15.2582 16.8213 15.2581 16.8213 15.258 16.8213C15.2578 16.8213 15.2577 16.8213 15.2576 16.8213C15.2574 16.8213 15.2573 16.8213 15.2571 16.8213C15.257 16.8213 15.2568 16.8213 15.2567 16.8213C15.2565 16.8213 15.2564 16.8213 15.2562 16.8213C15.2561 16.8213 15.2559 16.8213 15.2557 16.8213C15.2556 16.8213 15.2554 16.8213 15.2553 16.8213C15.2551 16.8213 15.2549 16.8213 15.2547 16.8213C15.2546 16.8213 15.2544 16.8213 15.2542 16.8213C15.254 16.8213 15.2539 16.8213 15.2537 16.8213C15.2535 16.8213 15.2533 16.8213 15.2531 16.8213C15.2529 16.8213 15.2527 16.8213 15.2526 16.8213C15.2524 16.8213 15.2522 16.8213 15.252 16.8213C15.2518 16.8213 15.2516 16.8213 15.2514 16.8213C15.2512 16.8213 15.251 16.8213 15.2507 16.8213C15.2505 16.8213 15.2503 16.8213 15.2501 16.8213C15.2499 16.8213 15.2497 16.8213 15.2495 16.8213C15.2492 16.8213 15.249 16.8213 15.2488 16.8213C15.2486 16.8213 15.2483 16.8213 15.2481 16.8213C15.2479 16.8213 15.2477 16.8213 15.2474 16.8213C15.2472 16.8213 15.247 16.8213 15.2467 16.8213C15.2465 16.8213 15.2462 16.8213 15.246 16.8213C15.2457 16.8213 15.2455 16.8213 15.2452 16.8213C15.245 16.8213 15.2447 16.8213 15.2445 16.8213C15.2442 16.8213 15.244 16.8213 15.2437 16.8213C15.2435 16.8213 15.2432 16.8213 15.2429 16.8213C15.2427 16.8213 15.2424 16.8213 15.2421 16.8213C15.2419 16.8213 15.2416 16.8213 15.2413 16.8213C15.241 16.8213 15.2408 16.8213 15.2405 16.8213C15.2402 16.8213 15.2399 16.8213 15.2396 16.8213C15.2393 16.8213 15.2391 16.8213 15.2388 16.8213C15.2385 16.8213 15.2382 16.8213 15.2379 16.8213C15.2376 16.8213 15.2373 16.8213 15.237 16.8213C15.2367 16.8213 15.2364 16.8213 15.2361 16.8213C15.2358 16.8213 15.2355 16.8213 15.2352 16.8213C15.2348 16.8213 15.2345 16.8213 15.2342 16.8213C15.2339 16.8213 15.2336 16.8213 15.2333 16.8213C15.2329 16.8213 15.2326 16.8213 15.2323 16.8213C15.232 16.8213 15.2316 16.8213 15.2313 16.8213C15.231 16.8213 15.2306 16.8213 15.2303 16.8213C15.23 16.8213 15.2296 16.8213 15.2293 16.8213C15.229 16.8213 15.2286 16.8213 15.2283 16.8213C15.2279 16.8213 15.2276 16.8213 15.2272 16.8213C15.2269 16.8213 15.2265 16.8213 15.2262 16.8213C15.2258 16.8213 15.2254 16.8213 15.2251 16.8213C15.2247 16.8213 15.2244 16.8213 15.224 16.8213C15.2236 16.8213 15.2233 16.8213 15.2229 16.8213C15.2225 16.8213 15.2221 16.8213 15.2218 16.8213C15.2214 16.8213 15.221 16.8213 15.2206 16.8213C15.2203 16.8213 15.2199 16.8213 15.2195 16.8213C15.2191 16.8213 15.2187 16.8213 15.2183 16.8213C15.2179 16.8213 15.2175 16.8213 15.2172 16.8213C15.2168 16.8213 15.2164 16.8213 15.216 16.8213C15.2156 16.8213 15.2152 16.8213 15.2148 16.8213C15.2144 16.8213 15.2139 16.8213 15.2135 16.8213C15.2131 16.8213 15.2127 16.8213 15.2123 16.8213C15.2119 16.8213 15.2115 16.8213 15.2111 16.8213C15.2106 16.8213 15.2102 16.8213 15.2098 16.8213C15.2094 16.8213 15.2089 16.8213 15.2085 16.8213C15.2081 16.8213 15.2076 16.8213 15.2072 16.8213C15.2068 16.8213 15.2063 16.8213 15.2059 16.8213C15.2055 16.8213 15.205 16.8213 15.2046 16.8213C15.2041 16.8213 15.2037 16.8213 15.2032 16.8213C15.2028 16.8213 15.2023 16.8213 15.2019 16.8213C15.2014 16.8213 15.201 16.8213 15.2005 16.8213C15.2001 16.8213 15.1996 16.8213 15.1991 16.8213C15.1987 16.8213 15.1982 16.8213 15.1978 16.8213C15.1973 16.8213 15.1968 16.8213 15.1963 16.8213C15.1959 16.8213 15.1954 16.8213 15.1949 16.8213C15.1944 16.8213 15.194 16.8213 15.1935 16.8213C15.193 16.8213 15.1925 16.8213 15.192 16.8213C15.1915 16.8213 15.1911 16.8213 15.1906 16.8213C15.1901 16.8213 15.1896 16.8213 15.1891 16.8213C15.1886 16.8213 15.1881 16.8213 15.1876 16.8213C15.1871 16.8213 15.1866 16.8213 15.1861 16.8213C15.1856 16.8213 15.1851 16.8213 15.1846 16.8213C15.1841 16.8213 15.1835 16.8213 15.183 16.8213C15.1825 16.8213 15.182 16.8213 15.1815 16.8213C15.181 16.8213 15.1804 16.8213 15.1799 16.8213C15.1794 16.8213 15.1789 16.8213 15.1783 16.8213C15.1778 16.8213 15.1773 16.8213 15.1767 16.8213C15.1762 16.8213 15.1757 16.8213 15.1751 16.8213C15.1746 16.8213 15.1741 16.8213 15.1735 16.8213C15.173 16.8213 15.1724 16.8213 15.1719 16.8213C15.1713 16.8213 15.1708 16.8213 15.1702 16.8213C15.1697 16.8213 15.1691 16.8213 15.1686 16.8213C15.168 16.8213 15.1675 16.8213 15.1669 16.8213C15.1663 16.8213 15.1658 16.8213 15.1652 16.8213C15.1647 16.8213 15.1641 16.8213 15.1635 16.8213C15.1629 16.8213 15.1624 16.8213 15.1618 16.8213C15.1612 16.8213 15.1606 16.8213 15.1601 16.8213C15.1595 16.8213 15.1589 16.8213 15.1583 16.8213C15.1577 16.8213 15.1572 16.8213 15.1566 16.8213C15.156 16.8213 15.1554 16.8213 15.1548 16.8213C15.1542 16.8213 15.1536 16.8213 15.153 16.8213C15.1524 16.8213 15.1518 16.8213 15.1512 16.8213C15.1506 16.8213 15.15 16.8213 15.1494 16.8213C15.1488 16.8213 15.1482 16.8213 15.1476 16.8213C15.147 16.8213 15.1464 16.8213 15.1457 16.8213C15.1451 16.8213 15.1445 16.8213 15.1439 16.8213C15.1433 16.8213 15.1426 16.8213 15.142 16.8213C15.1414 16.8213 15.1408 16.8213 15.1401 16.8213C15.1395 16.8213 15.1389 16.8213 15.1382 16.8213C15.1376 16.8213 15.137 16.8213 15.1363 16.8213C15.1357 16.8213 15.1351 16.8213 15.1344 16.8213C15.1338 16.8213 15.1331 16.8213 15.1325 16.8213C15.1318 16.8213 15.1312 16.8213 15.1305 16.8213C15.1299 16.8213 15.1292 16.8213 15.1286 16.8213C15.1279 16.8213 15.1273 16.8213 15.1266 16.8213C15.126 16.8213 15.1253 16.8213 15.1246 16.8213C15.124 16.8213 15.1233 16.8213 15.1226 16.8213C15.122 16.8213 15.1213 16.8213 15.1206 16.8213C15.1199 16.8213 15.1193 16.8213 15.1186 16.8213C15.1179 16.8213 15.1172 16.8213 15.1166 16.8213C15.1159 16.8213 15.1152 16.8213 15.1145 16.8213C15.1138 16.8213 15.1131 16.8213 15.1124 16.8213C15.1117 16.8213 15.1111 16.8213 15.1104 16.8213C15.1097 16.8213 15.109 16.8213 15.1083 16.8213C15.1076 16.8213 15.1069 16.8213 15.1062 16.8213C15.1055 16.8213 15.1048 16.8213 15.104 16.8213C15.1033 16.8213 15.1026 16.8213 15.1019 16.8213C15.1012 16.8213 15.1005 16.8213 15.0998 16.8213C15.0991 16.8213 15.0983 16.8213 15.0976 16.8213C15.0969 16.8213 15.0962 16.8213 15.0955 16.8213C15.0947 16.8213 15.094 16.8213 15.0933 16.8213C15.0925 16.8213 15.0918 16.8213 15.0911 16.8213C15.0903 16.8213 15.0896 16.8213 15.0889 16.8213C15.0881 16.8213 15.0874 16.8213 15.0867 16.8213C15.0859 16.8213 15.0852 16.8213 15.0844 16.8213C15.0837 16.8213 15.0829 16.8213 15.0822 16.8213C15.0814 16.8213 15.0807 16.8213 15.0799 16.8213C15.0792 16.8213 15.0784 16.8213 15.0776 16.8213C15.0769 16.8213 15.0761 16.8213 15.0754 16.8213C15.0746 16.8213 15.0738 16.8213 15.0731 16.8213C15.0723 16.8213 15.0715 16.8213 15.0708 16.8213C15.07 16.8213 15.0692 16.8213 15.0684 16.8213C15.0677 16.8213 15.0669 16.8213 15.0661 16.8213C15.0653 16.8213 15.0645 16.8213 15.0638 16.8213C15.063 16.8213 15.0622 16.8213 15.0614 16.8213C15.0606 16.8213 15.0598 16.8213 15.059 16.8213C15.0582 16.8213 15.0574 16.8213 15.0566 16.8213C15.0558 16.8213 15.055 16.8213 15.0542 16.8213C15.0534 16.8213 15.0526 16.8213 15.0518 16.8213C15.051 16.8213 15.0502 16.8213 15.0494 16.8213C15.0486 16.8213 15.0478 16.8213 15.047 16.8213C15.0462 16.8213 15.0454 16.8213 15.0445 16.8213C15.0437 16.8213 15.0429 16.8213 15.0421 16.8213C15.0413 16.8213 15.0404 16.8213 15.0396 16.8213C15.0388 16.8213 15.038 16.8213 15.0371 16.8213C15.0363 16.8213 15.0355 16.8213 15.0346 16.8213C15.0338 16.8213 15.033 16.8213 15.0321 16.8213C15.0313 16.8213 15.0304 16.8213 15.0296 16.8213C15.0288 16.8213 15.0279 16.8213 15.0271 16.8213C15.0262 16.8213 15.0254 16.8213 15.0245 16.8213C15.0237 16.8213 15.0228 16.8213 15.022 16.8213C15.0211 16.8213 15.0203 16.8213 15.0194 16.8213C15.0186 16.8213 15.0177 16.8213 15.0168 16.8213C15.016 16.8213 15.0151 16.8213 15.0142 16.8213C15.0134 16.8213 15.0125 16.8213 15.0116 16.8213C15.0108 16.8213 15.0099 16.8213 15.009 16.8213C15.0081 16.8213 15.0073 16.8213 15.0064 16.8213C15.0055 16.8213 15.0046 16.8213 15.0038 16.8213C15.0029 16.8213 15.002 16.8213 15.0011 16.8213C15.0002 16.8213 14.9993 16.8213 14.9984 16.8213C14.9975 16.8213 14.9967 16.8213 14.9958 16.8213C14.9949 16.8213 14.994 16.8213 14.9931 16.8213C14.9922 16.8213 14.9913 16.8213 14.9904 16.8213C14.9895 16.8213 14.9886 16.8213 14.9877 16.8213C14.9868 16.8213 14.9858 16.8213 14.9849 16.8213C14.984 16.8213 14.9831 16.8213 14.9822 16.8213C14.9813 16.8213 14.9804 16.8213 14.9795 16.8213C14.9785 16.8213 14.9776 16.8213 14.9767 16.8213C14.9758 16.8213 14.9749 16.8213 14.9739 16.8213C14.973 16.8213 14.9721 16.8213 14.9712 16.8213C14.9702 16.8213 14.9693 16.8213 14.9684 16.8213C14.9674 16.8213 14.9665 16.8213 14.9656 16.8213C14.9646 16.8213 14.9637 16.8213 14.9627 16.8213C14.9618 16.8213 14.9609 16.8213 14.9599 16.8213C14.959 16.8213 14.958 16.8213 14.9571 16.8213C14.9561 16.8213 14.9552 16.8213 14.9542 16.8213C14.9533 16.8213 14.9523 16.8213 14.9514 16.8213C14.9504 16.8213 14.9494 16.8213 14.9485 16.8213C14.9475 16.8213 14.9466 16.8213 14.9456 16.8213C14.9446 16.8213 14.9437 16.8213 14.9427 16.8213C14.9417 16.8213 14.9408 16.8213 14.9398 16.8213C14.9388 16.8213 14.9379 16.8213 14.9369 16.8213C14.9359 16.8213 14.9349 16.8213 14.9339 16.8213C14.933 16.8213 14.932 16.8213 14.931 16.8213C14.93 16.8213 14.929 16.8213 14.9281 16.8213C14.9271 16.8213 14.9261 16.8213 14.9251 16.8213C14.9241 16.8213 14.9231 16.8213 14.9221 16.8213C14.9211 16.8213 14.9201 16.8213 14.9191 16.8213C14.9181 16.8213 14.9171 16.8213 14.9161 16.8213C14.9151 16.8213 14.9141 16.8213 14.9131 16.8213C14.9121 16.8213 14.9111 16.8213 14.9101 16.8213C14.9091 16.8213 14.9081 16.8213 14.9071 16.8213C14.9061 16.8213 14.905 16.8213 14.904 16.8213C14.903 16.8213 14.902 16.8213 14.901 16.8213C14.9 16.8213 14.8989 16.8213 14.8979 16.8213C14.8969 16.8213 14.8959 16.8213 14.8948 16.8213C14.8938 16.8213 14.8928 16.8213 14.8917 16.8213C14.8907 16.8213 14.8897 16.8213 14.8886 16.8213C14.8876 16.8213 14.8866 16.8213 14.8855 16.8213C14.8845 16.8213 14.8835 16.8213 14.8824 16.8213C14.8814 16.8213 14.8803 16.8213 14.8793 16.8213C14.8782 16.8213 14.8772 16.8213 14.8761 16.8213C14.8751 16.8213 14.874 16.8213 14.873 16.8213C14.8719 16.8213 14.8709 16.8213 14.8698 16.8213C14.8688 16.8213 14.8677 16.8213 14.8667 16.8213C14.8656 16.8213 14.8645 16.8213 14.8635 16.8213C14.8624 16.8213 14.8613 16.8213 14.8603 16.8213C14.8592 16.8213 14.8581 16.8213 14.8571 16.8213C14.856 16.8213 14.8549 16.8213 14.8539 16.8213C14.8528 16.8213 14.8517 16.8213 14.8506 16.8213C14.8496 16.8213 14.8485 16.8213 14.8474 16.8213C14.8463 16.8213 14.8452 16.8213 14.8441 16.8213C14.8431 16.8213 14.842 16.8213 14.8409 16.8213C14.8398 16.8213 14.8387 16.8213 14.8376 16.8213C14.8365 16.8213 14.8354 16.8213 14.8343 16.8213C14.8332 16.8213 14.8321 16.8213 14.831 16.8213C14.8299 16.8213 14.8288 16.8213 14.8277 16.8213C14.8266 16.8213 14.8255 16.8213 14.8244 16.8213C14.8233 16.8213 14.8222 16.8213 14.8211 16.8213C14.82 16.8213 14.8189 16.8213 14.8178 16.8213C14.8167 16.8213 14.8156 16.8213 14.8144 16.8213C14.8133 16.8213 14.8122 16.8213 14.8111 16.8213C14.81 16.8213 14.8088 16.8213 14.8077 16.8213C14.8066 16.8213 14.8055 16.8213 14.8043 16.8213C14.8032 16.8213 14.8021 16.8213 14.801 16.8213C14.7998 16.8213 14.7987 16.8213 14.7976 16.8213C14.7964 16.8213 14.7953 16.8213 14.7942 16.8213C14.793 16.8213 14.7919 16.8213 14.7908 16.8213C14.7896 16.8213 14.7885 16.8213 14.7873 16.8213C14.7862 16.8213 14.785 16.8213 14.7839 16.8213C14.7827 16.8213 14.7816 16.8213 14.7804 16.8213C14.7793 16.8213 14.7781 16.8213 14.777 16.8213C14.7758 16.8213 14.7747 16.8213 14.7735 16.8213C14.7724 16.8213 14.7712 16.8213 14.77 16.8213C14.7689 16.8213 14.7677 16.8213 14.7666 16.8213C14.7654 16.8213 14.7642 16.8213 14.7631 16.8213C14.7619 16.8213 14.7607 16.8213 14.7596 16.8213C14.7584 16.8213 14.7572 16.8213 14.756 16.8213C14.7549 16.8213 14.7537 16.8213 14.7525 16.8213C14.7513 16.8213 14.7502 16.8213 14.749 16.8213C14.7478 16.8213 14.7466 16.8213 14.7454 16.8213C14.7443 16.8213 14.7431 16.8213 14.7419 16.8213C14.7407 16.8213 14.7395 16.8213 14.7383 16.8213C14.7371 16.8213 14.7359 16.8213 14.7347 16.8213C14.7336 16.8213 14.7324 16.8213 14.7312 16.8213C14.73 16.8213 14.7288 16.8213 14.7276 16.8213C14.7264 16.8213 14.7252 16.8213 14.724 16.8213C14.7228 16.8213 14.7216 16.8213 14.7203 16.8213C14.7191 16.8213 14.7179 16.8213 14.7167 16.8213C14.7155 16.8213 14.7143 16.8213 14.7131 16.8213C14.7119 16.8213 14.7107 16.8213 14.7094 16.8213C14.7082 16.8213 14.707 16.8213 14.7058 16.8213C14.7046 16.8213 14.7034 16.8213 14.7021 16.8213C14.7009 16.8213 14.6997 16.8213 14.6985 16.8213C14.6972 16.8213 14.696 16.8213 14.6948 16.8213C14.6936 16.8213 14.6923 16.8213 14.6911 16.8213C14.6899 16.8213 14.6886 16.8213 14.6874 16.8213C14.6862 16.8213 14.6849 16.8213 14.6837 16.8213C14.6824 16.8213 14.6812 16.8213 14.68 16.8213C14.6787 16.8213 14.6775 16.8213 14.6762 16.8213C14.675 16.8213 14.6737 16.8213 14.6725 16.8213C14.6712 16.8213 14.67 16.8213 14.6687 16.8213C14.6675 16.8213 14.6662 16.8213 14.665 16.8213C14.6637 16.8213 14.6625 16.8213 14.6612 16.8213C14.66 16.8213 14.6587 16.8213 14.6575 16.8213C14.6562 16.8213 14.6549 16.8213 14.6537 16.8213C14.6524 16.8213 14.6511 16.8213 14.6499 16.8213C14.6486 16.8213 14.6473 16.8213 14.6461 16.8213C14.6448 16.8213 14.6435 16.8213 14.6423 16.8213C14.641 16.8213 14.6397 16.8213 14.6384 16.8213C14.6372 16.8213 14.6359 16.8213 14.6346 16.8213C14.6333 16.8213 14.632 16.8213 14.6308 16.8213C14.6295 16.8213 14.6282 16.8213 14.6269 16.8213C14.6256 16.8213 14.6243 16.8213 14.6231 16.8213C14.6218 16.8213 14.6205 16.8213 14.6192 16.8213C14.6179 16.8213 14.6166 16.8213 14.6153 16.8213C14.614 16.8213 14.6127 16.8213 14.6114 16.8213C14.6101 16.8213 14.6088 16.8213 14.6075 16.8213C14.6062 16.8213 14.6049 16.8213 14.6036 16.8213C14.6023 16.8213 14.601 16.8213 14.5997 16.8213C14.5984 16.8213 14.5971 16.8213 14.5958 16.8213C14.5945 16.8213 14.5932 16.8213 14.5919 16.8213C14.5906 16.8213 14.5892 16.8213 14.5879 16.8213C14.5866 16.8213 14.5853 16.8213 14.584 16.8213C14.5827 16.8213 14.5813 16.8213 14.58 16.8213C14.5787 16.8213 14.5774 16.8213 14.5761 16.8213C14.5747 16.8213 14.5734 16.8213 14.5721 16.8213C14.5708 16.8213 14.5694 16.8213 14.5681 16.8213C14.5668 16.8213 14.5654 16.8213 14.5641 16.8213C14.5628 16.8213 14.5615 16.8213 14.5601 16.8213C14.5588 16.8213 14.5574 16.8213 14.5561 16.8213C14.5548 16.8213 14.5534 16.8213 14.5521 16.8213C14.5508 16.8213 14.5494 16.8213 14.5481 16.8213C14.5467 16.8213 14.5454 16.8213 14.544 16.8213C14.5427 16.8213 14.5413 16.8213 14.54 16.8213C14.5386 16.8213 14.5373 16.8213 14.5359 16.8213C14.5346 16.8213 14.5332 16.8213 14.5319 16.8213C14.5305 16.8213 14.5292 16.8213 14.5278 16.8213C14.5265 16.8213 14.5251 16.8213 14.5237 16.8213C14.5224 16.8213 14.521 16.8213 14.5196 16.8213C14.5183 16.8213 14.5169 16.8213 14.5156 16.8213C14.5142 16.8213 14.5128 16.8213 14.5115 16.8213C14.5101 16.8213 14.5087 16.8213 14.5073 16.8213C14.506 16.8213 14.5046 16.8213 14.5032 16.8213C14.5018 16.8213 14.5005 16.8213 14.4991 16.8213C14.4977 16.8213 14.4963 16.8213 14.495 16.8213C14.4936 16.8213 14.4922 16.8213 14.4908 16.8213C14.4894 16.8213 14.488 16.8213 14.4867 16.8213C14.4853 16.8213 14.4839 16.8213 14.4825 16.8213C14.4811 16.8213 14.4797 16.8213 14.4783 16.8213C14.4769 16.8213 14.4756 16.8213 14.4742 16.8213C14.4728 16.8213 14.4714 16.8213 14.47 16.8213C14.4686 16.8213 14.4672 16.8213 14.4658 16.8213C14.4644 16.8213 14.463 16.8213 14.4616 16.8213C14.4602 16.8213 14.4588 16.8213 14.4574 16.8213C14.456 16.8213 14.4546 16.8213 14.4532 16.8213C14.4517 16.8213 14.4503 16.8213 14.4489 16.8213C14.4475 16.8213 14.4461 16.8213 14.4447 16.8213C14.4433 16.8213 14.4419 16.8213 14.4405 16.8213C14.439 16.8213 14.4376 16.8213 14.4362 16.8213C14.4348 16.8213 14.4334 16.8213 14.4319 16.8213C14.4305 16.8213 14.4291 16.8213 14.4277 16.8213C14.4263 16.8213 14.4248 16.8213 14.4234 16.8213C14.422 16.8213 14.4206 16.8213 14.4191 16.8213C14.4177 16.8213 14.4163 16.8213 14.4148 16.8213C14.4134 16.8213 14.412 16.8213 14.4105 16.8213C14.4091 16.8213 14.4077 16.8213 14.4062 16.8213C14.4048 16.8213 14.4034 16.8213 14.4019 16.8213C14.4005 16.8213 14.3991 16.8213 14.3976 16.8213C14.3962 16.8213 14.3947 16.8213 14.3933 16.8213C14.3918 16.8213 14.3904 16.8213 14.389 16.8213C14.3875 16.8213 14.3861 16.8213 14.3846 16.8213C14.3832 16.8213 14.3817 16.8213 14.3803 16.8213C14.3788 16.8213 14.3774 16.8213 14.3759 16.8213C14.3744 16.8213 14.373 16.8213 14.3715 16.8213C14.3701 16.8213 14.3686 16.8213 14.3672 16.8213C14.3657 16.8213 14.3642 16.8213 14.3628 16.8213C14.3613 16.8213 14.3599 16.8213 14.3584 16.8213C14.3569 16.8213 14.3555 16.8213 14.354 16.8213C14.3525 16.8213 14.3511 16.8213 14.3496 16.8213C14.3481 16.8213 14.3467 16.8213 14.3452 16.8213C14.3437 16.8213 14.3422 16.8213 14.3408 16.8213C14.3393 16.8213 14.3378 16.8213 14.3363 16.8213C14.3349 16.8213 14.3334 16.8213 14.3319 16.8213C14.3304 16.8213 14.329 16.8213 14.3275 16.8213C14.326 16.8213 14.3245 16.8213 14.323 16.8213C14.3215 16.8213 14.3201 16.8213 14.3186 16.8213C14.3171 16.8213 14.3156 16.8213 14.3141 16.8213C14.3126 16.8213 14.3111 16.8213 14.3096 16.8213C14.3082 16.8213 14.3067 16.8213 14.3052 16.8213C14.3037 16.8213 14.3022 16.8213 14.3007 16.8213C14.2992 16.8213 14.2977 16.8213 14.2962 16.8213C14.2947 16.8213 14.2932 16.8213 14.2917 16.8213C14.2902 16.8213 14.2887 16.8213 14.2872 16.8213C14.2857 16.8213 14.2842 16.8213 14.2827 16.8213C14.2812 16.8213 14.2797 16.8213 14.2782 16.8213C14.2767 16.8213 14.2752 16.8213 14.2736 16.8213C14.2721 16.8213 14.2706 16.8213 14.2691 16.8213C14.2676 16.8213 14.2661 16.8213 14.2646 16.8213C14.2631 16.8213 14.2615 16.8213 14.26 16.8213C14.2585 16.8213 14.257 16.8213 14.2555 16.8213C14.254 16.8213 14.2524 16.8213 14.2509 16.8213C14.2494 16.8213 14.2479 16.8213 14.2463 16.8213C14.2448 16.8213 14.2433 16.8213 14.2418 16.8213C14.2402 16.8213 14.2387 16.8213 14.2372 16.8213C14.2357 16.8213 14.2341 16.8213 14.2326 16.8213C14.2311 16.8213 14.2295 16.8213 14.228 16.8213C14.2265 16.8213 14.2249 16.8213 14.2234 16.8213C14.2219 16.8213 14.2203 16.8213 14.2188 16.8213C14.2173 16.8213 14.2157 16.8213 14.2142 16.8213C14.2126 16.8213 14.2111 16.8213 14.2096 16.8213C14.208 16.8213 14.2065 16.8213 14.2049 16.8213C14.2034 16.8213 14.2018 16.8213 14.2003 16.8213C14.1988 16.8213 14.1972 16.8213 14.1957 16.8213C14.1941 16.8213 14.1926 16.8213 14.191 16.8213C14.1895 16.8213 14.1879 16.8213 14.1864 16.8213C14.1848 16.8213 14.1833 16.8213 14.1817 16.8213C14.1801 16.8213 14.1786 16.8213 14.177 16.8213C14.1755 16.8213 14.1739 16.8213 14.1724 16.8213C14.1708 16.8213 14.1692 16.8213 14.1677 16.8213C14.1661 16.8213 14.1646 16.8213 14.163 16.8213C14.1614 16.8213 14.1599 16.8213 14.1583 16.8213C14.1567 16.8213 14.1552 16.8213 14.1536 16.8213C14.152 16.8213 14.1505 16.8213 14.1489 16.8213C14.1473 16.8213 14.1458 16.8213 14.1442 16.8213C14.1426 16.8213 14.141 16.8213 14.1395 16.8213C14.1379 16.8213 14.1363 16.8213 14.1347 16.8213C14.1332 16.8213 14.1316 16.8213 14.13 16.8213C14.1284 16.8213 14.1269 16.8213 14.1253 16.8213C14.1237 16.8213 14.1221 16.8213 14.1205 16.8213C14.1189 16.8213 14.1174 16.8213 14.1158 16.8213C14.1142 16.8213 14.1126 16.8213 14.111 16.8213C14.1094 16.8213 14.1079 16.8213 14.1063 16.8213C14.1047 16.8213 14.1031 16.8213 14.1015 16.8213C14.0999 16.8213 14.0983 16.8213 14.0967 16.8213C14.0951 16.8213 14.0935 16.8213 14.0919 16.8213C14.0903 16.8213 14.0888 16.8213 14.0872 16.8213C14.0856 16.8213 14.084 16.8213 14.0824 16.8213C14.0808 16.8213 14.0792 16.8213 14.0776 16.8213C14.076 16.8213 14.0744 16.8213 14.0728 16.8213C14.0712 16.8213 14.0696 16.8213 14.068 16.8213C14.0663 16.8213 14.0647 16.8213 14.0631 16.8213C14.0615 16.8213 14.0599 16.8213 14.0583 16.8213C14.0567 16.8213 14.0551 16.8213 14.0535 16.8213C14.0519 16.8213 14.0503 16.8213 14.0487 16.8213C14.047 16.8213 14.0454 16.8213 14.0438 16.8213C14.0422 16.8213 14.0406 16.8213 14.039 16.8213C14.0374 16.8213 14.0357 16.8213 14.0341 16.8213C14.0325 16.8213 14.0309 16.8213 14.0293 16.8213C14.0276 16.8213 14.026 16.8213 14.0244 16.8213C14.0228 16.8213 14.0212 16.8213 14.0195 16.8213C14.0179 16.8213 14.0163 16.8213 14.0147 16.8213C14.013 16.8213 14.0114 16.8213 14.0098 16.8213C14.0082 16.8213 14.0065 16.8213 14.0049 16.8213C14.0033 16.8213 14.0016 16.8213 14 16.8213C13.9984 16.8213 13.9967 16.8213 13.9951 16.8213C13.9935 16.8213 13.9918 16.8213 13.9902 16.8213C13.9886 16.8213 13.9869 16.8213 13.9853 16.8213C13.9837 16.8213 13.982 16.8213 13.9804 16.8213C13.9787 16.8213 13.9771 16.8213 13.9755 16.8213C13.9738 16.8213 13.9722 16.8213 13.9705 16.8213C13.9689 16.8213 13.9673 16.8213 13.9656 16.8213C13.964 16.8213 13.9623 16.8213 13.9607 16.8213C13.959 16.8213 13.9574 16.8213 13.9557 16.8213C13.9541 16.8213 13.9524 16.8213 13.9508 16.8213C13.9491 16.8213 13.9475 16.8213 13.9458 16.8213C13.9442 16.8213 13.9425 16.8213 13.9409 16.8213C13.9392 16.8213 13.9376 16.8213 13.9359 16.8213C13.9343 16.8213 13.9326 16.8213 13.931 16.8213C13.9293 16.8213 13.9277 16.8213 13.926 16.8213C13.9243 16.8213 13.9227 16.8213 13.921 16.8213C13.9194 16.8213 13.9177 16.8213 13.916 16.8213C13.9144 16.8213 13.9127 16.8213 13.911 16.8213C13.9094 16.8213 13.9077 16.8213 13.9061 16.8213C13.9044 16.8213 13.9027 16.8213 13.9011 16.8213C13.8994 16.8213 13.8977 16.8213 13.8961 16.8213C13.8944 16.8213 13.8927 16.8213 13.891 16.8213C13.8894 16.8213 13.8877 16.8213 13.886 16.8213C13.8844 16.8213 13.8827 16.8213 13.881 16.8213C13.8793 16.8213 13.8777 16.8213 13.876 16.8213C13.8743 16.8213 13.8726 16.8213 13.871 16.8213C13.8693 16.8213 13.8676 16.8213 13.8659 16.8213C13.8643 16.8213 13.8626 16.8213 13.8609 16.8213C13.8592 16.8213 13.8575 16.8213 13.8559 16.8213C13.8542 16.8213 13.8525 16.8213 13.8508 16.8213C13.8491 16.8213 13.8474 16.8213 13.8458 16.8213C13.8441 16.8213 13.8424 16.8213 13.8407 16.8213C13.839 16.8213 13.8373 16.8213 13.8356 16.8213C13.834 16.8213 13.8323 16.8213 13.8306 16.8213C13.8289 16.8213 13.8272 16.8213 13.8255 16.8213C13.8238 16.8213 13.8221 16.8213 13.8204 16.8213C13.8187 16.8213 13.817 16.8213 13.8154 16.8213C13.8137 16.8213 13.812 16.8213 13.8103 16.8213C13.8086 16.8213 13.8069 16.8213 13.8052 16.8213C13.8035 16.8213 13.8018 16.8213 13.8001 16.8213C13.7984 16.8213 13.7967 16.8213 13.795 16.8213C13.7933 16.8213 13.7916 16.8213 13.7899 16.8213C13.7882 16.8213 13.7865 16.8213 13.7848 16.8213C13.7831 16.8213 13.7814 16.8213 13.7797 16.8213C13.778 16.8213 13.7763 16.8213 13.7745 16.8213C13.7728 16.8213 13.7711 16.8213 13.7694 16.8213C13.7677 16.8213 13.766 16.8213 13.7643 16.8213C13.7626 16.8213 13.7609 16.8213 13.7592 16.8213C13.7575 16.8213 13.7557 16.8213 13.754 16.8213C13.7523 16.8213 13.7506 16.8213 13.7489 16.8213C13.7472 16.8213 13.7455 16.8213 13.7438 16.8213C13.742 16.8213 13.7403 16.8213 13.7386 16.8213C13.7369 16.8213 13.7352 16.8213 13.7335 16.8213C13.7317 16.8213 13.73 16.8213 13.7283 16.8213C13.7266 16.8213 13.7249 16.8213 13.7231 16.8213C13.7214 16.8213 13.7197 16.8213 13.718 16.8213C13.7163 16.8213 13.7145 16.8213 13.7128 16.8213C13.7111 16.8213 13.7094 16.8213 13.7076 16.8213C13.7059 16.8213 13.7042 16.8213 13.7025 16.8213C13.7007 16.8213 13.699 16.8213 13.6973 16.8213C13.6956 16.8213 13.6938 16.8213 13.6921 16.8213C13.6904 16.8213 13.6886 16.8213 13.6869 16.8213C13.6852 16.8213 13.6834 16.8213 13.6817 16.8213C13.68 16.8213 13.6783 16.8213 13.6765 16.8213C13.6748 16.8213 13.6731 16.8213 13.6713 16.8213C13.6696 16.8213 13.6678 16.8213 13.6661 16.8213C13.6644 16.8213 13.6626 16.8213 13.6609 16.8213C13.6592 16.8213 13.6574 16.8213 13.6557 16.8213C13.654 16.8213 13.6522 16.8213 13.6505 16.8213V18.8213ZM14.2631 17.8213V24.25H16.2631V17.8213H14.2631ZM15.2631 24.25C15.2921 25.2496 15.2921 25.2496 15.2921 25.2496C15.2921 25.2496 15.292 25.2496 15.292 25.2496C15.292 25.2496 15.292 25.2496 15.292 25.2496C15.292 25.2496 15.292 25.2496 15.2921 25.2496C15.2922 25.2496 15.2924 25.2496 15.2928 25.2496C15.2937 25.2495 15.295 25.2495 15.297 25.2494C15.3008 25.2493 15.3069 25.2492 15.3151 25.249C15.3315 25.2486 15.3563 25.248 15.3887 25.2473C15.4535 25.246 15.5483 25.2445 15.6663 25.2434C15.9027 25.2413 16.2298 25.2413 16.5927 25.2497L16.6391 23.2503C16.2496 23.2412 15.9003 23.2412 15.6484 23.2435C15.5222 23.2446 15.4199 23.2463 15.3486 23.2477C15.3129 23.2485 15.2849 23.2491 15.2656 23.2496C15.2559 23.2498 15.2483 23.25 15.243 23.2502C15.2404 23.2502 15.2383 23.2503 15.2368 23.2503C15.236 23.2504 15.2354 23.2504 15.235 23.2504C15.2347 23.2504 15.2345 23.2504 15.2344 23.2504C15.2343 23.2504 15.2342 23.2504 15.2342 23.2504C15.2341 23.2504 15.2341 23.2504 15.2341 23.2504C15.234 23.2504 15.234 23.2504 15.2631 24.25ZM16.6159 25.25H19.65V23.25H16.6159V25.25ZM19.65 25.25C21.0389 25.25 22.1114 24.6709 22.7973 23.6903C23.4475 22.7609 23.6875 21.5647 23.6875 20.3821H21.6875C21.6875 21.3356 21.4877 22.0734 21.1585 22.5439C20.8652 22.9632 20.4189 23.25 19.65 23.25V25.25ZM23.6875 20.3821V10.5676H21.6875V20.3821H23.6875ZM23.6874 10.5539C23.6716 9.40435 23.1264 8.32815 22.2122 7.62992L20.9983 9.2194C21.4284 9.54788 21.6803 10.05 21.6876 10.5813L23.6874 10.5539ZM22.2287 7.64284L14.8259 1.73914L13.5789 3.30279L20.9817 9.20648L22.2287 7.64284ZM14.8236 1.73729C13.1628 0.420905 10.8047 0.420905 9.14393 1.73729L10.3863 3.30464C11.3193 2.56512 12.6483 2.56512 13.5813 3.30464L14.8236 1.73729ZM9.13923 1.74103L1.76891 7.65545L3.02064 9.21531L10.391 3.30089L9.13923 1.74103ZM1.79084 7.63835C0.871232 8.33517 0.32394 9.4154 0.312549 10.5684L2.31245 10.5882C2.31768 10.0589 2.56885 9.55813 2.99872 9.23241L1.79084 7.63835ZM0.3125 10.5783V20.3821H2.3125V10.5783H0.3125ZM0.3125 20.3821C0.3125 21.5647 0.552509 22.7609 1.20267 23.6903C1.88865 24.6709 2.9611 25.25 4.35 25.25V23.25C3.58111 23.25 3.13481 22.9632 2.84149 22.5439C2.51235 22.0734 2.3125 21.3356 2.3125 20.3821H0.3125ZM4.35 25.25H7.38408V23.25H4.35V25.25ZM7.38408 25.25C7.38559 25.25 7.38709 25.25 7.3886 25.25C7.3901 25.25 7.39161 25.25 7.39311 25.25C7.39462 25.25 7.39612 25.25 7.39762 25.25C7.39913 25.25 7.40063 25.25 7.40213 25.25C7.40363 25.25 7.40513 25.25 7.40664 25.25C7.40814 25.25 7.40964 25.25 7.41114 25.25C7.41264 25.25 7.41414 25.25 7.41564 25.25C7.41714 25.25 7.41863 25.25 7.42013 25.25C7.42163 25.25 7.42313 25.25 7.42463 25.25C7.42612 25.25 7.42762 25.25 7.42912 25.25C7.43061 25.25 7.43211 25.25 7.4336 25.25C7.4351 25.25 7.43659 25.25 7.43809 25.25C7.43958 25.25 7.44107 25.25 7.44257 25.25C7.44406 25.25 7.44555 25.25 7.44704 25.25C7.44854 25.25 7.45003 25.25 7.45152 25.25C7.45301 25.25 7.4545 25.25 7.45599 25.25C7.45748 25.25 7.45897 25.25 7.46046 25.25C7.46195 25.25 7.46343 25.25 7.46492 25.25C7.46641 25.25 7.4679 25.25 7.46938 25.25C7.47087 25.25 7.47236 25.25 7.47384 25.25C7.47533 25.25 7.47681 25.25 7.4783 25.25C7.47978 25.25 7.48126 25.25 7.48275 25.25C7.48423 25.25 7.48571 25.25 7.4872 25.25C7.48868 25.25 7.49016 25.25 7.49164 25.25C7.49312 25.25 7.4946 25.25 7.49608 25.25C7.49756 25.25 7.49904 25.25 7.50052 25.25C7.502 25.25 7.50348 25.25 7.50495 25.25C7.50643 25.25 7.50791 25.25 7.50938 25.25C7.51086 25.25 7.51234 25.25 7.51381 25.25C7.51529 25.25 7.51676 25.25 7.51824 25.25C7.51971 25.25 7.52118 25.25 7.52266 25.25C7.52413 25.25 7.5256 25.25 7.52707 25.25C7.52854 25.25 7.53001 25.25 7.53149 25.25C7.53296 25.25 7.53443 25.25 7.53589 25.25C7.53736 25.25 7.53883 25.25 7.5403 25.25C7.54177 25.25 7.54324 25.25 7.5447 25.25C7.54617 25.25 7.54764 25.25 7.5491 25.25C7.55057 25.25 7.55203 25.25 7.5535 25.25C7.55496 25.25 7.55642 25.25 7.55789 25.25C7.55935 25.25 7.56081 25.25 7.56227 25.25C7.56374 25.25 7.5652 25.25 7.56666 25.25C7.56812 25.25 7.56958 25.25 7.57104 25.25C7.5725 25.25 7.57396 25.25 7.57541 25.25C7.57687 25.25 7.57833 25.25 7.57979 25.25C7.58124 25.25 7.5827 25.25 7.58415 25.25C7.58561 25.25 7.58706 25.25 7.58852 25.25C7.58997 25.25 7.59143 25.25 7.59288 25.25C7.59433 25.25 7.59578 25.25 7.59724 25.25C7.59869 25.25 7.60014 25.25 7.60159 25.25C7.60304 25.25 7.60449 25.25 7.60594 25.25C7.60739 25.25 7.60883 25.25 7.61028 25.25C7.61173 25.25 7.61317 25.25 7.61462 25.25C7.61607 25.25 7.61751 25.25 7.61896 25.25C7.6204 25.25 7.62185 25.25 7.62329 25.25C7.62473 25.25 7.62618 25.25 7.62762 25.25C7.62906 25.25 7.6305 25.25 7.63194 25.25C7.63338 25.25 7.63482 25.25 7.63626 25.25C7.6377 25.25 7.63914 25.25 7.64058 25.25C7.64202 25.25 7.64345 25.25 7.64489 25.25C7.64633 25.25 7.64776 25.25 7.6492 25.25C7.65063 25.25 7.65207 25.25 7.6535 25.25C7.65493 25.25 7.65637 25.25 7.6578 25.25C7.65923 25.25 7.66066 25.25 7.66209 25.25C7.66352 25.25 7.66495 25.25 7.66638 25.25C7.66781 25.25 7.66924 25.25 7.67067 25.25C7.6721 25.25 7.67352 25.25 7.67495 25.25C7.67638 25.25 7.6778 25.25 7.67923 25.25C7.68065 25.25 7.68208 25.25 7.6835 25.25C7.68492 25.25 7.68635 25.25 7.68777 25.25C7.68919 25.25 7.69061 25.25 7.69203 25.25C7.69345 25.25 7.69487 25.25 7.69629 25.25C7.69771 25.25 7.69913 25.25 7.70055 25.25C7.70196 25.25 7.70338 25.25 7.7048 25.25C7.70621 25.25 7.70763 25.25 7.70904 25.25C7.71046 25.25 7.71187 25.25 7.71328 25.25C7.7147 25.25 7.71611 25.25 7.71752 25.25C7.71893 25.25 7.72034 25.25 7.72175 25.25C7.72316 25.25 7.72457 25.25 7.72598 25.25C7.72739 25.25 7.72879 25.25 7.7302 25.25C7.73161 25.25 7.73301 25.25 7.73442 25.25C7.73582 25.25 7.73723 25.25 7.73863 25.25C7.74004 25.25 7.74144 25.25 7.74284 25.25C7.74424 25.25 7.74564 25.25 7.74704 25.25C7.74845 25.25 7.74984 25.25 7.75124 25.25C7.75264 25.25 7.75404 25.25 7.75544 25.25C7.75683 25.25 7.75823 25.25 7.75963 25.25C7.76102 25.25 7.76242 25.25 7.76381 25.25C7.76521 25.25 7.7666 25.25 7.76799 25.25C7.76938 25.25 7.77077 25.25 7.77217 25.25C7.77356 25.25 7.77495 25.25 7.77634 25.25C7.77772 25.25 7.77911 25.25 7.7805 25.25C7.78189 25.25 7.78327 25.25 7.78466 25.25C7.78605 25.25 7.78743 25.25 7.78881 25.25C7.7902 25.25 7.79158 25.25 7.79296 25.25C7.79435 25.25 7.79573 25.25 7.79711 25.25C7.79849 25.25 7.79987 25.25 7.80125 25.25C7.80263 25.25 7.80401 25.25 7.80538 25.25C7.80676 25.25 7.80814 25.25 7.80951 25.25C7.81089 25.25 7.81226 25.25 7.81364 25.25C7.81501 25.25 7.81638 25.25 7.81776 25.25C7.81913 25.25 7.8205 25.25 7.82187 25.25C7.82324 25.25 7.82461 25.25 7.82598 25.25C7.82735 25.25 7.82872 25.25 7.83008 25.25C7.83145 25.25 7.83282 25.25 7.83418 25.25C7.83555 25.25 7.83691 25.25 7.83827 25.25C7.83964 25.25 7.841 25.25 7.84236 25.25C7.84372 25.25 7.84508 25.25 7.84644 25.25C7.8478 25.25 7.84916 25.25 7.85052 25.25C7.85188 25.25 7.85324 25.25 7.85459 25.25C7.85595 25.25 7.8573 25.25 7.85866 25.25C7.86001 25.25 7.86137 25.25 7.86272 25.25C7.86407 25.25 7.86542 25.25 7.86678 25.25C7.86813 25.25 7.86948 25.25 7.87083 25.25C7.87217 25.25 7.87352 25.25 7.87487 25.25C7.87622 25.25 7.87756 25.25 7.87891 25.25C7.88025 25.25 7.8816 25.25 7.88294 25.25C7.88429 25.25 7.88563 25.25 7.88697 25.25C7.88831 25.25 7.88965 25.25 7.89099 25.25C7.89233 25.25 7.89367 25.25 7.89501 25.25C7.89635 25.25 7.89768 25.25 7.89902 25.25C7.90036 25.25 7.90169 25.25 7.90303 25.25C7.90436 25.25 7.90569 25.25 7.90703 25.25C7.90836 25.25 7.90969 25.25 7.91102 25.25C7.91235 25.25 7.91368 25.25 7.91501 25.25C7.91634 25.25 7.91766 25.25 7.91899 25.25C7.92032 25.25 7.92164 25.25 7.92297 25.25C7.92429 25.25 7.92562 25.25 7.92694 25.25C7.92826 25.25 7.92958 25.25 7.9309 25.25C7.93223 25.25 7.93355 25.25 7.93486 25.25C7.93618 25.25 7.9375 25.25 7.93882 25.25C7.94013 25.25 7.94145 25.25 7.94277 25.25C7.94408 25.25 7.94539 25.25 7.94671 25.25C7.94802 25.25 7.94933 25.25 7.95064 25.25C7.95195 25.25 7.95326 25.25 7.95457 25.25C7.95588 25.25 7.95719 25.25 7.9585 25.25C7.9598 25.25 7.96111 25.25 7.96241 25.25C7.96372 25.25 7.96502 25.25 7.96633 25.25C7.96763 25.25 7.96893 25.25 7.97023 25.25C7.97153 25.25 7.97283 25.25 7.97413 25.25C7.97543 25.25 7.97673 25.25 7.97803 25.25C7.97932 25.25 7.98062 25.25 7.98191 25.25C7.98321 25.25 7.9845 25.25 7.9858 25.25C7.98709 25.25 7.98838 25.25 7.98967 25.25C7.99096 25.25 7.99225 25.25 7.99354 25.25C7.99483 25.25 7.99612 25.25 7.9974 25.25C7.99869 25.25 7.99997 25.25 8.00126 25.25C8.00254 25.25 8.00383 25.25 8.00511 25.25C8.00639 25.25 8.00767 25.25 8.00895 25.25C8.01023 25.25 8.01151 25.25 8.01279 25.25C8.01407 25.25 8.01535 25.25 8.01662 25.25C8.0179 25.25 8.01917 25.25 8.02045 25.25C8.02172 25.25 8.02299 25.25 8.02427 25.25C8.02554 25.25 8.02681 25.25 8.02808 25.25C8.02935 25.25 8.03062 25.25 8.03189 25.25C8.03315 25.25 8.03442 25.25 8.03569 25.25C8.03695 25.25 8.03821 25.25 8.03948 25.25C8.04074 25.25 8.042 25.25 8.04326 25.25C8.04453 25.25 8.04579 25.25 8.04704 25.25C8.0483 25.25 8.04956 25.25 8.05082 25.25C8.05207 25.25 8.05333 25.25 8.05459 25.25C8.05584 25.25 8.05709 25.25 8.05835 25.25C8.0596 25.25 8.06085 25.25 8.0621 25.25C8.06335 25.25 8.0646 25.25 8.06585 25.25C8.06709 25.25 8.06834 25.25 8.06959 25.25C8.07083 25.25 8.07208 25.25 8.07332 25.25C8.07456 25.25 8.07581 25.25 8.07705 25.25C8.07829 25.25 8.07953 25.25 8.08077 25.25C8.08201 25.25 8.08325 25.25 8.08448 25.25C8.08572 25.25 8.08695 25.25 8.08819 25.25C8.08942 25.25 8.09066 25.25 8.09189 25.25C8.09312 25.25 8.09435 25.25 8.09558 25.25C8.09681 25.25 8.09804 25.25 8.09927 25.25C8.1005 25.25 8.10172 25.25 8.10295 25.25C8.10417 25.25 8.1054 25.25 8.10662 25.25C8.10784 25.25 8.10907 25.25 8.11029 25.25C8.11151 25.25 8.11273 25.25 8.11395 25.25C8.11516 25.25 8.11638 25.25 8.1176 25.25C8.11881 25.25 8.12003 25.25 8.12124 25.25C8.12246 25.25 8.12367 25.25 8.12488 25.25C8.12609 25.25 8.1273 25.25 8.12851 25.25C8.12972 25.25 8.13093 25.25 8.13214 25.25C8.13334 25.25 8.13455 25.25 8.13575 25.25C8.13696 25.25 8.13816 25.25 8.13936 25.25C8.14056 25.25 8.14176 25.25 8.14296 25.25C8.14416 25.25 8.14536 25.25 8.14656 25.25C8.14776 25.25 8.14895 25.25 8.15015 25.25C8.15134 25.25 8.15254 25.25 8.15373 25.25C8.15492 25.25 8.15611 25.25 8.1573 25.25C8.15849 25.25 8.15968 25.25 8.16087 25.25C8.16206 25.25 8.16324 25.25 8.16443 25.25C8.16561 25.25 8.1668 25.25 8.16798 25.25C8.16916 25.25 8.17035 25.25 8.17153 25.25C8.17271 25.25 8.17388 25.25 8.17506 25.25C8.17624 25.25 8.17742 25.25 8.17859 25.25C8.17977 25.25 8.18094 25.25 8.18212 25.25C8.18329 25.25 8.18446 25.25 8.18563 25.25C8.1868 25.25 8.18797 25.25 8.18914 25.25C8.19031 25.25 8.19147 25.25 8.19264 25.25C8.1938 25.25 8.19497 25.25 8.19613 25.25C8.1973 25.25 8.19846 25.25 8.19962 25.25C8.20078 25.25 8.20194 25.25 8.2031 25.25C8.20425 25.25 8.20541 25.25 8.20657 25.25C8.20772 25.25 8.20888 25.25 8.21003 25.25C8.21118 25.25 8.21233 25.25 8.21348 25.25C8.21463 25.25 8.21578 25.25 8.21693 25.25C8.21808 25.25 8.21923 25.25 8.22037 25.25C8.22152 25.25 8.22266 25.25 8.2238 25.25C8.22495 25.25 8.22609 25.25 8.22723 25.25C8.22837 25.25 8.22951 25.25 8.23065 25.25C8.23178 25.25 8.23292 25.25 8.23406 25.25C8.23519 25.25 8.23632 25.25 8.23746 25.25C8.23859 25.25 8.23972 25.25 8.24085 25.25C8.24198 25.25 8.24311 25.25 8.24424 25.25C8.24536 25.25 8.24649 25.25 8.24761 25.25C8.24874 25.25 8.24986 25.25 8.25098 25.25C8.25211 25.25 8.25323 25.25 8.25435 25.25C8.25547 25.25 8.25658 25.25 8.2577 25.25C8.25882 25.25 8.25993 25.25 8.26105 25.25C8.26216 25.25 8.26328 25.25 8.26439 25.25C8.2655 25.25 8.26661 25.25 8.26772 25.25C8.26883 25.25 8.26993 25.25 8.27104 25.25C8.27215 25.25 8.27325 25.25 8.27435 25.25C8.27546 25.25 8.27656 25.25 8.27766 25.25C8.27876 25.25 8.27986 25.25 8.28096 25.25C8.28206 25.25 8.28316 25.25 8.28425 25.25C8.28535 25.25 8.28644 25.25 8.28753 25.25C8.28863 25.25 8.28972 25.25 8.29081 25.25C8.2919 25.25 8.29299 25.25 8.29407 25.25C8.29516 25.25 8.29625 25.25 8.29733 25.25C8.29842 25.25 8.2995 25.25 8.30058 25.25C8.30166 25.25 8.30274 25.25 8.30382 25.25C8.3049 25.25 8.30598 25.25 8.30706 25.25C8.30813 25.25 8.30921 25.25 8.31028 25.25C8.31136 25.25 8.31243 25.25 8.3135 25.25C8.31457 25.25 8.31564 25.25 8.31671 25.25C8.31778 25.25 8.31884 25.25 8.31991 25.25C8.32097 25.25 8.32204 25.25 8.3231 25.25C8.32416 25.25 8.32522 25.25 8.32628 25.25C8.32734 25.25 8.3284 25.25 8.32946 25.25C8.33051 25.25 8.33157 25.25 8.33262 25.25C8.33368 25.25 8.33473 25.25 8.33578 25.25C8.33683 25.25 8.33788 25.25 8.33893 25.25C8.33998 25.25 8.34103 25.25 8.34207 25.25C8.34312 25.25 8.34416 25.25 8.34521 25.25C8.34625 25.25 8.34729 25.25 8.34833 25.25C8.34937 25.25 8.35041 25.25 8.35145 25.25C8.35248 25.25 8.35352 25.25 8.35455 25.25C8.35559 25.25 8.35662 25.25 8.35765 25.25C8.35868 25.25 8.35971 25.25 8.36074 25.25C8.36177 25.25 8.3628 25.25 8.36382 25.25C8.36485 25.25 8.36587 25.25 8.36689 25.25C8.36792 25.25 8.36894 25.25 8.36996 25.25C8.37098 25.25 8.372 25.25 8.37301 25.25C8.37403 25.25 8.37504 25.25 8.37606 25.25C8.37707 25.25 8.37808 25.25 8.3791 25.25C8.38011 25.25 8.38112 25.25 8.38212 25.25C8.38313 25.25 8.38414 25.25 8.38514 25.25C8.38615 25.25 8.38715 25.25 8.38815 25.25C8.38916 25.25 8.39016 25.25 8.39116 25.25C8.39216 25.25 8.39315 25.25 8.39415 25.25C8.39515 25.25 8.39614 25.25 8.39713 25.25C8.39813 25.25 8.39912 25.25 8.40011 25.25C8.4011 25.25 8.40209 25.25 8.40308 25.25C8.40406 25.25 8.40505 25.25 8.40603 25.25C8.40702 25.25 8.408 25.25 8.40898 25.25C8.40996 25.25 8.41094 25.25 8.41192 25.25C8.4129 25.25 8.41388 25.25 8.41485 25.25C8.41583 25.25 8.4168 25.25 8.41777 25.25C8.41874 25.25 8.41972 25.25 8.42068 25.25C8.42165 25.25 8.42262 25.25 8.42359 25.25C8.42455 25.25 8.42552 25.25 8.42648 25.25C8.42744 25.25 8.42841 25.25 8.42937 25.25C8.43033 25.25 8.43128 25.25 8.43224 25.25C8.4332 25.25 8.43415 25.25 8.43511 25.25C8.43606 25.25 8.43701 25.25 8.43796 25.25C8.43891 25.25 8.43986 25.25 8.44081 25.25C8.44176 25.25 8.44271 25.25 8.44365 25.25C8.44459 25.25 8.44554 25.25 8.44648 25.25C8.44742 25.25 8.44836 25.25 8.4493 25.25C8.45024 25.25 8.45117 25.25 8.45211 25.25C8.45304 25.25 8.45398 25.25 8.45491 25.25C8.45584 25.25 8.45677 25.25 8.4577 25.25C8.45863 25.25 8.45956 25.25 8.46048 25.25C8.46141 25.25 8.46233 25.25 8.46326 25.25C8.46418 25.25 8.4651 25.25 8.46602 25.25C8.46694 25.25 8.46786 25.25 8.46877 25.25C8.46969 25.25 8.4706 25.25 8.47152 25.25C8.47243 25.25 8.47334 25.25 8.47425 25.25C8.47516 25.25 8.47607 25.25 8.47698 25.25C8.47788 25.25 8.47879 25.25 8.47969 25.25C8.4806 25.25 8.4815 25.25 8.4824 25.25C8.4833 25.25 8.4842 25.25 8.4851 25.25C8.48599 25.25 8.48689 25.25 8.48778 25.25C8.48868 25.25 8.48957 25.25 8.49046 25.25C8.49135 25.25 8.49224 25.25 8.49313 25.25C8.49401 25.25 8.4949 25.25 8.49578 25.25C8.49667 25.25 8.49755 25.25 8.49843 25.25C8.49931 25.25 8.50019 25.25 8.50107 25.25C8.50195 25.25 8.50282 25.25 8.5037 25.25C8.50457 25.25 8.50544 25.25 8.50631 25.25C8.50719 25.25 8.50806 25.25 8.50892 25.25C8.50979 25.25 8.51066 25.25 8.51152 25.25C8.51239 25.25 8.51325 25.25 8.51411 25.25C8.51497 25.25 8.51583 25.25 8.51669 25.25C8.51755 25.25 8.5184 25.25 8.51926 25.25C8.52011 25.25 8.52097 25.25 8.52182 25.25C8.52267 25.25 8.52352 25.25 8.52436 25.25C8.52521 25.25 8.52606 25.25 8.5269 25.25C8.52775 25.25 8.52859 25.25 8.52943 25.25C8.53027 25.25 8.53111 25.25 8.53195 25.25C8.53279 25.25 8.53363 25.25 8.53446 25.25C8.53529 25.25 8.53613 25.25 8.53696 25.25C8.53779 25.25 8.53862 25.25 8.53945 25.25C8.54027 25.25 8.5411 25.25 8.54192 25.25C8.54275 25.25 8.54357 25.25 8.54439 25.25C8.54521 25.25 8.54603 25.25 8.54685 25.25C8.54767 25.25 8.54848 25.25 8.5493 25.25C8.55011 25.25 8.55092 25.25 8.55174 25.25C8.55255 25.25 8.55336 25.25 8.55416 25.25C8.55497 25.25 8.55578 25.25 8.55658 25.25C8.55738 25.25 8.55819 25.25 8.55899 25.25C8.55979 25.25 8.56059 25.25 8.56138 25.25C8.56218 25.25 8.56297 25.25 8.56377 25.25C8.56456 25.25 8.56535 25.25 8.56614 25.25C8.56693 25.25 8.56772 25.25 8.56851 25.25C8.56929 25.25 8.57008 25.25 8.57086 25.25C8.57165 25.25 8.57243 25.25 8.57321 25.25C8.57399 25.25 8.57476 25.25 8.57554 25.25C8.57632 25.25 8.57709 25.25 8.57786 25.25C8.57864 25.25 8.57941 25.25 8.58018 25.25C8.58094 25.25 8.58171 25.25 8.58248 25.25C8.58324 25.25 8.58401 25.25 8.58477 25.25C8.58553 25.25 8.58629 25.25 8.58705 25.25C8.58781 25.25 8.58856 25.25 8.58932 25.25C8.59008 25.25 8.59083 25.25 8.59158 25.25C8.59233 25.25 8.59308 25.25 8.59383 25.25C8.59458 25.25 8.59532 25.25 8.59607 25.25C8.59681 25.25 8.59755 25.25 8.59829 25.25C8.59903 25.25 8.59977 25.25 8.60051 25.25C8.60125 25.25 8.60198 25.25 8.60272 25.25C8.60345 25.25 8.60418 25.25 8.60491 25.25C8.60564 25.25 8.60637 25.25 8.6071 25.25C8.60782 25.25 8.60855 25.25 8.60927 25.25C8.60999 25.25 8.61071 25.25 8.61143 25.25C8.61215 25.25 8.61287 25.25 8.61358 25.25C8.6143 25.25 8.61501 25.25 8.61573 25.25C8.61644 25.25 8.61715 25.25 8.61786 25.25C8.61856 25.25 8.61927 25.25 8.61997 25.25C8.62068 25.25 8.62138 25.25 8.62208 25.25C8.62278 25.25 8.62348 25.25 8.62418 25.25C8.62488 25.25 8.62557 25.25 8.62627 25.25C8.62696 25.25 8.62765 25.25 8.62834 25.25C8.62903 25.25 8.62972 25.25 8.6304 25.25C8.63109 25.25 8.63177 25.25 8.63246 25.25C8.63314 25.25 8.63382 25.25 8.6345 25.25C8.63518 25.25 8.63585 25.25 8.63653 25.25C8.6372 25.25 8.63788 25.25 8.63855 25.25C8.63922 25.25 8.63989 25.25 8.64056 25.25C8.64122 25.25 8.64189 25.25 8.64255 25.25C8.64322 25.25 8.64388 25.25 8.64454 25.25C8.6452 25.25 8.64586 25.25 8.64651 25.25C8.64717 25.25 8.64782 25.25 8.64848 25.25C8.64913 25.25 8.64978 25.25 8.65043 25.25C8.65108 25.25 8.65172 25.25 8.65237 25.25C8.65302 25.25 8.65366 25.25 8.6543 25.25C8.65494 25.25 8.65558 25.25 8.65622 25.25C8.65685 25.25 8.65749 25.25 8.65812 25.25C8.65876 25.25 8.65939 25.25 8.66002 25.25C8.66065 25.25 8.66128 25.25 8.6619 25.25C8.66253 25.25 8.66315 25.25 8.66377 25.25C8.6644 25.25 8.66502 25.25 8.66564 25.25C8.66625 25.25 8.66687 25.25 8.66748 25.25C8.6681 25.25 8.66871 25.25 8.66932 25.25C8.66993 25.25 8.67054 25.25 8.67115 25.25C8.67176 25.25 8.67236 25.25 8.67296 25.25C8.67357 25.25 8.67417 25.25 8.67477 25.25C8.67536 25.25 8.67596 25.25 8.67656 25.25C8.67715 25.25 8.67775 25.25 8.67834 25.25C8.67893 25.25 8.67952 25.25 8.68011 25.25C8.68069 25.25 8.68128 25.25 8.68186 25.25C8.68245 25.25 8.68303 25.25 8.68361 25.25C8.68419 25.25 8.68476 25.25 8.68534 25.25C8.68591 25.25 8.68649 25.25 8.68706 25.25C8.68763 25.25 8.6882 25.25 8.68877 25.25C8.68934 25.25 8.6899 25.25 8.69047 25.25C8.69103 25.25 8.69159 25.25 8.69215 25.25C8.69271 25.25 8.69327 25.25 8.69383 25.25C8.69438 25.25 8.69494 25.25 8.69549 25.25C8.69604 25.25 8.69659 25.25 8.69714 25.25C8.69769 25.25 8.69823 25.25 8.69878 25.25C8.69932 25.25 8.69986 25.25 8.7004 25.25C8.70094 25.25 8.70148 25.25 8.70202 25.25C8.70255 25.25 8.70309 25.25 8.70362 25.25C8.70415 25.25 8.70468 25.25 8.70521 25.25C8.70574 25.25 8.70626 25.25 8.70679 25.25C8.70731 25.25 8.70783 25.25 8.70835 25.25C8.70887 25.25 8.70939 25.25 8.70991 25.25C8.71042 25.25 8.71094 25.25 8.71145 25.25C8.71196 25.25 8.71247 25.25 8.71298 25.25C8.71349 25.25 8.71399 25.25 8.7145 25.25C8.715 25.25 8.7155 25.25 8.716 25.25C8.7165 25.25 8.717 25.25 8.71749 25.25C8.71799 25.25 8.71848 25.25 8.71897 25.25C8.71947 25.25 8.71996 25.25 8.72044 25.25C8.72093 25.25 8.72142 25.25 8.7219 25.25C8.72238 25.25 8.72286 25.25 8.72334 25.25C8.72382 25.25 8.7243 25.25 8.72477 25.25C8.72525 25.25 8.72572 25.25 8.72619 25.25C8.72667 25.25 8.72713 25.25 8.7276 25.25C8.72807 25.25 8.72853 25.25 8.729 25.25C8.72946 25.25 8.72992 25.25 8.73038 25.25C8.73084 25.25 8.73129 25.25 8.73175 25.25C8.7322 25.25 8.73265 25.25 8.73311 25.25C8.73356 25.25 8.734 25.25 8.73445 25.25C8.7349 25.25 8.73534 25.25 8.73578 25.25C8.73622 25.25 8.73666 25.25 8.7371 25.25C8.73754 25.25 8.73798 25.25 8.73841 25.25C8.73884 25.25 8.73927 25.25 8.7397 25.25C8.74013 25.25 8.74056 25.25 8.74099 25.25C8.74141 25.25 8.74183 25.25 8.74225 25.25C8.74268 25.25 8.74309 25.25 8.74351 25.25C8.74393 25.25 8.74434 25.25 8.74476 25.25C8.74517 25.25 8.74558 25.25 8.74599 25.25C8.74639 25.25 8.7468 25.25 8.7472 25.25C8.74761 25.25 8.74801 25.25 8.74841 25.25C8.74881 25.25 8.74921 25.25 8.7496 25.25C8.75 25.25 8.75039 25.25 8.75078 25.25C8.75118 25.25 8.75156 25.25 8.75195 25.25C8.75234 25.25 8.75272 25.25 8.75311 25.25C8.75349 25.25 8.75387 25.25 8.75425 25.25C8.75463 25.25 8.755 25.25 8.75538 25.25C8.75575 25.25 8.75612 25.25 8.75649 25.25C8.75686 25.25 8.75723 25.25 8.7576 25.25C8.75796 25.25 8.75832 25.25 8.75869 25.25C8.75905 25.25 8.75941 25.25 8.75976 25.25C8.76012 25.25 8.76047 25.25 8.76083 25.25C8.76118 25.25 8.76153 25.25 8.76188 25.25C8.76223 25.25 8.76257 25.25 8.76292 25.25C8.76326 25.25 8.7636 25.25 8.76394 25.25C8.76428 25.25 8.76462 25.25 8.76495 25.25C8.76529 25.25 8.76562 25.25 8.76595 25.25C8.76628 25.25 8.76661 25.25 8.76694 25.25C8.76726 25.25 8.76759 25.25 8.76791 25.25C8.76823 25.25 8.76855 25.25 8.76887 25.25C8.76919 25.25 8.7695 25.25 8.76981 25.25C8.77013 25.25 8.77044 25.25 8.77075 25.25C8.77106 25.25 8.77136 25.25 8.77167 25.25C8.77197 25.25 8.77227 25.25 8.77257 25.25C8.77287 25.25 8.77317 25.25 8.77347 25.25C8.77376 25.25 8.77405 25.25 8.77434 25.25C8.77464 25.25 8.77492 25.25 8.77521 25.25C8.7755 25.25 8.77578 25.25 8.77606 25.25C8.77635 25.25 8.77663 25.25 8.7769 25.25C8.77718 25.25 8.77746 25.25 8.77773 25.25C8.778 25.25 8.77827 25.25 8.77854 25.25C8.77881 25.25 8.77908 25.25 8.77934 25.25C8.7796 25.25 8.77987 25.25 8.78013 25.25C8.78039 25.25 8.78064 25.25 8.7809 25.25C8.78115 25.25 8.78141 25.25 8.78166 25.25C8.78191 25.25 8.78216 25.25 8.7824 25.25C8.78265 25.25 8.78289 25.25 8.78313 25.25C8.78337 25.25 8.78361 25.25 8.78385 25.25C8.78409 25.25 8.78432 25.25 8.78455 25.25C8.78479 25.25 8.78502 25.25 8.78524 25.25C8.78547 25.25 8.7857 25.25 8.78592 25.25C8.78615 25.25 8.78637 25.25 8.78658 25.25C8.7868 25.25 8.78702 25.25 8.78723 25.25C8.78745 25.25 8.78766 25.25 8.78787 25.25C8.78808 25.25 8.78829 25.25 8.78849 25.25C8.7887 25.25 8.7889 25.25 8.7891 25.25C8.7893 25.25 8.7895 25.25 8.78969 25.25C8.78989 25.25 8.79008 25.25 8.79027 25.25C8.79047 25.25 8.79065 25.25 8.79084 25.25C8.79103 25.25 8.79121 25.25 8.79139 25.25C8.79157 25.25 8.79175 25.25 8.79193 25.25C8.79211 25.25 8.79228 25.25 8.79246 25.25C8.79263 25.25 8.7928 25.25 8.79297 25.25C8.79314 25.25 8.7933 25.25 8.79346 25.25C8.79363 25.25 8.79379 25.25 8.79395 25.25C8.79411 25.25 8.79426 25.25 8.79442 25.25C8.79457 25.25 8.79472 25.25 8.79487 25.25C8.79502 25.25 8.79517 25.25 8.79531 25.25C8.79546 25.25 8.7956 25.25 8.79574 25.25C8.79588 25.25 8.79601 25.25 8.79615 25.25C8.79628 25.25 8.79642 25.25 8.79655 25.25C8.79668 25.25 8.79681 25.25 8.79693 25.25C8.79706 25.25 8.79718 25.25 8.7973 25.25C8.79742 25.25 8.79754 25.25 8.79766 25.25C8.79777 25.25 8.79789 25.25 8.798 25.25C8.79811 25.25 8.79822 25.25 8.79833 25.25C8.79843 25.25 8.79854 25.25 8.79864 25.25C8.79874 25.25 8.79884 25.25 8.79894 25.25C8.79903 25.25 8.79913 25.25 8.79922 25.25C8.79931 25.25 8.7994 25.25 8.79949 25.25C8.79958 25.25 8.79966 25.25 8.79975 25.25C8.79983 25.25 8.79991 25.25 8.79999 25.25C8.80007 25.25 8.80014 25.25 8.80021 25.25C8.80029 25.25 8.80036 25.25 8.80043 25.25C8.8005 25.25 8.80056 25.25 8.80062 25.25C8.80069 25.25 8.80075 25.25 8.80081 25.25C8.80087 25.25 8.80092 25.25 8.80098 25.25C8.80103 25.25 8.80108 25.25 8.80113 25.25C8.80118 25.25 8.80123 25.25 8.80127 25.25C8.80131 25.25 8.80136 25.25 8.80139 25.25C8.80143 25.25 8.80147 25.25 8.80151 25.25C8.80154 25.25 8.80157 25.25 8.8016 25.25C8.80163 25.25 8.80166 25.25 8.80168 25.25C8.80171 25.25 8.80173 25.25 8.80175 25.25C8.80177 25.25 8.80179 25.25 8.8018 25.25C8.80182 25.25 8.80183 25.25 8.80184 25.25C8.80185 25.25 8.80185 25.25 8.80186 25.25C8.80186 25.25 8.80187 25.25 8.80187 24.25C8.80187 23.25 8.80186 23.25 8.80186 23.25C8.80185 23.25 8.80185 23.25 8.80184 23.25C8.80183 23.25 8.80182 23.25 8.8018 23.25C8.80179 23.25 8.80177 23.25 8.80175 23.25C8.80173 23.25 8.80171 23.25 8.80168 23.25C8.80166 23.25 8.80163 23.25 8.8016 23.25C8.80157 23.25 8.80154 23.25 8.80151 23.25C8.80147 23.25 8.80143 23.25 8.80139 23.25C8.80136 23.25 8.80131 23.25 8.80127 23.25C8.80123 23.25 8.80118 23.25 8.80113 23.25C8.80108 23.25 8.80103 23.25 8.80098 23.25C8.80092 23.25 8.80087 23.25 8.80081 23.25C8.80075 23.25 8.80069 23.25 8.80062 23.25C8.80056 23.25 8.8005 23.25 8.80043 23.25C8.80036 23.25 8.80029 23.25 8.80021 23.25C8.80014 23.25 8.80007 23.25 8.79999 23.25C8.79991 23.25 8.79983 23.25 8.79975 23.25C8.79966 23.25 8.79958 23.25 8.79949 23.25C8.7994 23.25 8.79931 23.25 8.79922 23.25C8.79913 23.25 8.79903 23.25 8.79894 23.25C8.79884 23.25 8.79874 23.25 8.79864 23.25C8.79854 23.25 8.79843 23.25 8.79833 23.25C8.79822 23.25 8.79811 23.25 8.798 23.25C8.79789 23.25 8.79777 23.25 8.79766 23.25C8.79754 23.25 8.79742 23.25 8.7973 23.25C8.79718 23.25 8.79706 23.25 8.79693 23.25C8.79681 23.25 8.79668 23.25 8.79655 23.25C8.79642 23.25 8.79628 23.25 8.79615 23.25C8.79601 23.25 8.79588 23.25 8.79574 23.25C8.7956 23.25 8.79546 23.25 8.79531 23.25C8.79517 23.25 8.79502 23.25 8.79487 23.25C8.79472 23.25 8.79457 23.25 8.79442 23.25C8.79426 23.25 8.79411 23.25 8.79395 23.25C8.79379 23.25 8.79363 23.25 8.79346 23.25C8.7933 23.25 8.79314 23.25 8.79297 23.25C8.7928 23.25 8.79263 23.25 8.79246 23.25C8.79228 23.25 8.79211 23.25 8.79193 23.25C8.79175 23.25 8.79157 23.25 8.79139 23.25C8.79121 23.25 8.79103 23.25 8.79084 23.25C8.79065 23.25 8.79047 23.25 8.79027 23.25C8.79008 23.25 8.78989 23.25 8.78969 23.25C8.7895 23.25 8.7893 23.25 8.7891 23.25C8.7889 23.25 8.7887 23.25 8.78849 23.25C8.78829 23.25 8.78808 23.25 8.78787 23.25C8.78766 23.25 8.78745 23.25 8.78723 23.25C8.78702 23.25 8.7868 23.25 8.78658 23.25C8.78637 23.25 8.78615 23.25 8.78592 23.25C8.7857 23.25 8.78547 23.25 8.78524 23.25C8.78502 23.25 8.78479 23.25 8.78455 23.25C8.78432 23.25 8.78409 23.25 8.78385 23.25C8.78361 23.25 8.78337 23.25 8.78313 23.25C8.78289 23.25 8.78265 23.25 8.7824 23.25C8.78216 23.25 8.78191 23.25 8.78166 23.25C8.78141 23.25 8.78115 23.25 8.7809 23.25C8.78064 23.25 8.78039 23.25 8.78013 23.25C8.77987 23.25 8.7796 23.25 8.77934 23.25C8.77908 23.25 8.77881 23.25 8.77854 23.25C8.77827 23.25 8.778 23.25 8.77773 23.25C8.77746 23.25 8.77718 23.25 8.7769 23.25C8.77663 23.25 8.77635 23.25 8.77606 23.25C8.77578 23.25 8.7755 23.25 8.77521 23.25C8.77492 23.25 8.77464 23.25 8.77434 23.25C8.77405 23.25 8.77376 23.25 8.77347 23.25C8.77317 23.25 8.77287 23.25 8.77257 23.25C8.77227 23.25 8.77197 23.25 8.77167 23.25C8.77136 23.25 8.77106 23.25 8.77075 23.25C8.77044 23.25 8.77013 23.25 8.76981 23.25C8.7695 23.25 8.76919 23.25 8.76887 23.25C8.76855 23.25 8.76823 23.25 8.76791 23.25C8.76759 23.25 8.76726 23.25 8.76694 23.25C8.76661 23.25 8.76628 23.25 8.76595 23.25C8.76562 23.25 8.76529 23.25 8.76495 23.25C8.76462 23.25 8.76428 23.25 8.76394 23.25C8.7636 23.25 8.76326 23.25 8.76292 23.25C8.76257 23.25 8.76223 23.25 8.76188 23.25C8.76153 23.25 8.76118 23.25 8.76083 23.25C8.76047 23.25 8.76012 23.25 8.75976 23.25C8.75941 23.25 8.75905 23.25 8.75869 23.25C8.75832 23.25 8.75796 23.25 8.7576 23.25C8.75723 23.25 8.75686 23.25 8.75649 23.25C8.75612 23.25 8.75575 23.25 8.75538 23.25C8.755 23.25 8.75463 23.25 8.75425 23.25C8.75387 23.25 8.75349 23.25 8.75311 23.25C8.75272 23.25 8.75234 23.25 8.75195 23.25C8.75156 23.25 8.75118 23.25 8.75078 23.25C8.75039 23.25 8.75 23.25 8.7496 23.25C8.74921 23.25 8.74881 23.25 8.74841 23.25C8.74801 23.25 8.74761 23.25 8.7472 23.25C8.7468 23.25 8.74639 23.25 8.74599 23.25C8.74558 23.25 8.74517 23.25 8.74476 23.25C8.74434 23.25 8.74393 23.25 8.74351 23.25C8.74309 23.25 8.74268 23.25 8.74225 23.25C8.74183 23.25 8.74141 23.25 8.74099 23.25C8.74056 23.25 8.74013 23.25 8.7397 23.25C8.73927 23.25 8.73884 23.25 8.73841 23.25C8.73798 23.25 8.73754 23.25 8.7371 23.25C8.73666 23.25 8.73622 23.25 8.73578 23.25C8.73534 23.25 8.7349 23.25 8.73445 23.25C8.734 23.25 8.73356 23.25 8.73311 23.25C8.73265 23.25 8.7322 23.25 8.73175 23.25C8.73129 23.25 8.73084 23.25 8.73038 23.25C8.72992 23.25 8.72946 23.25 8.729 23.25C8.72853 23.25 8.72807 23.25 8.7276 23.25C8.72713 23.25 8.72667 23.25 8.72619 23.25C8.72572 23.25 8.72525 23.25 8.72477 23.25C8.7243 23.25 8.72382 23.25 8.72334 23.25C8.72286 23.25 8.72238 23.25 8.7219 23.25C8.72142 23.25 8.72093 23.25 8.72044 23.25C8.71996 23.25 8.71947 23.25 8.71897 23.25C8.71848 23.25 8.71799 23.25 8.71749 23.25C8.717 23.25 8.7165 23.25 8.716 23.25C8.7155 23.25 8.715 23.25 8.7145 23.25C8.71399 23.25 8.71349 23.25 8.71298 23.25C8.71247 23.25 8.71196 23.25 8.71145 23.25C8.71094 23.25 8.71042 23.25 8.70991 23.25C8.70939 23.25 8.70887 23.25 8.70835 23.25C8.70783 23.25 8.70731 23.25 8.70679 23.25C8.70626 23.25 8.70574 23.25 8.70521 23.25C8.70468 23.25 8.70415 23.25 8.70362 23.25C8.70309 23.25 8.70255 23.25 8.70202 23.25C8.70148 23.25 8.70094 23.25 8.7004 23.25C8.69986 23.25 8.69932 23.25 8.69878 23.25C8.69823 23.25 8.69769 23.25 8.69714 23.25C8.69659 23.25 8.69604 23.25 8.69549 23.25C8.69494 23.25 8.69438 23.25 8.69383 23.25C8.69327 23.25 8.69271 23.25 8.69215 23.25C8.69159 23.25 8.69103 23.25 8.69047 23.25C8.6899 23.25 8.68934 23.25 8.68877 23.25C8.6882 23.25 8.68763 23.25 8.68706 23.25C8.68649 23.25 8.68591 23.25 8.68534 23.25C8.68476 23.25 8.68419 23.25 8.68361 23.25C8.68303 23.25 8.68245 23.25 8.68186 23.25C8.68128 23.25 8.68069 23.25 8.68011 23.25C8.67952 23.25 8.67893 23.25 8.67834 23.25C8.67775 23.25 8.67715 23.25 8.67656 23.25C8.67596 23.25 8.67536 23.25 8.67477 23.25C8.67417 23.25 8.67357 23.25 8.67296 23.25C8.67236 23.25 8.67176 23.25 8.67115 23.25C8.67054 23.25 8.66993 23.25 8.66932 23.25C8.66871 23.25 8.6681 23.25 8.66748 23.25C8.66687 23.25 8.66625 23.25 8.66564 23.25C8.66502 23.25 8.6644 23.25 8.66377 23.25C8.66315 23.25 8.66253 23.25 8.6619 23.25C8.66128 23.25 8.66065 23.25 8.66002 23.25C8.65939 23.25 8.65876 23.25 8.65812 23.25C8.65749 23.25 8.65685 23.25 8.65622 23.25C8.65558 23.25 8.65494 23.25 8.6543 23.25C8.65366 23.25 8.65302 23.25 8.65237 23.25C8.65172 23.25 8.65108 23.25 8.65043 23.25C8.64978 23.25 8.64913 23.25 8.64848 23.25C8.64782 23.25 8.64717 23.25 8.64651 23.25C8.64586 23.25 8.6452 23.25 8.64454 23.25C8.64388 23.25 8.64322 23.25 8.64255 23.25C8.64189 23.25 8.64122 23.25 8.64056 23.25C8.63989 23.25 8.63922 23.25 8.63855 23.25C8.63788 23.25 8.6372 23.25 8.63653 23.25C8.63585 23.25 8.63518 23.25 8.6345 23.25C8.63382 23.25 8.63314 23.25 8.63246 23.25C8.63177 23.25 8.63109 23.25 8.6304 23.25C8.62972 23.25 8.62903 23.25 8.62834 23.25C8.62765 23.25 8.62696 23.25 8.62627 23.25C8.62557 23.25 8.62488 23.25 8.62418 23.25C8.62348 23.25 8.62278 23.25 8.62208 23.25C8.62138 23.25 8.62068 23.25 8.61997 23.25C8.61927 23.25 8.61856 23.25 8.61786 23.25C8.61715 23.25 8.61644 23.25 8.61573 23.25C8.61501 23.25 8.6143 23.25 8.61358 23.25C8.61287 23.25 8.61215 23.25 8.61143 23.25C8.61071 23.25 8.60999 23.25 8.60927 23.25C8.60855 23.25 8.60782 23.25 8.6071 23.25C8.60637 23.25 8.60564 23.25 8.60491 23.25C8.60418 23.25 8.60345 23.25 8.60272 23.25C8.60198 23.25 8.60125 23.25 8.60051 23.25C8.59977 23.25 8.59903 23.25 8.59829 23.25C8.59755 23.25 8.59681 23.25 8.59607 23.25C8.59532 23.25 8.59458 23.25 8.59383 23.25C8.59308 23.25 8.59233 23.25 8.59158 23.25C8.59083 23.25 8.59008 23.25 8.58932 23.25C8.58856 23.25 8.58781 23.25 8.58705 23.25C8.58629 23.25 8.58553 23.25 8.58477 23.25C8.58401 23.25 8.58324 23.25 8.58248 23.25C8.58171 23.25 8.58094 23.25 8.58018 23.25C8.57941 23.25 8.57864 23.25 8.57786 23.25C8.57709 23.25 8.57632 23.25 8.57554 23.25C8.57476 23.25 8.57399 23.25 8.57321 23.25C8.57243 23.25 8.57165 23.25 8.57086 23.25C8.57008 23.25 8.56929 23.25 8.56851 23.25C8.56772 23.25 8.56693 23.25 8.56614 23.25C8.56535 23.25 8.56456 23.25 8.56377 23.25C8.56297 23.25 8.56218 23.25 8.56138 23.25C8.56059 23.25 8.55979 23.25 8.55899 23.25C8.55819 23.25 8.55738 23.25 8.55658 23.25C8.55578 23.25 8.55497 23.25 8.55416 23.25C8.55336 23.25 8.55255 23.25 8.55174 23.25C8.55092 23.25 8.55011 23.25 8.5493 23.25C8.54848 23.25 8.54767 23.25 8.54685 23.25C8.54603 23.25 8.54521 23.25 8.54439 23.25C8.54357 23.25 8.54275 23.25 8.54192 23.25C8.5411 23.25 8.54027 23.25 8.53945 23.25C8.53862 23.25 8.53779 23.25 8.53696 23.25C8.53613 23.25 8.53529 23.25 8.53446 23.25C8.53363 23.25 8.53279 23.25 8.53195 23.25C8.53111 23.25 8.53027 23.25 8.52943 23.25C8.52859 23.25 8.52775 23.25 8.5269 23.25C8.52606 23.25 8.52521 23.25 8.52436 23.25C8.52352 23.25 8.52267 23.25 8.52182 23.25C8.52097 23.25 8.52011 23.25 8.51926 23.25C8.5184 23.25 8.51755 23.25 8.51669 23.25C8.51583 23.25 8.51497 23.25 8.51411 23.25C8.51325 23.25 8.51239 23.25 8.51152 23.25C8.51066 23.25 8.50979 23.25 8.50892 23.25C8.50806 23.25 8.50719 23.25 8.50631 23.25C8.50544 23.25 8.50457 23.25 8.5037 23.25C8.50282 23.25 8.50195 23.25 8.50107 23.25C8.50019 23.25 8.49931 23.25 8.49843 23.25C8.49755 23.25 8.49667 23.25 8.49578 23.25C8.4949 23.25 8.49401 23.25 8.49313 23.25C8.49224 23.25 8.49135 23.25 8.49046 23.25C8.48957 23.25 8.48868 23.25 8.48778 23.25C8.48689 23.25 8.48599 23.25 8.4851 23.25C8.4842 23.25 8.4833 23.25 8.4824 23.25C8.4815 23.25 8.4806 23.25 8.47969 23.25C8.47879 23.25 8.47788 23.25 8.47698 23.25C8.47607 23.25 8.47516 23.25 8.47425 23.25C8.47334 23.25 8.47243 23.25 8.47152 23.25C8.4706 23.25 8.46969 23.25 8.46877 23.25C8.46786 23.25 8.46694 23.25 8.46602 23.25C8.4651 23.25 8.46418 23.25 8.46326 23.25C8.46233 23.25 8.46141 23.25 8.46048 23.25C8.45956 23.25 8.45863 23.25 8.4577 23.25C8.45677 23.25 8.45584 23.25 8.45491 23.25C8.45398 23.25 8.45304 23.25 8.45211 23.25C8.45117 23.25 8.45024 23.25 8.4493 23.25C8.44836 23.25 8.44742 23.25 8.44648 23.25C8.44554 23.25 8.44459 23.25 8.44365 23.25C8.44271 23.25 8.44176 23.25 8.44081 23.25C8.43986 23.25 8.43891 23.25 8.43796 23.25C8.43701 23.25 8.43606 23.25 8.43511 23.25C8.43415 23.25 8.4332 23.25 8.43224 23.25C8.43128 23.25 8.43033 23.25 8.42937 23.25C8.42841 23.25 8.42744 23.25 8.42648 23.25C8.42552 23.25 8.42455 23.25 8.42359 23.25C8.42262 23.25 8.42165 23.25 8.42068 23.25C8.41972 23.25 8.41874 23.25 8.41777 23.25C8.4168 23.25 8.41583 23.25 8.41485 23.25C8.41388 23.25 8.4129 23.25 8.41192 23.25C8.41094 23.25 8.40996 23.25 8.40898 23.25C8.408 23.25 8.40702 23.25 8.40603 23.25C8.40505 23.25 8.40406 23.25 8.40308 23.25C8.40209 23.25 8.4011 23.25 8.40011 23.25C8.39912 23.25 8.39813 23.25 8.39713 23.25C8.39614 23.25 8.39515 23.25 8.39415 23.25C8.39315 23.25 8.39216 23.25 8.39116 23.25C8.39016 23.25 8.38916 23.25 8.38815 23.25C8.38715 23.25 8.38615 23.25 8.38514 23.25C8.38414 23.25 8.38313 23.25 8.38212 23.25C8.38112 23.25 8.38011 23.25 8.3791 23.25C8.37808 23.25 8.37707 23.25 8.37606 23.25C8.37504 23.25 8.37403 23.25 8.37301 23.25C8.372 23.25 8.37098 23.25 8.36996 23.25C8.36894 23.25 8.36792 23.25 8.36689 23.25C8.36587 23.25 8.36485 23.25 8.36382 23.25C8.3628 23.25 8.36177 23.25 8.36074 23.25C8.35971 23.25 8.35868 23.25 8.35765 23.25C8.35662 23.25 8.35559 23.25 8.35455 23.25C8.35352 23.25 8.35248 23.25 8.35145 23.25C8.35041 23.25 8.34937 23.25 8.34833 23.25C8.34729 23.25 8.34625 23.25 8.34521 23.25C8.34416 23.25 8.34312 23.25 8.34207 23.25C8.34103 23.25 8.33998 23.25 8.33893 23.25C8.33788 23.25 8.33683 23.25 8.33578 23.25C8.33473 23.25 8.33368 23.25 8.33262 23.25C8.33157 23.25 8.33051 23.25 8.32946 23.25C8.3284 23.25 8.32734 23.25 8.32628 23.25C8.32522 23.25 8.32416 23.25 8.3231 23.25C8.32204 23.25 8.32097 23.25 8.31991 23.25C8.31884 23.25 8.31778 23.25 8.31671 23.25C8.31564 23.25 8.31457 23.25 8.3135 23.25C8.31243 23.25 8.31136 23.25 8.31028 23.25C8.30921 23.25 8.30813 23.25 8.30706 23.25C8.30598 23.25 8.3049 23.25 8.30382 23.25C8.30274 23.25 8.30166 23.25 8.30058 23.25C8.2995 23.25 8.29842 23.25 8.29733 23.25C8.29625 23.25 8.29516 23.25 8.29407 23.25C8.29299 23.25 8.2919 23.25 8.29081 23.25C8.28972 23.25 8.28863 23.25 8.28753 23.25C8.28644 23.25 8.28535 23.25 8.28425 23.25C8.28316 23.25 8.28206 23.25 8.28096 23.25C8.27986 23.25 8.27876 23.25 8.27766 23.25C8.27656 23.25 8.27546 23.25 8.27435 23.25C8.27325 23.25 8.27215 23.25 8.27104 23.25C8.26993 23.25 8.26883 23.25 8.26772 23.25C8.26661 23.25 8.2655 23.25 8.26439 23.25C8.26328 23.25 8.26216 23.25 8.26105 23.25C8.25993 23.25 8.25882 23.25 8.2577 23.25C8.25658 23.25 8.25547 23.25 8.25435 23.25C8.25323 23.25 8.25211 23.25 8.25098 23.25C8.24986 23.25 8.24874 23.25 8.24761 23.25C8.24649 23.25 8.24536 23.25 8.24424 23.25C8.24311 23.25 8.24198 23.25 8.24085 23.25C8.23972 23.25 8.23859 23.25 8.23746 23.25C8.23632 23.25 8.23519 23.25 8.23406 23.25C8.23292 23.25 8.23178 23.25 8.23065 23.25C8.22951 23.25 8.22837 23.25 8.22723 23.25C8.22609 23.25 8.22495 23.25 8.2238 23.25C8.22266 23.25 8.22152 23.25 8.22037 23.25C8.21923 23.25 8.21808 23.25 8.21693 23.25C8.21578 23.25 8.21463 23.25 8.21348 23.25C8.21233 23.25 8.21118 23.25 8.21003 23.25C8.20888 23.25 8.20772 23.25 8.20657 23.25C8.20541 23.25 8.20425 23.25 8.2031 23.25C8.20194 23.25 8.20078 23.25 8.19962 23.25C8.19846 23.25 8.1973 23.25 8.19613 23.25C8.19497 23.25 8.1938 23.25 8.19264 23.25C8.19147 23.25 8.19031 23.25 8.18914 23.25C8.18797 23.25 8.1868 23.25 8.18563 23.25C8.18446 23.25 8.18329 23.25 8.18212 23.25C8.18094 23.25 8.17977 23.25 8.17859 23.25C8.17742 23.25 8.17624 23.25 8.17506 23.25C8.17388 23.25 8.17271 23.25 8.17153 23.25C8.17035 23.25 8.16916 23.25 8.16798 23.25C8.1668 23.25 8.16561 23.25 8.16443 23.25C8.16324 23.25 8.16206 23.25 8.16087 23.25C8.15968 23.25 8.15849 23.25 8.1573 23.25C8.15611 23.25 8.15492 23.25 8.15373 23.25C8.15254 23.25 8.15134 23.25 8.15015 23.25C8.14895 23.25 8.14776 23.25 8.14656 23.25C8.14536 23.25 8.14416 23.25 8.14296 23.25C8.14176 23.25 8.14056 23.25 8.13936 23.25C8.13816 23.25 8.13696 23.25 8.13575 23.25C8.13455 23.25 8.13334 23.25 8.13214 23.25C8.13093 23.25 8.12972 23.25 8.12851 23.25C8.1273 23.25 8.12609 23.25 8.12488 23.25C8.12367 23.25 8.12246 23.25 8.12124 23.25C8.12003 23.25 8.11881 23.25 8.1176 23.25C8.11638 23.25 8.11516 23.25 8.11395 23.25C8.11273 23.25 8.11151 23.25 8.11029 23.25C8.10907 23.25 8.10784 23.25 8.10662 23.25C8.1054 23.25 8.10417 23.25 8.10295 23.25C8.10172 23.25 8.1005 23.25 8.09927 23.25C8.09804 23.25 8.09681 23.25 8.09558 23.25C8.09435 23.25 8.09312 23.25 8.09189 23.25C8.09066 23.25 8.08942 23.25 8.08819 23.25C8.08695 23.25 8.08572 23.25 8.08448 23.25C8.08325 23.25 8.08201 23.25 8.08077 23.25C8.07953 23.25 8.07829 23.25 8.07705 23.25C8.07581 23.25 8.07456 23.25 8.07332 23.25C8.07208 23.25 8.07083 23.25 8.06959 23.25C8.06834 23.25 8.06709 23.25 8.06585 23.25C8.0646 23.25 8.06335 23.25 8.0621 23.25C8.06085 23.25 8.0596 23.25 8.05835 23.25C8.05709 23.25 8.05584 23.25 8.05459 23.25C8.05333 23.25 8.05207 23.25 8.05082 23.25C8.04956 23.25 8.0483 23.25 8.04704 23.25C8.04579 23.25 8.04453 23.25 8.04326 23.25C8.042 23.25 8.04074 23.25 8.03948 23.25C8.03821 23.25 8.03695 23.25 8.03569 23.25C8.03442 23.25 8.03315 23.25 8.03189 23.25C8.03062 23.25 8.02935 23.25 8.02808 23.25C8.02681 23.25 8.02554 23.25 8.02427 23.25C8.02299 23.25 8.02172 23.25 8.02045 23.25C8.01917 23.25 8.0179 23.25 8.01662 23.25C8.01535 23.25 8.01407 23.25 8.01279 23.25C8.01151 23.25 8.01023 23.25 8.00895 23.25C8.00767 23.25 8.00639 23.25 8.00511 23.25C8.00383 23.25 8.00254 23.25 8.00126 23.25C7.99997 23.25 7.99869 23.25 7.9974 23.25C7.99612 23.25 7.99483 23.25 7.99354 23.25C7.99225 23.25 7.99096 23.25 7.98967 23.25C7.98838 23.25 7.98709 23.25 7.9858 23.25C7.9845 23.25 7.98321 23.25 7.98191 23.25C7.98062 23.25 7.97932 23.25 7.97803 23.25C7.97673 23.25 7.97543 23.25 7.97413 23.25C7.97283 23.25 7.97153 23.25 7.97023 23.25C7.96893 23.25 7.96763 23.25 7.96633 23.25C7.96502 23.25 7.96372 23.25 7.96241 23.25C7.96111 23.25 7.9598 23.25 7.9585 23.25C7.95719 23.25 7.95588 23.25 7.95457 23.25C7.95326 23.25 7.95195 23.25 7.95064 23.25C7.94933 23.25 7.94802 23.25 7.94671 23.25C7.94539 23.25 7.94408 23.25 7.94277 23.25C7.94145 23.25 7.94013 23.25 7.93882 23.25C7.9375 23.25 7.93618 23.25 7.93486 23.25C7.93355 23.25 7.93223 23.25 7.9309 23.25C7.92958 23.25 7.92826 23.25 7.92694 23.25C7.92562 23.25 7.92429 23.25 7.92297 23.25C7.92164 23.25 7.92032 23.25 7.91899 23.25C7.91766 23.25 7.91634 23.25 7.91501 23.25C7.91368 23.25 7.91235 23.25 7.91102 23.25C7.90969 23.25 7.90836 23.25 7.90703 23.25C7.90569 23.25 7.90436 23.25 7.90303 23.25C7.90169 23.25 7.90036 23.25 7.89902 23.25C7.89768 23.25 7.89635 23.25 7.89501 23.25C7.89367 23.25 7.89233 23.25 7.89099 23.25C7.88965 23.25 7.88831 23.25 7.88697 23.25C7.88563 23.25 7.88429 23.25 7.88294 23.25C7.8816 23.25 7.88025 23.25 7.87891 23.25C7.87756 23.25 7.87622 23.25 7.87487 23.25C7.87352 23.25 7.87217 23.25 7.87083 23.25C7.86948 23.25 7.86813 23.25 7.86678 23.25C7.86542 23.25 7.86407 23.25 7.86272 23.25C7.86137 23.25 7.86001 23.25 7.85866 23.25C7.8573 23.25 7.85595 23.25 7.85459 23.25C7.85324 23.25 7.85188 23.25 7.85052 23.25C7.84916 23.25 7.8478 23.25 7.84644 23.25C7.84508 23.25 7.84372 23.25 7.84236 23.25C7.841 23.25 7.83964 23.25 7.83827 23.25C7.83691 23.25 7.83555 23.25 7.83418 23.25C7.83282 23.25 7.83145 23.25 7.83008 23.25C7.82872 23.25 7.82735 23.25 7.82598 23.25C7.82461 23.25 7.82324 23.25 7.82187 23.25C7.8205 23.25 7.81913 23.25 7.81776 23.25C7.81638 23.25 7.81501 23.25 7.81364 23.25C7.81226 23.25 7.81089 23.25 7.80951 23.25C7.80814 23.25 7.80676 23.25 7.80538 23.25C7.80401 23.25 7.80263 23.25 7.80125 23.25C7.79987 23.25 7.79849 23.25 7.79711 23.25C7.79573 23.25 7.79435 23.25 7.79296 23.25C7.79158 23.25 7.7902 23.25 7.78881 23.25C7.78743 23.25 7.78605 23.25 7.78466 23.25C7.78327 23.25 7.78189 23.25 7.7805 23.25C7.77911 23.25 7.77772 23.25 7.77634 23.25C7.77495 23.25 7.77356 23.25 7.77217 23.25C7.77077 23.25 7.76938 23.25 7.76799 23.25C7.7666 23.25 7.76521 23.25 7.76381 23.25C7.76242 23.25 7.76102 23.25 7.75963 23.25C7.75823 23.25 7.75683 23.25 7.75544 23.25C7.75404 23.25 7.75264 23.25 7.75124 23.25C7.74984 23.25 7.74845 23.25 7.74704 23.25C7.74564 23.25 7.74424 23.25 7.74284 23.25C7.74144 23.25 7.74004 23.25 7.73863 23.25C7.73723 23.25 7.73582 23.25 7.73442 23.25C7.73301 23.25 7.73161 23.25 7.7302 23.25C7.72879 23.25 7.72739 23.25 7.72598 23.25C7.72457 23.25 7.72316 23.25 7.72175 23.25C7.72034 23.25 7.71893 23.25 7.71752 23.25C7.71611 23.25 7.7147 23.25 7.71328 23.25C7.71187 23.25 7.71046 23.25 7.70904 23.25C7.70763 23.25 7.70621 23.25 7.7048 23.25C7.70338 23.25 7.70196 23.25 7.70055 23.25C7.69913 23.25 7.69771 23.25 7.69629 23.25C7.69487 23.25 7.69345 23.25 7.69203 23.25C7.69061 23.25 7.68919 23.25 7.68777 23.25C7.68635 23.25 7.68492 23.25 7.6835 23.25C7.68208 23.25 7.68065 23.25 7.67923 23.25C7.6778 23.25 7.67638 23.25 7.67495 23.25C7.67352 23.25 7.6721 23.25 7.67067 23.25C7.66924 23.25 7.66781 23.25 7.66638 23.25C7.66495 23.25 7.66352 23.25 7.66209 23.25C7.66066 23.25 7.65923 23.25 7.6578 23.25C7.65637 23.25 7.65493 23.25 7.6535 23.25C7.65207 23.25 7.65063 23.25 7.6492 23.25C7.64776 23.25 7.64633 23.25 7.64489 23.25C7.64345 23.25 7.64202 23.25 7.64058 23.25C7.63914 23.25 7.6377 23.25 7.63626 23.25C7.63482 23.25 7.63338 23.25 7.63194 23.25C7.6305 23.25 7.62906 23.25 7.62762 23.25C7.62618 23.25 7.62473 23.25 7.62329 23.25C7.62185 23.25 7.6204 23.25 7.61896 23.25C7.61751 23.25 7.61607 23.25 7.61462 23.25C7.61317 23.25 7.61173 23.25 7.61028 23.25C7.60883 23.25 7.60739 23.25 7.60594 23.25C7.60449 23.25 7.60304 23.25 7.60159 23.25C7.60014 23.25 7.59869 23.25 7.59724 23.25C7.59578 23.25 7.59433 23.25 7.59288 23.25C7.59143 23.25 7.58997 23.25 7.58852 23.25C7.58706 23.25 7.58561 23.25 7.58415 23.25C7.5827 23.25 7.58124 23.25 7.57979 23.25C7.57833 23.25 7.57687 23.25 7.57541 23.25C7.57396 23.25 7.5725 23.25 7.57104 23.25C7.56958 23.25 7.56812 23.25 7.56666 23.25C7.5652 23.25 7.56374 23.25 7.56227 23.25C7.56081 23.25 7.55935 23.25 7.55789 23.25C7.55642 23.25 7.55496 23.25 7.5535 23.25C7.55203 23.25 7.55057 23.25 7.5491 23.25C7.54764 23.25 7.54617 23.25 7.5447 23.25C7.54324 23.25 7.54177 23.25 7.5403 23.25C7.53883 23.25 7.53736 23.25 7.53589 23.25C7.53443 23.25 7.53296 23.25 7.53149 23.25C7.53001 23.25 7.52854 23.25 7.52707 23.25C7.5256 23.25 7.52413 23.25 7.52266 23.25C7.52118 23.25 7.51971 23.25 7.51824 23.25C7.51676 23.25 7.51529 23.25 7.51381 23.25C7.51234 23.25 7.51086 23.25 7.50938 23.25C7.50791 23.25 7.50643 23.25 7.50495 23.25C7.50348 23.25 7.502 23.25 7.50052 23.25C7.49904 23.25 7.49756 23.25 7.49608 23.25C7.4946 23.25 7.49312 23.25 7.49164 23.25C7.49016 23.25 7.48868 23.25 7.4872 23.25C7.48571 23.25 7.48423 23.25 7.48275 23.25C7.48126 23.25 7.47978 23.25 7.4783 23.25C7.47681 23.25 7.47533 23.25 7.47384 23.25C7.47236 23.25 7.47087 23.25 7.46938 23.25C7.4679 23.25 7.46641 23.25 7.46492 23.25C7.46343 23.25 7.46195 23.25 7.46046 23.25C7.45897 23.25 7.45748 23.25 7.45599 23.25C7.4545 23.25 7.45301 23.25 7.45152 23.25C7.45003 23.25 7.44854 23.25 7.44704 23.25C7.44555 23.25 7.44406 23.25 7.44257 23.25C7.44107 23.25 7.43958 23.25 7.43809 23.25C7.43659 23.25 7.4351 23.25 7.4336 23.25C7.43211 23.25 7.43061 23.25 7.42912 23.25C7.42762 23.25 7.42612 23.25 7.42463 23.25C7.42313 23.25 7.42163 23.25 7.42013 23.25C7.41863 23.25 7.41714 23.25 7.41564 23.25C7.41414 23.25 7.41264 23.25 7.41114 23.25C7.40964 23.25 7.40814 23.25 7.40664 23.25C7.40513 23.25 7.40363 23.25 7.40213 23.25C7.40063 23.25 7.39913 23.25 7.39762 23.25C7.39612 23.25 7.39462 23.25 7.39311 23.25C7.39161 23.25 7.3901 23.25 7.3886 23.25C7.38709 23.25 7.38559 23.25 7.38408 23.25V25.25Z" fill="#1A1A1A"/>
</svg>
