<svg width="36" height="36" viewBox="0 0 36 36" fill="none" xmlns="http://www.w3.org/2000/svg">
<path d="M27 25.5C27 26.104 26.4077 26.9839 24.6607 27.7701C23.0075 28.514 20.6535 29 18 29C15.3465 29 12.9925 28.514 11.3393 27.7701C9.59225 26.9839 9 26.104 9 25.5C9 24.896 9.59225 24.0161 11.3393 23.2299C12.9925 22.486 15.3465 22 18 22C20.6535 22 23.0075 22.486 24.6607 23.2299C26.4077 24.0161 27 24.896 27 25.5Z" stroke="#C2C6CC" stroke-width="2"/>
<path d="M23 13C23 15.7614 20.7614 18 18 18C15.2386 18 13 15.7614 13 13C13 10.2386 15.2386 8 18 8C20.7614 8 23 10.2386 23 13Z" stroke="#C2C6CC" stroke-width="2"/>
</svg>
