<svg width="32" height="32" viewBox="0 0 32 32" fill="none" xmlns="http://www.w3.org/2000/svg">
<path fill-rule="evenodd" clip-rule="evenodd" d="M9.17431 5.8689C8.45919 6.4499 7.99997 7.37184 7.99997 8.82649V25.827C8.0019 25.9105 8.02124 25.9925 8.05655 26.0671C8.18245 26.2952 8.45434 26.3805 8.6771 26.261L15.275 22.427L15.2782 22.4252C15.7095 22.178 16.2292 22.178 16.6606 22.4252L16.6624 22.4262L23.3003 26.2598C23.3757 26.2998 23.4584 26.3216 23.5427 26.3238C23.6635 26.3225 23.7791 26.271 23.8646 26.1803C23.9513 26.0883 24 25.9636 24 25.8336V8.61025C24 7.24155 23.5329 6.37394 22.8071 5.82195C22.0472 5.24391 20.9234 4.95215 19.5319 4.95215H12.468C11.0344 4.95215 9.9188 5.26403 9.17431 5.8689Z" stroke="#1A1A1A" stroke-width="1.5" stroke-linecap="round" stroke-linejoin="round"/>
</svg>
